G04*
G04 #@! TF.GenerationSoftware,Altium Limited,Altium Designer,22.5.1 (42)*
G04*
G04 Layer_Color=8388736*
%FSLAX44Y44*%
%MOMM*%
G71*
G04*
G04 #@! TF.SameCoordinates,34FB0FCD-49E4-40E2-9EDC-7902339FC661*
G04*
G04*
G04 #@! TF.FilePolarity,Negative*
G04*
G01*
G75*
%ADD35R,0.8858X0.7588*%
%ADD36R,2.1000X2.1000*%
%ADD37R,1.6000X1.8000*%
%ADD38R,1.4500X0.5000*%
%ADD39R,0.8000X2.4000*%
%ADD40R,3.7000X2.4000*%
%ADD41R,1.5000X1.1000*%
%ADD42R,1.6200X0.6700*%
%ADD43R,0.6700X1.6200*%
%ADD44R,1.2000X0.7500*%
%ADD45R,0.7500X1.2000*%
%ADD46C,3.0480*%
%ADD47R,2.9000X2.2000*%
%ADD48R,1.8000X3.2000*%
%ADD49R,1.0000X1.0000*%
%ADD50R,1.5000X0.9000*%
%ADD51R,0.9000X1.5000*%
%ADD52R,1.1000X0.8000*%
%ADD53R,2.7000X2.8000*%
%ADD54R,2.8000X2.7000*%
%ADD55R,1.1000X1.5000*%
%ADD56R,2.1000X2.1000*%
%ADD57C,2.1000*%
%ADD58O,1.8000X2.2000*%
%ADD59R,1.8000X2.2000*%
%ADD60R,2.2000X1.8000*%
%ADD61O,2.2000X1.8000*%
%ADD62C,3.2000*%
G04:AMPARAMS|DCode=63|XSize=2.2mm|YSize=1.4mm|CornerRadius=0.46mm|HoleSize=0mm|Usage=FLASHONLY|Rotation=0.000|XOffset=0mm|YOffset=0mm|HoleType=Round|Shape=RoundedRectangle|*
%AMROUNDEDRECTD63*
21,1,2.2000,0.4800,0,0,0.0*
21,1,1.2800,1.4000,0,0,0.0*
1,1,0.9200,0.6400,-0.2400*
1,1,0.9200,-0.6400,-0.2400*
1,1,0.9200,-0.6400,0.2400*
1,1,0.9200,0.6400,0.2400*
%
%ADD63ROUNDEDRECTD63*%
%ADD64R,1.9000X1.9000*%
%ADD65C,1.9000*%
%ADD66C,3.4000*%
%ADD67C,7.6000*%
D35*
X9000Y261616D02*
D03*
Y286000D02*
D03*
X586000Y256808D02*
D03*
Y281192D02*
D03*
D36*
X18250Y175000D02*
D03*
Y199000D02*
D03*
X246000Y83000D02*
D03*
X201000D02*
D03*
D37*
X42750Y155000D02*
D03*
Y219000D02*
D03*
D38*
X45000Y174000D02*
D03*
Y180500D02*
D03*
Y187000D02*
D03*
Y193500D02*
D03*
Y200000D02*
D03*
D39*
X149600Y113000D02*
D03*
X162300D02*
D03*
X175000D02*
D03*
X187700D02*
D03*
X200400D02*
D03*
D40*
X175000Y175000D02*
D03*
D41*
X275000Y68500D02*
D03*
Y49500D02*
D03*
X170000Y236000D02*
D03*
Y217000D02*
D03*
X215900Y300380D02*
D03*
Y319380D02*
D03*
X195000Y236000D02*
D03*
Y217000D02*
D03*
X220000Y195000D02*
D03*
Y176000D02*
D03*
Y236000D02*
D03*
Y217000D02*
D03*
X23000Y431000D02*
D03*
Y450000D02*
D03*
X632000Y475000D02*
D03*
Y456000D02*
D03*
X126000Y111000D02*
D03*
Y130000D02*
D03*
X225000Y103000D02*
D03*
Y122000D02*
D03*
X304000Y49500D02*
D03*
Y68500D02*
D03*
X354000Y49500D02*
D03*
Y68500D02*
D03*
X213000Y446500D02*
D03*
Y427500D02*
D03*
X636000Y134500D02*
D03*
Y153500D02*
D03*
X243000Y176000D02*
D03*
Y195000D02*
D03*
X639000Y197000D02*
D03*
Y178000D02*
D03*
X248000Y103000D02*
D03*
Y122000D02*
D03*
X432000Y79500D02*
D03*
Y60500D02*
D03*
X88000Y258000D02*
D03*
Y277000D02*
D03*
X665000Y197000D02*
D03*
Y178000D02*
D03*
X28000Y284000D02*
D03*
Y265000D02*
D03*
X665000Y218000D02*
D03*
Y237000D02*
D03*
D42*
X108000Y312000D02*
D03*
Y272000D02*
D03*
Y296000D02*
D03*
Y320000D02*
D03*
Y288000D02*
D03*
Y280000D02*
D03*
Y328000D02*
D03*
Y304000D02*
D03*
X192000Y328000D02*
D03*
Y320000D02*
D03*
Y312000D02*
D03*
Y304000D02*
D03*
Y296000D02*
D03*
Y288000D02*
D03*
Y280000D02*
D03*
Y272000D02*
D03*
D43*
X170000Y258000D02*
D03*
X122000D02*
D03*
X130000Y342000D02*
D03*
X138000Y258000D02*
D03*
X146000D02*
D03*
X162000D02*
D03*
X154000Y342000D02*
D03*
X138000D02*
D03*
X154000Y258000D02*
D03*
X146000Y342000D02*
D03*
X178000Y258000D02*
D03*
X130000D02*
D03*
X122000Y342000D02*
D03*
X170000D02*
D03*
X162000D02*
D03*
X178000D02*
D03*
D44*
X168500Y446500D02*
D03*
Y437000D02*
D03*
Y427500D02*
D03*
X195500Y446500D02*
D03*
Y427500D02*
D03*
X249000Y139000D02*
D03*
Y158000D02*
D03*
X222000Y139000D02*
D03*
Y148500D02*
D03*
Y158000D02*
D03*
D45*
X68000Y263000D02*
D03*
X49000D02*
D03*
X68000Y236000D02*
D03*
X58500D02*
D03*
X49000D02*
D03*
X674500Y158500D02*
D03*
X665000D02*
D03*
X655500D02*
D03*
X674500Y131500D02*
D03*
X655500D02*
D03*
D46*
X227000Y49000D02*
D03*
X668000Y21000D02*
D03*
X669000Y508000D02*
D03*
X186000Y475000D02*
D03*
D47*
X23000Y56000D02*
D03*
Y88000D02*
D03*
D48*
X71000Y95500D02*
D03*
Y136500D02*
D03*
Y21000D02*
D03*
Y62000D02*
D03*
D49*
X585000Y371000D02*
D03*
X601000D02*
D03*
X237000Y425000D02*
D03*
X253000D02*
D03*
X236000Y398000D02*
D03*
X252000D02*
D03*
X236000Y381000D02*
D03*
X252000D02*
D03*
D50*
X174000Y387500D02*
D03*
Y406500D02*
D03*
X215900Y259740D02*
D03*
Y278740D02*
D03*
X608000Y456500D02*
D03*
Y475500D02*
D03*
X584000Y456500D02*
D03*
Y475500D02*
D03*
X632000Y412000D02*
D03*
Y431000D02*
D03*
X297000Y234000D02*
D03*
Y253000D02*
D03*
X639000Y236500D02*
D03*
Y217500D02*
D03*
X329000Y86000D02*
D03*
Y67000D02*
D03*
Y67000D02*
D03*
Y48000D02*
D03*
D51*
X272500Y418000D02*
D03*
X291500D02*
D03*
X272500Y395000D02*
D03*
X291500D02*
D03*
X100000Y358000D02*
D03*
X81000D02*
D03*
X87000Y213000D02*
D03*
X106000D02*
D03*
X87500Y189000D02*
D03*
X106500D02*
D03*
X87500Y165000D02*
D03*
X106500D02*
D03*
X369500Y102000D02*
D03*
X350500D02*
D03*
X253000Y445000D02*
D03*
X234000D02*
D03*
X407000Y234000D02*
D03*
X388000D02*
D03*
X601000Y352000D02*
D03*
X582000D02*
D03*
X11000Y240000D02*
D03*
X30000D02*
D03*
X292000Y90000D02*
D03*
X273000D02*
D03*
X126000Y213000D02*
D03*
X145000D02*
D03*
D52*
X68000D02*
D03*
Y198000D02*
D03*
Y167000D02*
D03*
Y182000D02*
D03*
D53*
X440500Y291000D02*
D03*
X391500D02*
D03*
D54*
X248920Y267600D02*
D03*
Y316600D02*
D03*
D55*
X125500Y237000D02*
D03*
X144500D02*
D03*
X241960Y345440D02*
D03*
X260960D02*
D03*
X241960Y238760D02*
D03*
X260960D02*
D03*
X390500Y54000D02*
D03*
X409500D02*
D03*
X21500Y522000D02*
D03*
X40500D02*
D03*
X473500Y77000D02*
D03*
X454500D02*
D03*
X446000Y234000D02*
D03*
X427000D02*
D03*
X243500Y482000D02*
D03*
X262500D02*
D03*
X409500Y78000D02*
D03*
X390500D02*
D03*
X409000Y102000D02*
D03*
X390000D02*
D03*
X429500D02*
D03*
X448500D02*
D03*
X407000Y257000D02*
D03*
X388000D02*
D03*
X427000D02*
D03*
X446000D02*
D03*
X49000Y284000D02*
D03*
X68000D02*
D03*
X87000Y237000D02*
D03*
X106000D02*
D03*
X581500Y329000D02*
D03*
X600500D02*
D03*
X473500Y53000D02*
D03*
X454500D02*
D03*
X592000Y234000D02*
D03*
X611000D02*
D03*
D56*
X671500Y304500D02*
D03*
Y259500D02*
D03*
D57*
X606500Y304500D02*
D03*
Y259500D02*
D03*
X246000Y18000D02*
D03*
X201000D02*
D03*
D58*
X454400Y25400D02*
D03*
X429400D02*
D03*
X404400D02*
D03*
X379400D02*
D03*
X354400D02*
D03*
X329400D02*
D03*
X304400D02*
D03*
X610000Y508000D02*
D03*
X585000D02*
D03*
X560000D02*
D03*
X535000D02*
D03*
X510000D02*
D03*
X485000D02*
D03*
X460000D02*
D03*
X191560D02*
D03*
X216560D02*
D03*
X241560D02*
D03*
X266560D02*
D03*
X291560D02*
D03*
X316560D02*
D03*
X341560D02*
D03*
X366560D02*
D03*
X391560D02*
D03*
X144000Y83000D02*
D03*
X169000D02*
D03*
X533000Y25400D02*
D03*
X558000D02*
D03*
X583000D02*
D03*
X608000D02*
D03*
X633000D02*
D03*
X579520Y205740D02*
D03*
X554520D02*
D03*
X529520D02*
D03*
X504520D02*
D03*
X479520D02*
D03*
X454520D02*
D03*
X429520D02*
D03*
X404520D02*
D03*
X379520D02*
D03*
X354520D02*
D03*
X329520D02*
D03*
X304520D02*
D03*
X279520D02*
D03*
X604520Y129540D02*
D03*
X579520D02*
D03*
X554520D02*
D03*
X529520D02*
D03*
X504520D02*
D03*
X479520D02*
D03*
X454520D02*
D03*
X429520D02*
D03*
X404520D02*
D03*
X379520D02*
D03*
X354520D02*
D03*
X329520D02*
D03*
X304520D02*
D03*
X279520D02*
D03*
D59*
X279400Y25400D02*
D03*
X635000Y508000D02*
D03*
X416560D02*
D03*
X119000Y83000D02*
D03*
X508000Y25400D02*
D03*
X604520Y205740D02*
D03*
D60*
X145000Y445000D02*
D03*
X660000Y470000D02*
D03*
D61*
X145000Y420000D02*
D03*
Y395000D02*
D03*
Y370000D02*
D03*
X660000Y445000D02*
D03*
Y420000D02*
D03*
D62*
X22000Y20000D02*
D03*
Y124000D02*
D03*
D63*
X18250Y154000D02*
D03*
Y220000D02*
D03*
D64*
X50800Y340360D02*
D03*
X25600Y383000D02*
D03*
X25400Y472440D02*
D03*
D65*
Y340360D02*
D03*
X50800Y314960D02*
D03*
X25400D02*
D03*
X51000Y383000D02*
D03*
X76400D02*
D03*
X25600Y408400D02*
D03*
X51000D02*
D03*
X75130D02*
D03*
X74930Y497840D02*
D03*
X50800D02*
D03*
X25400D02*
D03*
X76200Y472440D02*
D03*
X50800D02*
D03*
D66*
X130000Y500000D02*
D03*
D67*
X140000Y25400D02*
D03*
X660400Y78740D02*
D03*
Y355600D02*
D03*
M02*
