G04*
G04 #@! TF.GenerationSoftware,Altium Limited,Altium Designer,22.5.1 (42)*
G04*
G04 Layer_Physical_Order=1*
G04 Layer_Color=255*
%FSLAX44Y44*%
%MOMM*%
G71*
G04*
G04 #@! TF.SameCoordinates,34FB0FCD-49E4-40E2-9EDC-7902339FC661*
G04*
G04*
G04 #@! TF.FilePolarity,Positive*
G04*
G01*
G75*
%ADD12C,0.6000*%
%ADD13C,0.3000*%
%ADD14C,0.4000*%
%ADD15R,0.6858X0.5588*%
%ADD16R,1.9000X1.9000*%
%ADD17R,1.4000X1.6000*%
%ADD18R,1.3500X0.4000*%
%ADD19R,0.6000X2.2000*%
%ADD20R,3.5000X2.2000*%
%ADD21R,1.3000X0.9000*%
%ADD22R,1.5000X0.5500*%
%ADD23R,0.5500X1.5000*%
%ADD24R,1.0000X0.5500*%
%ADD25R,0.5500X1.0000*%
%ADD26R,2.7000X2.0000*%
%ADD27R,1.6000X3.0000*%
%ADD28R,0.8000X0.8000*%
%ADD29R,1.3000X0.7000*%
%ADD30R,0.7000X1.3000*%
%ADD31R,0.9000X0.6000*%
%ADD32R,2.5000X2.6000*%
%ADD33R,2.6000X2.5000*%
%ADD34R,0.9000X1.3000*%
%ADD64R,1.9000X1.9000*%
%ADD65C,1.9000*%
%ADD68C,1.0160*%
%ADD69C,0.5000*%
%ADD70C,0.8000*%
%ADD71C,1.0000*%
%ADD72C,0.7000*%
%ADD73O,1.6000X2.0000*%
%ADD74R,1.6000X2.0000*%
%ADD75R,2.0000X1.6000*%
%ADD76O,2.0000X1.6000*%
%ADD77C,3.0000*%
G04:AMPARAMS|DCode=78|XSize=2mm|YSize=1.2mm|CornerRadius=0.36mm|HoleSize=0mm|Usage=FLASHONLY|Rotation=0.000|XOffset=0mm|YOffset=0mm|HoleType=Round|Shape=RoundedRectangle|*
%AMROUNDEDRECTD78*
21,1,2.0000,0.4800,0,0,0.0*
21,1,1.2800,1.2000,0,0,0.0*
1,1,0.7200,0.6400,-0.2400*
1,1,0.7200,-0.6400,-0.2400*
1,1,0.7200,-0.6400,0.2400*
1,1,0.7200,0.6400,0.2400*
%
%ADD78ROUNDEDRECTD78*%
%ADD79R,1.7000X1.7000*%
%ADD80C,1.7000*%
%ADD81C,3.2000*%
%ADD82C,7.4000*%
%ADD83C,0.6000*%
G36*
X246500Y435500D02*
X246000Y435000D01*
X190000D01*
Y433250D01*
X187500D01*
Y421750D01*
X190000D01*
Y403000D01*
X164000D01*
Y420000D01*
X163423Y420577D01*
X163909Y421750D01*
X176500D01*
Y423152D01*
X176709D01*
X178660Y423540D01*
X179348Y424000D01*
X180194D01*
X182399Y424913D01*
X184087Y426601D01*
X185000Y428806D01*
Y431194D01*
X184087Y433399D01*
X182399Y435087D01*
X180194Y436000D01*
X177806D01*
X177556Y435896D01*
X176500Y436602D01*
Y440750D01*
Y451011D01*
X177901Y452412D01*
X246500D01*
Y435500D01*
D02*
G37*
G36*
X664000Y398000D02*
X683000D01*
Y293000D01*
X590000D01*
Y338000D01*
X591000Y339000D01*
X614000D01*
Y378000D01*
X593000D01*
Y364000D01*
X571000D01*
Y385000D01*
X577000Y391000D01*
X614000D01*
Y419000D01*
X643000D01*
X664000Y398000D01*
D02*
G37*
G36*
X29000Y513000D02*
X36000Y506000D01*
Y489000D01*
X35687Y488688D01*
X35644Y488679D01*
X34156Y487684D01*
X33471Y487000D01*
X13000D01*
Y440000D01*
X104000D01*
X117412Y453412D01*
X132000D01*
Y434000D01*
X131348Y433000D01*
X130000D01*
X132000Y431000D01*
Y420721D01*
X131905Y420000D01*
X13000D01*
Y306000D01*
X28000Y291000D01*
X58000D01*
Y266000D01*
Y255000D01*
X70000D01*
X70000Y255000D01*
X73750D01*
Y258750D01*
X78000Y263000D01*
X109000D01*
Y246500D01*
X98500D01*
Y245000D01*
X94500D01*
Y246500D01*
X80985D01*
X79399Y248086D01*
X77193Y249000D01*
X74806D01*
X72601Y248086D01*
X72196Y247681D01*
X70416Y247327D01*
X68762Y246222D01*
X67540Y245000D01*
X38000D01*
Y270000D01*
X37500D01*
Y272500D01*
X18500D01*
Y270000D01*
X4000D01*
X3000Y271000D01*
Y530000D01*
X4000Y531000D01*
X29000D01*
Y513000D01*
D02*
G37*
G36*
X682000Y233000D02*
X656591D01*
X656000Y233118D01*
X655409Y233000D01*
X632000D01*
Y242000D01*
X622000Y252000D01*
X593000D01*
Y263000D01*
X582118Y273883D01*
Y286000D01*
X682000D01*
Y233000D01*
D02*
G37*
G36*
X55402Y226598D02*
X56127Y225513D01*
X57884Y223756D01*
X59373Y222761D01*
X61129Y222412D01*
X73000D01*
X74756Y222761D01*
X76244Y223756D01*
X76489Y224000D01*
X80000D01*
Y206000D01*
X60416D01*
Y209398D01*
X61000Y210807D01*
Y213193D01*
X60086Y215399D01*
X58399Y217087D01*
X56193Y218000D01*
X53807D01*
X51601Y217087D01*
X49913Y215399D01*
X49000Y213193D01*
Y210807D01*
X49201Y210321D01*
Y208416D01*
X48913Y208128D01*
X48521Y207181D01*
X46438Y205098D01*
X45000D01*
X44507Y205000D01*
X35250D01*
Y197000D01*
X35000D01*
Y176000D01*
X35250D01*
Y175500D01*
X45057D01*
X45500Y175412D01*
X52000D01*
Y175000D01*
X56000Y171000D01*
X56887D01*
X57244Y170761D01*
X59000Y170412D01*
X69588D01*
X81000Y159000D01*
Y155500D01*
X94000D01*
Y157000D01*
X100000D01*
Y173000D01*
X154000D01*
X155000Y174000D01*
Y185902D01*
X178629D01*
X180807Y185000D01*
X183193D01*
X185399Y185913D01*
X185485Y186000D01*
X192000D01*
Y165067D01*
X190933Y164000D01*
X174000D01*
X138819Y128819D01*
X138432Y128560D01*
X137837Y128163D01*
X137837Y128163D01*
X134733Y125059D01*
X110000D01*
X109705Y125000D01*
X106000D01*
Y71000D01*
X108000Y69000D01*
X109705D01*
X110000Y68941D01*
X129000D01*
X129000Y68941D01*
X129295Y69000D01*
X191000D01*
Y70928D01*
X191326Y71416D01*
X191559Y72587D01*
Y92559D01*
X191941Y92941D01*
X211000D01*
Y47000D01*
X216000Y42000D01*
Y1000D01*
X84000D01*
Y40000D01*
X82272D01*
X82163Y40163D01*
X81171Y40826D01*
X80000Y41059D01*
X41059D01*
Y67000D01*
X41000Y67295D01*
Y70000D01*
Y72941D01*
X56000D01*
X57171Y73174D01*
X57568Y73440D01*
X58163Y73837D01*
X58163Y73837D01*
X61267Y76941D01*
X81000D01*
X82170Y77174D01*
X83163Y77837D01*
X83826Y78829D01*
X84059Y80000D01*
Y114000D01*
X84059Y114000D01*
X83826Y115170D01*
X83163Y116163D01*
X83163Y116163D01*
X78663Y120663D01*
X77670Y121326D01*
X76500Y121559D01*
X76500Y121559D01*
X62566D01*
X62163Y122163D01*
X61171Y122826D01*
X60000Y123059D01*
X49000D01*
X49000Y123059D01*
X47829Y122826D01*
X46837Y122163D01*
X46837Y122163D01*
X26733Y102059D01*
X8000D01*
X6830Y101826D01*
X2174D01*
X2000Y102000D01*
Y228000D01*
X54000D01*
X55402Y226598D01*
D02*
G37*
G36*
X253412Y180588D02*
Y154000D01*
X233000D01*
X231000Y156000D01*
Y161000D01*
X230000Y162000D01*
Y163750D01*
X214000D01*
Y152250D01*
Y138743D01*
X213902Y138250D01*
Y136653D01*
X213855Y136606D01*
X212601Y136087D01*
X210913Y134399D01*
X210000Y132193D01*
Y129806D01*
X210236Y129236D01*
X209000Y128000D01*
X206296D01*
X206000Y128059D01*
X206000Y128059D01*
X183000D01*
Y140000D01*
X205000Y162000D01*
Y162223D01*
X206181Y163990D01*
X206608Y166136D01*
Y185000D01*
X206405Y186018D01*
X207211Y187000D01*
X247000D01*
X253412Y180588D01*
D02*
G37*
G36*
X168000Y103971D02*
X166087Y102059D01*
X159900D01*
X159897Y102058D01*
X159894Y102059D01*
X159314Y101942D01*
X158729Y101826D01*
X158727Y101824D01*
X158724Y101824D01*
X158236Y101496D01*
X157737Y101163D01*
X157735Y101161D01*
X157733Y101159D01*
X156837Y100260D01*
X156835Y100257D01*
X156833Y100256D01*
X156506Y99763D01*
X156175Y99266D01*
X156175Y99263D01*
X156173Y99261D01*
X156122Y99000D01*
X130000D01*
Y73000D01*
X129000Y72000D01*
X110000D01*
Y122000D01*
X136000D01*
X140000Y126000D01*
X168000D01*
Y103971D01*
D02*
G37*
G36*
X60000Y118500D02*
X76500D01*
X81000Y114000D01*
Y80000D01*
X60000D01*
X56000Y76000D01*
X8000D01*
Y99000D01*
X28000D01*
X49000Y120000D01*
X60000D01*
Y118500D01*
D02*
G37*
G36*
X414000Y99000D02*
X426000Y87000D01*
X439000D01*
Y75000D01*
X424485D01*
X423399Y76087D01*
X421194Y77000D01*
X418806D01*
X416601Y76087D01*
X415515Y75000D01*
X415000D01*
Y74485D01*
X414913Y74399D01*
X414000Y72193D01*
Y71000D01*
X404000D01*
Y111000D01*
X396000Y119000D01*
Y140000D01*
X414000D01*
Y99000D01*
D02*
G37*
G36*
X215500Y115500D02*
Y114500D01*
X232412D01*
Y112000D01*
X232761Y110244D01*
X233000Y109887D01*
Y96000D01*
X189000D01*
Y95500D01*
X188500D01*
Y72587D01*
X159092D01*
X159003Y98100D01*
X159900Y99000D01*
X181000D01*
Y102000D01*
X183000Y104000D01*
Y125000D01*
X206000D01*
X215500Y115500D01*
D02*
G37*
G36*
X478000Y101704D02*
X478000Y47000D01*
X469000D01*
Y108000D01*
X471704D01*
X478000Y101704D01*
D02*
G37*
G36*
X465000Y45000D02*
X425000D01*
Y65000D01*
X465000D01*
Y45000D01*
D02*
G37*
G36*
X419000Y45000D02*
X425000Y39000D01*
X439000D01*
Y14000D01*
X396000D01*
Y32000D01*
X404000Y40000D01*
Y61000D01*
X419000D01*
Y45000D01*
D02*
G37*
G36*
X385000Y65000D02*
X398000D01*
Y39000D01*
X392000Y33000D01*
Y14000D01*
X371000D01*
X371000Y58807D01*
X371000Y58807D01*
Y61193D01*
X371000Y61193D01*
Y69000D01*
X361000Y79000D01*
X341059D01*
X340826Y80170D01*
X340163Y81163D01*
X340163Y81163D01*
X339663Y81663D01*
X338671Y82326D01*
X337500Y82559D01*
X337500Y82559D01*
X323341D01*
X322559Y83500D01*
X322326Y84670D01*
X322000Y85158D01*
Y92000D01*
X358000D01*
X385000Y65000D01*
D02*
G37*
G36*
X364000Y52000D02*
Y14000D01*
X348000D01*
X342000Y20000D01*
Y33000D01*
X338000Y37000D01*
X334958D01*
X334948Y37009D01*
X332272Y38117D01*
X329400Y38495D01*
X326528Y38117D01*
X323853Y37009D01*
X323842Y37000D01*
X320000D01*
Y52941D01*
X338000D01*
X338296Y53000D01*
X339000D01*
X339181Y53181D01*
X340163Y53837D01*
X340819Y54819D01*
X343000Y57000D01*
X359000D01*
X364000Y52000D01*
D02*
G37*
G36*
X316000Y87000D02*
X319500Y83500D01*
Y79500D01*
X337500D01*
X338000Y79000D01*
Y56000D01*
X315000D01*
X314000Y55000D01*
Y13000D01*
X291000D01*
Y40000D01*
X269000D01*
X267000Y42000D01*
Y60000D01*
X268000Y61000D01*
X284500D01*
Y73500D01*
X291500Y80500D01*
X298500D01*
Y87000D01*
X316000Y87000D01*
D02*
G37*
G36*
X38000Y38000D02*
X80000D01*
Y1000D01*
X79000Y0D01*
X1000D01*
Y67000D01*
X38000D01*
Y38000D01*
D02*
G37*
%LPC*%
G36*
X313500Y76000D02*
X294500D01*
Y61000D01*
X298000D01*
Y59806D01*
X298913Y57601D01*
X300601Y55914D01*
X302806Y55000D01*
X305194D01*
X307399Y55914D01*
X309087Y57601D01*
X310000Y59806D01*
Y61000D01*
X313500D01*
Y76000D01*
D02*
G37*
%LPD*%
D12*
X634500Y133000D02*
X636000Y134500D01*
X627515Y133000D02*
X634500D01*
X624000Y112000D02*
Y129485D01*
X627515Y133000D01*
X580000Y327500D02*
X581500Y329000D01*
X576000Y266808D02*
Y317000D01*
X580000Y321000D02*
Y327500D01*
X576000Y266808D02*
X584571Y258237D01*
X576000Y317000D02*
X580000Y321000D01*
X581750Y327250D02*
Y351750D01*
X665000Y197000D02*
X666500Y195500D01*
X650493Y121000D02*
X666250D01*
X640000Y131493D02*
X650493Y121000D01*
X606000Y94000D02*
X624000Y112000D01*
X666250Y121000D02*
X674500Y129250D01*
X656000Y227000D02*
X661000Y222000D01*
X625000Y229929D02*
Y239000D01*
Y229929D02*
X627929Y227000D01*
X674500Y131500D02*
Y133750D01*
X661000Y220000D02*
Y222000D01*
X663000Y218000D02*
X665000D01*
X661000Y220000D02*
X663000Y218000D01*
X619000Y245000D02*
X625000Y239000D01*
X674500Y129250D02*
Y131500D01*
X592000Y236000D02*
X601000Y245000D01*
X586000Y242000D02*
Y256808D01*
X665000Y197000D02*
Y218000D01*
X592000Y234000D02*
Y236000D01*
X586000Y242000D02*
X592000Y236000D01*
X581750Y351750D02*
X582000Y352000D01*
X244000Y471000D02*
Y481500D01*
X243750Y481750D02*
X244000Y481500D01*
X243500Y482000D02*
Y501354D01*
X241560Y503294D02*
X243500Y501354D01*
X241560Y503294D02*
Y508000D01*
D13*
X658000Y443000D02*
X660000Y445000D01*
X622000Y443000D02*
X658000D01*
X619500Y440500D02*
X622000Y443000D01*
X609925Y481743D02*
X627682Y499500D01*
X635000Y506000D02*
Y508000D01*
X627682Y499500D02*
X628500D01*
X608000Y475500D02*
Y475575D01*
X628500Y499500D02*
X635000Y506000D01*
X608000Y475575D02*
X609925Y477500D01*
Y481743D01*
X582000Y421000D02*
X582303Y421303D01*
X586303D02*
X606000Y441000D01*
X582303Y421303D02*
X586303D01*
X229000Y499000D02*
Y517000D01*
X222000Y492000D02*
X229000Y499000D01*
Y517000D02*
X234000Y522000D01*
X329560D01*
X382000Y369000D02*
Y498440D01*
X292574Y279574D02*
X382000Y369000D01*
X292574Y267574D02*
Y279574D01*
X397000Y371000D02*
Y488440D01*
X300000Y274000D02*
X397000Y371000D01*
X300000Y255000D02*
Y274000D01*
X320000Y280000D02*
X447000Y407000D01*
X320000Y223220D02*
Y280000D01*
X447000Y407000D02*
Y495000D01*
X460000Y406000D02*
Y483000D01*
X337000Y283000D02*
X460000Y406000D01*
X337000Y215452D02*
Y283000D01*
X474000Y407000D02*
Y472000D01*
X354520Y205740D02*
Y287520D01*
X474000Y407000D01*
X323000Y323000D02*
X366560Y366560D01*
Y508000D01*
X268000Y212483D02*
X285000Y229483D01*
X268000Y197000D02*
Y212483D01*
X285000Y229483D02*
Y301000D01*
X279000Y232000D02*
Y312000D01*
X263000Y216000D02*
X279000Y232000D01*
X263000Y121000D02*
Y216000D01*
X270000Y231808D02*
Y318000D01*
X333000Y381000D01*
X258000Y219808D02*
X270000Y231808D01*
X279000Y312000D02*
X344000Y377000D01*
X285000Y301000D02*
X356000Y372000D01*
X292000Y267000D02*
X292574Y267574D01*
X296000Y235000D02*
Y242000D01*
Y235000D02*
X297000Y234000D01*
X348500Y105000D02*
X350500Y103000D01*
X266000Y105000D02*
X348500D01*
X350500Y102000D02*
Y103000D01*
X270000Y114000D02*
X340980D01*
X354520Y127540D01*
X263000Y121000D02*
X270000Y114000D01*
X258000Y113000D02*
Y219808D01*
Y113000D02*
X266000Y105000D01*
X250182Y100818D02*
X257182D01*
X266757Y91243D02*
X271757D01*
X248000Y103000D02*
X250182Y100818D01*
X271757Y91243D02*
X273000Y90000D01*
X257182Y100818D02*
X266757Y91243D01*
X246000Y103000D02*
X248000D01*
X268000Y197000D02*
X277000Y188000D01*
X307000D01*
X610157Y233157D02*
X611000Y234000D01*
X610157Y232000D02*
Y233157D01*
X600157Y210103D02*
X604520Y205740D01*
X582000Y222000D02*
X600157D01*
X565000Y239000D02*
Y386000D01*
Y239000D02*
X582000Y222000D01*
X610520Y144000D02*
X651000D01*
X604520Y150000D02*
X610520Y144000D01*
X604520Y150000D02*
Y205740D01*
X565000Y386000D02*
X579000Y400000D01*
X591000D01*
X601000Y352000D02*
Y371000D01*
X655500Y131500D02*
Y139500D01*
X651000Y144000D02*
X655500Y139500D01*
X594000Y84000D02*
Y119020D01*
Y84000D02*
X633000Y45000D01*
Y25400D02*
Y45000D01*
X571000Y423000D02*
X596000Y448000D01*
X551000Y388500D02*
X571000Y408500D01*
Y423000D01*
X560000Y414000D02*
Y432500D01*
X581000Y456500D02*
X584000D01*
X579000Y454500D02*
X581000Y456500D01*
X579000Y451500D02*
Y454500D01*
X560000Y432500D02*
X579000Y451500D01*
X581000Y475500D02*
X584000D01*
X536000Y429243D02*
X579000Y472243D01*
Y473500D02*
X581000Y475500D01*
X579000Y472243D02*
Y473500D01*
X536000Y229778D02*
Y429243D01*
X520000Y218997D02*
Y441000D01*
X585000Y506000D01*
X560000Y504000D02*
Y508000D01*
X504520Y205740D02*
Y448520D01*
X560000Y504000D01*
X532661Y496661D02*
Y505661D01*
X489000Y218997D02*
Y453000D01*
X532661Y505661D02*
X535000Y508000D01*
X489000Y453000D02*
X532661Y496661D01*
X356000Y372000D02*
Y493560D01*
X474000Y472000D02*
X510000Y508000D01*
X460000Y483000D02*
X485000Y508000D01*
X447000Y495000D02*
X460000Y508000D01*
X397000Y488440D02*
X416560Y508000D01*
X382000Y498440D02*
X391560Y508000D01*
X551000Y236260D02*
Y388500D01*
Y236260D02*
X579520Y207740D01*
X536000Y229778D02*
X554520Y211258D01*
X520000Y218997D02*
X529520Y209477D01*
X479520Y209517D02*
X489000Y218997D01*
X479520Y205740D02*
Y209517D01*
X529520Y205740D02*
Y209477D01*
X554520Y205740D02*
Y211258D01*
X344000Y377000D02*
Y480560D01*
X467000Y140000D02*
X476000Y149000D01*
X604520D01*
X467000Y119192D02*
X484000Y102192D01*
X467000Y119192D02*
Y140000D01*
X494000Y69000D02*
X508000Y55000D01*
X494000Y69000D02*
Y107000D01*
X482007Y118993D02*
X494000Y107000D01*
X508000Y25400D02*
Y55000D01*
X533000Y25400D02*
Y53040D01*
X504520Y81520D02*
X533000Y53040D01*
X504520Y81520D02*
Y129540D01*
X560000Y27400D02*
Y52040D01*
X529520Y82520D02*
X560000Y52040D01*
X529520Y82520D02*
Y129540D01*
X583000Y25400D02*
Y54040D01*
X554520Y82520D02*
Y129540D01*
Y82520D02*
X583000Y54040D01*
X577000Y83000D02*
X608000Y52000D01*
X577033Y119315D02*
Y127053D01*
X577000Y83000D02*
Y119283D01*
X608000Y25400D02*
Y52000D01*
X577033Y127053D02*
X579520Y129540D01*
X577000Y119283D02*
X577033Y119315D01*
X558000Y25400D02*
X560000Y27400D01*
X484000Y35000D02*
Y102192D01*
X482007Y118993D02*
Y127053D01*
X479520Y129540D02*
X482007Y127053D01*
X457000Y8000D02*
X484000Y35000D01*
X345000Y8000D02*
X457000D01*
X275000Y68500D02*
X276523D01*
X289182Y85000D02*
X290000D01*
X279523Y75341D02*
X289182Y85000D01*
X290000D02*
X292000Y87000D01*
X276523Y68500D02*
X279523Y71500D01*
Y75341D01*
X292000Y87000D02*
Y90000D01*
X60750Y352360D02*
X62800Y350310D01*
X45640Y352360D02*
X60750D01*
X85000Y328000D02*
X108000D01*
X62800Y350200D02*
X85000Y328000D01*
X62800Y350200D02*
Y350310D01*
X64901Y358099D02*
X75000Y348000D01*
X120750D01*
X50901Y358099D02*
X64901D01*
X39000Y370000D02*
X50901Y358099D01*
X39000Y370000D02*
Y396400D01*
X25600Y383000D02*
X26243Y382357D01*
Y371757D02*
Y382357D01*
Y371757D02*
X45640Y352360D01*
X68000Y265250D02*
X78757Y276007D01*
X87007D02*
X88000Y277000D01*
X78757Y276007D02*
X87007D01*
X100250Y269000D02*
X103250Y272000D01*
X108000D01*
X88000Y269000D02*
X100250D01*
X25400Y314960D02*
X44360Y296000D01*
X108000D01*
X50800Y340360D02*
X53203Y337957D01*
X79426Y320574D02*
X86426D01*
X53203Y337957D02*
X62043D01*
X79426Y320574D01*
X73000Y312000D02*
X108000D01*
X57000Y328000D02*
X73000Y312000D01*
X37760Y328000D02*
X57000D01*
X61760Y304000D02*
X108000D01*
X50800Y314960D02*
X61760Y304000D01*
X86426Y320574D02*
X87000Y320000D01*
X79000Y361000D02*
X81000Y359000D01*
X51000Y383000D02*
X73000Y361000D01*
X81000Y358000D02*
Y359000D01*
X73000Y361000D02*
X79000D01*
X224500Y412500D02*
X237000Y425000D01*
X203500Y412500D02*
X224500D01*
X270500Y393000D02*
X272500Y395000D01*
X262000Y381000D02*
X270500Y389500D01*
X252000Y381000D02*
X262000D01*
X270500Y389500D02*
Y393000D01*
X214000Y374000D02*
X221000Y381000D01*
X192000Y374000D02*
X214000D01*
X221000Y381000D02*
X236000D01*
X187000Y380000D02*
X207000D01*
X225000Y398000D02*
X236000D01*
X207000Y380000D02*
X225000Y398000D01*
X252000D02*
X267068Y413068D01*
X270500D02*
X272500Y415068D01*
X267068Y413068D02*
X270500D01*
X272500Y415068D02*
Y418000D01*
X170993Y447750D02*
Y451993D01*
X176000Y457000D02*
X282000D01*
X170993Y451993D02*
X176000Y457000D01*
X166693Y446500D02*
X169743D01*
X160000Y458000D02*
X165443Y452557D01*
X65240Y458000D02*
X160000D01*
X165443Y447750D02*
Y452557D01*
X296000Y471000D02*
Y488363D01*
X282000Y457000D02*
X296000Y471000D01*
X289106Y495257D02*
X296000Y488363D01*
X50800Y472440D02*
X65240Y458000D01*
X169743Y446500D02*
X170993Y447750D01*
X165443D02*
X166693Y446500D01*
X195500Y420500D02*
X203500Y412500D01*
X195500Y420500D02*
Y427500D01*
X244000Y240800D02*
Y262680D01*
X241960Y238760D02*
X244000Y240800D01*
X241960Y260640D02*
X245000Y263680D01*
X248920Y267600D01*
X152500Y199500D02*
X153000Y199000D01*
X152500Y199500D02*
Y208692D01*
X159000Y206000D02*
Y242000D01*
X161757Y244757D02*
Y257757D01*
X159000Y242000D02*
X161757Y244757D01*
X192000Y264000D02*
Y272000D01*
X196260Y259740D02*
X215900D01*
X192000Y264000D02*
X196260Y259740D01*
X179250Y349250D02*
X196000Y366000D01*
X287000D02*
X318000Y397000D01*
X196000Y366000D02*
X287000D01*
X192000Y351000D02*
X199000Y358000D01*
X294000D02*
X326000Y390000D01*
X199000Y358000D02*
X294000D01*
X326000Y390000D02*
Y414000D01*
X318000Y397000D02*
Y422000D01*
X147750Y350950D02*
X149800Y353000D01*
X150000D01*
X147750Y350750D02*
Y350950D01*
X146000Y342000D02*
X147250Y343250D01*
Y350250D02*
X147750Y350750D01*
X150000Y353000D02*
X174000Y377000D01*
X147250Y343250D02*
Y350250D01*
X174000Y377000D02*
Y387500D01*
X162000Y355000D02*
X187000Y380000D01*
X178000Y342000D02*
X179250Y343250D01*
Y349250D01*
X162000Y342000D02*
Y355000D01*
X170243Y342243D02*
Y352243D01*
X192000Y374000D01*
X170000Y342000D02*
X170243Y342243D01*
X123000Y359000D02*
X129757Y352243D01*
Y342243D02*
Y352243D01*
Y342243D02*
X130000Y342000D01*
X101000Y359000D02*
X123000D01*
X88000Y269000D02*
Y277000D01*
X289106Y505546D02*
X291560Y508000D01*
X289106Y495257D02*
Y505546D01*
X271137Y464000D02*
X288000Y480863D01*
Y481000D01*
X105000Y464000D02*
X271137D01*
X84560Y484440D02*
X105000Y464000D01*
X104000Y382000D02*
X152000D01*
X620000Y456000D02*
X632000D01*
X619500Y440308D02*
Y440500D01*
X587192Y408000D02*
X619500Y440308D01*
X582000Y408000D02*
X587192D01*
X152000Y473000D02*
X171000Y492000D01*
X113000Y473000D02*
X152000D01*
X92000Y494000D02*
X113000Y473000D01*
X221844Y407000D02*
X246000D01*
X202344Y387500D02*
X221844Y407000D01*
X174000Y387500D02*
X202344D01*
X594000Y119020D02*
X604520Y129540D01*
X152000Y382000D02*
X159000Y389000D01*
X147000Y420000D02*
X159000Y408000D01*
Y389000D02*
Y408000D01*
X144000Y396000D02*
X145000Y395000D01*
X76400Y383000D02*
X89400Y396000D01*
X144000D01*
X145000Y420000D02*
X147000D01*
X329400Y23600D02*
X345000Y8000D01*
X59371Y228757D02*
X61129Y227000D01*
X58500Y236000D02*
X59371Y235129D01*
Y228757D02*
Y235129D01*
X61129Y227000D02*
X73000D01*
X85318Y210818D02*
X87500Y213000D01*
X79000Y198000D02*
X85318Y204318D01*
X68000Y198000D02*
X79000D01*
X85318Y204318D02*
Y210818D01*
X59071Y182000D02*
X68000D01*
X68243Y182243D01*
X75243D01*
X81257Y188257D01*
X86757D01*
X87500Y189000D01*
Y165000D02*
Y165743D01*
X85500Y167743D02*
X87500Y165743D01*
X59000Y175000D02*
X74000D01*
X81257Y167743D02*
X85500D01*
X74000Y175000D02*
X81257Y167743D01*
X54500Y193500D02*
X59000Y198000D01*
X68000D01*
X45000Y193500D02*
X54500D01*
X231500Y148500D02*
X237000Y143000D01*
X222000Y148500D02*
X231500D01*
X237000Y112000D02*
Y143000D01*
Y112000D02*
X246000Y103000D01*
X73000Y227000D02*
X79757Y233757D01*
X54000Y180000D02*
X59000Y175000D01*
X54571Y186500D02*
X59071Y182000D01*
X45000Y187000D02*
X45500Y186500D01*
X45000Y180500D02*
X45500Y180000D01*
X54000D01*
X45500Y186500D02*
X54571D01*
X87000Y320000D02*
X108000D01*
X108000Y320000D01*
X249000Y139000D02*
Y148000D01*
X222000Y148500D02*
Y158000D01*
X272068Y71432D02*
X275000Y68500D01*
X249243Y79757D02*
X258243D01*
X266568Y71432D02*
X272068D01*
X246000Y83000D02*
X249243Y79757D01*
X258243D02*
X266568Y71432D01*
X246000Y18000D02*
Y83000D01*
X379520Y127540D02*
Y129540D01*
X369500Y117520D02*
X379520Y127540D01*
X369500Y102000D02*
Y117520D01*
X152500Y208692D02*
X154000Y210192D01*
Y258000D01*
X161757Y257757D02*
X162000Y258000D01*
X106500Y189000D02*
X115000D01*
X106000Y213000D02*
X115000D01*
X79757Y233757D02*
X84000D01*
X87000Y236757D01*
Y237000D01*
X32000Y236000D02*
X49000D01*
X30000Y238000D02*
X32000Y236000D01*
X30000Y238000D02*
Y240000D01*
X49000Y236000D02*
X58500D01*
X16929Y261616D02*
X18757Y263444D01*
X26444D01*
X28000Y265000D01*
X9000Y261616D02*
X16929D01*
X10000Y241000D02*
X11000Y240000D01*
X9000Y261616D02*
X10000Y260616D01*
Y241000D02*
Y260616D01*
X68000Y263000D02*
Y265250D01*
X225002Y280002D02*
X241000Y296000D01*
Y308680D01*
X215900Y278740D02*
X217162Y280002D01*
X225002D01*
X241000Y308680D02*
X248920Y316600D01*
X241960Y323560D02*
Y345440D01*
Y323560D02*
X248920Y316600D01*
X214917Y259740D02*
X241060D01*
X241960Y260640D01*
X192000Y280000D02*
X192630Y279370D01*
X215270D01*
X215900Y278740D01*
X25400Y340360D02*
X37760Y328000D01*
X100000Y358000D02*
X101000Y359000D01*
X39000Y396400D02*
X51000Y408400D01*
X120750Y348000D02*
X122000Y346750D01*
Y342000D02*
Y346750D01*
X333000Y381000D02*
Y466560D01*
X306884Y492676D02*
X333000Y466560D01*
X291560Y508000D02*
X306884Y492676D01*
Y492676D02*
Y492676D01*
X37400Y484440D02*
X84560D01*
X25400Y472440D02*
X37400Y484440D01*
X171000Y492000D02*
X222000D01*
X329560Y522000D02*
X341560Y510000D01*
Y508000D02*
Y510000D01*
X84000Y512000D02*
X92000Y504000D01*
Y494000D02*
Y504000D01*
X64960Y512000D02*
X84000D01*
X50800Y497840D02*
X64960Y512000D01*
X405760Y206980D02*
Y232760D01*
X407000Y234000D01*
X404520Y205740D02*
X405760Y206980D01*
X379520Y205740D02*
Y208458D01*
X388000Y216938D02*
Y234000D01*
X379520Y208458D02*
X388000Y216938D01*
X407000Y237000D02*
X409000Y239000D01*
X407000Y234000D02*
Y237000D01*
X427000Y255000D02*
Y257000D01*
X411000Y239000D02*
X427000Y255000D01*
X409000Y239000D02*
X411000D01*
X427000Y257000D02*
Y259000D01*
X440500Y272500D02*
Y291000D01*
X427000Y259000D02*
X440500Y272500D01*
X388000Y234000D02*
Y237000D01*
X407000Y255000D02*
Y257000D01*
X391000Y239000D02*
X407000Y255000D01*
X390000Y239000D02*
X391000D01*
X388000Y237000D02*
X390000Y239000D01*
X391500Y273500D02*
Y291000D01*
Y273500D02*
X403000Y262000D01*
X404000D01*
X407000Y259000D01*
Y257000D02*
Y259000D01*
X647000Y431000D02*
X658000Y420000D01*
X660000D01*
X632000Y431000D02*
X647000D01*
X655000Y475000D02*
X660000Y470000D01*
X632000Y475000D02*
X655000D01*
X606000Y441000D02*
Y454500D01*
X596000Y448000D02*
Y466500D01*
X606000Y454500D02*
X608000Y456500D01*
X329400Y23600D02*
Y25400D01*
X192000Y328000D02*
Y351000D01*
X316560Y508000D02*
X344000Y480560D01*
X341560Y508000D02*
X356000Y493560D01*
X304760Y129780D02*
Y179760D01*
X305000Y180000D01*
X304520Y129540D02*
X304760Y129780D01*
X329520Y129540D02*
Y165480D01*
X307000Y188000D02*
X329520Y165480D01*
X304520Y207740D02*
X320000Y223220D01*
X304520Y205740D02*
Y207740D01*
X329520Y205740D02*
Y207972D01*
X337000Y215452D01*
X297000Y253000D02*
X298000D01*
X300000Y255000D01*
X289969Y209969D02*
X309000Y229000D01*
Y244000D01*
X283749Y209969D02*
X289969D01*
X279520Y205740D02*
X283749Y209969D01*
X279520Y167520D02*
X292000Y180000D01*
X279520Y129540D02*
Y167520D01*
X296091Y252091D02*
X297182Y251000D01*
X302000D02*
X309000Y244000D01*
X297182Y251000D02*
X302000D01*
X354520Y127540D02*
Y129540D01*
X596000Y466500D02*
X605000Y475500D01*
X608000D01*
X579520Y205740D02*
Y207740D01*
X584000Y482000D02*
X610000Y508000D01*
X584000Y475500D02*
Y482000D01*
X585000Y506000D02*
Y508000D01*
D14*
X260383Y484117D02*
X262500Y482000D01*
X260383Y484117D02*
Y492617D01*
X260000Y493000D02*
X260383Y492617D01*
X262500Y483500D02*
X265000Y486000D01*
X273000D01*
X262500Y482000D02*
Y483500D01*
X255383Y228383D02*
Y231183D01*
X260960Y236760D01*
Y238760D01*
X255000Y228000D02*
X255383Y228383D01*
X682000Y141250D02*
Y183000D01*
X656250Y153291D02*
X660000Y149541D01*
X656250Y153291D02*
Y155500D01*
X655500Y156250D02*
Y158500D01*
Y156250D02*
X656250Y155500D01*
X660000Y149000D02*
Y149541D01*
X446000Y232000D02*
Y234000D01*
X175000Y113000D02*
Y137000D01*
X419617Y66117D02*
Y70617D01*
X420000Y71000D01*
X409500Y52000D02*
Y56000D01*
X419617Y66117D01*
X304000Y61000D02*
Y68500D01*
X159500Y423093D02*
X169507Y413086D01*
Y408000D02*
Y413086D01*
X159500Y423093D02*
Y428500D01*
X169507Y408000D02*
X171007Y406500D01*
X174000D01*
X127000Y432000D02*
X156000D01*
X123000Y428000D02*
X127000Y432000D01*
X156000D02*
X159500Y428500D01*
X176709Y428250D02*
X178459Y430000D01*
X179000D01*
X169250Y428250D02*
X176709D01*
X168500Y427500D02*
X169250Y428250D01*
X45000Y200000D02*
X49750D01*
X145000Y197000D02*
X151000Y191000D01*
X145000Y197000D02*
Y213000D01*
X151000Y191000D02*
X182000D01*
X178000Y258000D02*
Y292219D01*
X181523Y295742D01*
X191742D02*
X192368Y296368D01*
X181523Y295742D02*
X191742D01*
X205743Y299743D02*
X215263D01*
X202368Y296368D02*
X205743Y299743D01*
X192368Y296368D02*
X202368D01*
X215263Y299743D02*
X215900Y300380D01*
X204000Y195000D02*
X222000D01*
X204000Y195000D02*
X204000Y195000D01*
X213000Y419000D02*
Y427500D01*
X629041Y175500D02*
X636500D01*
X628541Y175000D02*
X629041Y175500D01*
X628000Y175000D02*
X628541D01*
X636500Y175500D02*
X639000Y178000D01*
X23000Y450000D02*
X53000D01*
X396500Y86000D02*
X397000D01*
X390500Y80000D02*
X396500Y86000D01*
X390500Y78000D02*
Y80000D01*
X457000Y79500D02*
Y87459D01*
X454500Y77000D02*
X457000Y79500D01*
Y87459D02*
X459000Y89459D01*
Y90000D01*
X451000Y105000D02*
X455000D01*
X448500Y102500D02*
X451000Y105000D01*
X448500Y102000D02*
Y102500D01*
X427000Y222000D02*
Y234000D01*
X243000Y195000D02*
Y206000D01*
X220000D02*
Y217000D01*
X222000Y236000D02*
X231000Y227000D01*
Y204000D02*
Y227000D01*
X222000Y195000D02*
X231000Y204000D01*
X220000Y236000D02*
X222000D01*
X195000D02*
X220000D01*
X146000Y258000D02*
Y271000D01*
X427224Y208036D02*
X429520Y205740D01*
X388000Y257000D02*
X388000Y257000D01*
X376000Y257000D02*
X388000D01*
X427000Y236000D02*
X443500Y252500D01*
Y254500D01*
X446000Y257000D01*
X70500Y288000D02*
X78000D01*
X68000Y284000D02*
Y285500D01*
X70500Y288000D01*
X114617Y225383D02*
Y226383D01*
X106000Y235000D02*
Y237000D01*
Y235000D02*
X114617Y226383D01*
Y225383D02*
X115000Y225000D01*
X144750Y225250D02*
X145000Y225000D01*
X144500Y237000D02*
X144750Y236750D01*
Y225250D02*
Y236750D01*
X195000Y206000D02*
Y217000D01*
X170000Y206000D02*
Y217000D01*
X208000Y288000D02*
X208000Y288000D01*
X192000Y288000D02*
X208000D01*
X215900Y319380D02*
X216000Y319480D01*
Y330000D01*
X260960Y345440D02*
X261400Y345000D01*
X274000D01*
X40500Y522000D02*
X52000D01*
X216000Y131000D02*
Y131541D01*
X219000Y134541D02*
Y138250D01*
X216000Y131541D02*
X219000Y134541D01*
Y138250D02*
X219750Y139000D01*
X623250Y153750D02*
X635750D01*
X623000Y154000D02*
X623250Y153750D01*
X635750D02*
X636000Y153500D01*
X380000Y102000D02*
X390000D01*
X354000Y68500D02*
X356000D01*
X364500Y60000D01*
X365000D01*
X219750Y139000D02*
X222000D01*
X248000Y122000D02*
Y131000D01*
X225000Y122000D02*
X226000Y123000D01*
Y131000D01*
X68000Y236000D02*
Y238250D01*
X72367Y242617D01*
X68000Y213000D02*
X69500D01*
X131500Y241500D02*
X137632Y247632D01*
Y257632D01*
X128000Y241500D02*
X131500D01*
X137632Y257632D02*
X138000Y258000D01*
X125500Y239000D02*
X128000Y241500D01*
X125500Y237000D02*
Y239000D01*
X125750Y213250D02*
Y236750D01*
X125500Y237000D02*
X125750Y236750D01*
Y213250D02*
X126000Y213000D01*
X190500Y238500D02*
X193000Y236000D01*
X178000Y253250D02*
Y258000D01*
Y253250D02*
X190500Y240750D01*
Y238500D02*
Y240750D01*
X193000Y236000D02*
X195000D01*
X170000D02*
X172000D01*
X148600Y111000D02*
X149600Y112000D01*
Y113000D01*
X124000Y111000D02*
X126000D01*
X70000Y20000D02*
X71000Y21000D01*
X22000Y55000D02*
X23000Y56000D01*
X243500Y482000D02*
X243750Y481750D01*
D15*
X9000Y261616D02*
D03*
Y286000D02*
D03*
X586000Y256808D02*
D03*
Y281192D02*
D03*
D16*
X18250Y175000D02*
D03*
Y199000D02*
D03*
X246000Y83000D02*
D03*
X201000D02*
D03*
D17*
X42750Y155000D02*
D03*
Y219000D02*
D03*
D18*
X45000Y174000D02*
D03*
Y180500D02*
D03*
Y187000D02*
D03*
Y193500D02*
D03*
Y200000D02*
D03*
D19*
X149600Y113000D02*
D03*
X162300D02*
D03*
X175000D02*
D03*
X187700D02*
D03*
X200400D02*
D03*
D20*
X175000Y175000D02*
D03*
D21*
X275000Y68500D02*
D03*
Y49500D02*
D03*
X170000Y236000D02*
D03*
Y217000D02*
D03*
X215900Y300380D02*
D03*
Y319380D02*
D03*
X195000Y236000D02*
D03*
Y217000D02*
D03*
X220000Y195000D02*
D03*
Y176000D02*
D03*
Y236000D02*
D03*
Y217000D02*
D03*
X23000Y431000D02*
D03*
Y450000D02*
D03*
X632000Y475000D02*
D03*
Y456000D02*
D03*
X126000Y111000D02*
D03*
Y130000D02*
D03*
X225000Y103000D02*
D03*
Y122000D02*
D03*
X304000Y49500D02*
D03*
Y68500D02*
D03*
X354000Y49500D02*
D03*
Y68500D02*
D03*
X213000Y446500D02*
D03*
Y427500D02*
D03*
X636000Y134500D02*
D03*
Y153500D02*
D03*
X243000Y176000D02*
D03*
Y195000D02*
D03*
X639000Y197000D02*
D03*
Y178000D02*
D03*
X248000Y103000D02*
D03*
Y122000D02*
D03*
X432000Y79500D02*
D03*
Y60500D02*
D03*
X88000Y258000D02*
D03*
Y277000D02*
D03*
X665000Y197000D02*
D03*
Y178000D02*
D03*
X28000Y284000D02*
D03*
Y265000D02*
D03*
X665000Y218000D02*
D03*
Y237000D02*
D03*
D22*
X108000Y312000D02*
D03*
Y272000D02*
D03*
Y296000D02*
D03*
Y320000D02*
D03*
Y288000D02*
D03*
Y280000D02*
D03*
Y328000D02*
D03*
Y304000D02*
D03*
X192000Y328000D02*
D03*
Y320000D02*
D03*
Y312000D02*
D03*
Y304000D02*
D03*
Y296000D02*
D03*
Y288000D02*
D03*
Y280000D02*
D03*
Y272000D02*
D03*
D23*
X170000Y258000D02*
D03*
X122000D02*
D03*
X130000Y342000D02*
D03*
X138000Y258000D02*
D03*
X146000D02*
D03*
X162000D02*
D03*
X154000Y342000D02*
D03*
X138000D02*
D03*
X154000Y258000D02*
D03*
X146000Y342000D02*
D03*
X178000Y258000D02*
D03*
X130000D02*
D03*
X122000Y342000D02*
D03*
X170000D02*
D03*
X162000D02*
D03*
X178000D02*
D03*
D24*
X168500Y446500D02*
D03*
Y437000D02*
D03*
Y427500D02*
D03*
X195500Y446500D02*
D03*
Y427500D02*
D03*
X249000Y139000D02*
D03*
Y158000D02*
D03*
X222000Y139000D02*
D03*
Y148500D02*
D03*
Y158000D02*
D03*
D25*
X68000Y263000D02*
D03*
X49000D02*
D03*
X68000Y236000D02*
D03*
X58500D02*
D03*
X49000D02*
D03*
X674500Y158500D02*
D03*
X665000D02*
D03*
X655500D02*
D03*
X674500Y131500D02*
D03*
X655500D02*
D03*
D26*
X23000Y56000D02*
D03*
Y88000D02*
D03*
D27*
X71000Y95500D02*
D03*
Y136500D02*
D03*
Y21000D02*
D03*
Y62000D02*
D03*
D28*
X585000Y371000D02*
D03*
X601000D02*
D03*
X237000Y425000D02*
D03*
X253000D02*
D03*
X236000Y398000D02*
D03*
X252000D02*
D03*
X236000Y381000D02*
D03*
X252000D02*
D03*
D29*
X174000Y387500D02*
D03*
Y406500D02*
D03*
X215900Y259740D02*
D03*
Y278740D02*
D03*
X608000Y456500D02*
D03*
Y475500D02*
D03*
X584000Y456500D02*
D03*
Y475500D02*
D03*
X632000Y412000D02*
D03*
Y431000D02*
D03*
X297000Y234000D02*
D03*
Y253000D02*
D03*
X639000Y236500D02*
D03*
Y217500D02*
D03*
X329000Y86000D02*
D03*
Y67000D02*
D03*
Y67000D02*
D03*
Y48000D02*
D03*
D30*
X272500Y418000D02*
D03*
X291500D02*
D03*
X272500Y395000D02*
D03*
X291500D02*
D03*
X100000Y358000D02*
D03*
X81000D02*
D03*
X87000Y213000D02*
D03*
X106000D02*
D03*
X87500Y189000D02*
D03*
X106500D02*
D03*
X87500Y165000D02*
D03*
X106500D02*
D03*
X369500Y102000D02*
D03*
X350500D02*
D03*
X253000Y445000D02*
D03*
X234000D02*
D03*
X407000Y234000D02*
D03*
X388000D02*
D03*
X601000Y352000D02*
D03*
X582000D02*
D03*
X11000Y240000D02*
D03*
X30000D02*
D03*
X292000Y90000D02*
D03*
X273000D02*
D03*
X126000Y213000D02*
D03*
X145000D02*
D03*
D31*
X68000D02*
D03*
Y198000D02*
D03*
Y167000D02*
D03*
Y182000D02*
D03*
D32*
X440500Y291000D02*
D03*
X391500D02*
D03*
D33*
X248920Y267600D02*
D03*
Y316600D02*
D03*
D34*
X125500Y237000D02*
D03*
X144500D02*
D03*
X241960Y345440D02*
D03*
X260960D02*
D03*
X241960Y238760D02*
D03*
X260960D02*
D03*
X390500Y54000D02*
D03*
X409500D02*
D03*
X21500Y522000D02*
D03*
X40500D02*
D03*
X473500Y77000D02*
D03*
X454500D02*
D03*
X446000Y234000D02*
D03*
X427000D02*
D03*
X243500Y482000D02*
D03*
X262500D02*
D03*
X409500Y78000D02*
D03*
X390500D02*
D03*
X409000Y102000D02*
D03*
X390000D02*
D03*
X429500D02*
D03*
X448500D02*
D03*
X407000Y257000D02*
D03*
X388000D02*
D03*
X427000D02*
D03*
X446000D02*
D03*
X49000Y284000D02*
D03*
X68000D02*
D03*
X87000Y237000D02*
D03*
X106000D02*
D03*
X581500Y329000D02*
D03*
X600500D02*
D03*
X473500Y53000D02*
D03*
X454500D02*
D03*
X592000Y234000D02*
D03*
X611000D02*
D03*
D64*
X671500Y304500D02*
D03*
Y259500D02*
D03*
D65*
X606500Y304500D02*
D03*
Y259500D02*
D03*
X246000Y18000D02*
D03*
X201000D02*
D03*
D68*
X227000Y49000D02*
D03*
X668000Y21000D02*
D03*
X669000Y508000D02*
D03*
X186000Y475000D02*
D03*
D69*
X54000Y205000D02*
X54809Y205809D01*
X54000Y204729D02*
Y205000D01*
X54809Y205809D02*
Y211809D01*
X49750Y200479D02*
X54000Y204729D01*
X54809Y211809D02*
X55000Y212000D01*
X609000Y230000D02*
X610157Y231157D01*
Y232000D01*
X608157Y230000D02*
X609000D01*
X600157Y222000D02*
X608157Y230000D01*
X600157Y210103D02*
Y222000D01*
X639000Y197000D02*
Y217500D01*
X664750Y158750D02*
X665000Y158500D01*
X652000Y171500D02*
X655500Y168000D01*
X661821D01*
X664750Y165071D01*
Y158750D02*
Y165071D01*
X641000Y195000D02*
X644000D01*
X639000Y197000D02*
X641000Y195000D01*
X644000D02*
X652000Y187000D01*
Y171500D02*
Y187000D01*
X669500Y195500D02*
X682000Y183000D01*
X674500Y133750D02*
X682000Y141250D01*
X674250Y158750D02*
Y170750D01*
X667000Y178000D02*
X674250Y170750D01*
Y158750D02*
X674500Y158500D01*
X627929Y227000D02*
X656000D01*
X601000Y245000D02*
X619000D01*
X162300Y113000D02*
Y139300D01*
X173771Y150771D01*
X185635D01*
X201000Y166136D02*
Y185000D01*
X185635Y150771D02*
X201000Y166136D01*
X168500Y437000D02*
Y446500D01*
X182000Y204000D02*
X201000Y185000D01*
X665000Y178000D02*
X667000D01*
X665000D02*
Y187000D01*
X182000Y204000D02*
Y226000D01*
X170000Y236000D02*
Y258000D01*
X172000Y236000D02*
X182000Y226000D01*
X253000Y425000D02*
Y445000D01*
D70*
X454520Y205740D02*
Y223480D01*
X446000Y232000D02*
X454520Y223480D01*
D71*
Y205740D02*
X455000Y205260D01*
Y183000D02*
Y205260D01*
X429510Y99000D02*
Y129530D01*
X429520Y129540D02*
X483980Y184000D01*
X429510Y129530D02*
X429520Y129540D01*
X483980Y184000D02*
X567000D01*
D72*
X282000Y434000D02*
X291500Y424500D01*
Y395000D02*
Y424500D01*
D73*
X454400Y25400D02*
D03*
X429400D02*
D03*
X404400D02*
D03*
X379400D02*
D03*
X354400D02*
D03*
X329400D02*
D03*
X304400D02*
D03*
X610000Y508000D02*
D03*
X585000D02*
D03*
X560000D02*
D03*
X535000D02*
D03*
X510000D02*
D03*
X485000D02*
D03*
X460000D02*
D03*
X191560D02*
D03*
X216560D02*
D03*
X241560D02*
D03*
X266560D02*
D03*
X291560D02*
D03*
X316560D02*
D03*
X341560D02*
D03*
X366560D02*
D03*
X391560D02*
D03*
X144000Y83000D02*
D03*
X169000D02*
D03*
X533000Y25400D02*
D03*
X558000D02*
D03*
X583000D02*
D03*
X608000D02*
D03*
X633000D02*
D03*
X579520Y205740D02*
D03*
X554520D02*
D03*
X529520D02*
D03*
X504520D02*
D03*
X479520D02*
D03*
X454520D02*
D03*
X429520D02*
D03*
X404520D02*
D03*
X379520D02*
D03*
X354520D02*
D03*
X329520D02*
D03*
X304520D02*
D03*
X279520D02*
D03*
X604520Y129540D02*
D03*
X579520D02*
D03*
X554520D02*
D03*
X529520D02*
D03*
X504520D02*
D03*
X479520D02*
D03*
X454520D02*
D03*
X429520D02*
D03*
X404520D02*
D03*
X379520D02*
D03*
X354520D02*
D03*
X329520D02*
D03*
X304520D02*
D03*
X279520D02*
D03*
D74*
X279400Y25400D02*
D03*
X635000Y508000D02*
D03*
X416560D02*
D03*
X119000Y83000D02*
D03*
X508000Y25400D02*
D03*
X604520Y205740D02*
D03*
D75*
X145000Y445000D02*
D03*
X660000Y470000D02*
D03*
D76*
X145000Y420000D02*
D03*
Y395000D02*
D03*
Y370000D02*
D03*
X660000Y445000D02*
D03*
Y420000D02*
D03*
D77*
X22000Y20000D02*
D03*
Y124000D02*
D03*
D78*
X18250Y154000D02*
D03*
Y220000D02*
D03*
D79*
X50800Y340360D02*
D03*
X25600Y383000D02*
D03*
X25400Y472440D02*
D03*
D80*
Y340360D02*
D03*
X50800Y314960D02*
D03*
X25400D02*
D03*
X51000Y383000D02*
D03*
X76400D02*
D03*
X25600Y408400D02*
D03*
X51000D02*
D03*
X75130D02*
D03*
X74930Y497840D02*
D03*
X50800D02*
D03*
X25400D02*
D03*
X76200Y472440D02*
D03*
X50800D02*
D03*
D81*
X130000Y500000D02*
D03*
D82*
X140000Y25400D02*
D03*
X660400Y78740D02*
D03*
Y355600D02*
D03*
D83*
X9846Y308941D02*
D03*
Y318941D02*
D03*
Y328941D02*
D03*
Y339940D02*
D03*
X10000Y351000D02*
D03*
X9846Y361940D02*
D03*
Y372940D02*
D03*
Y383941D02*
D03*
Y394940D02*
D03*
Y404940D02*
D03*
Y415941D02*
D03*
Y426940D02*
D03*
Y435941D02*
D03*
Y445941D02*
D03*
Y454940D02*
D03*
Y464940D02*
D03*
X10000Y474000D02*
D03*
Y483000D02*
D03*
X54000Y204729D02*
D03*
X55000Y212000D02*
D03*
X77000Y221000D02*
D03*
X76000Y215000D02*
D03*
X77000Y209000D02*
D03*
X165000Y166000D02*
D03*
X154000D02*
D03*
X143000D02*
D03*
X110000Y154000D02*
D03*
X121000D02*
D03*
X132000D02*
D03*
X110000Y146000D02*
D03*
X121000D02*
D03*
X132000D02*
D03*
Y137000D02*
D03*
X121000D02*
D03*
X260000Y493000D02*
D03*
X273000Y486000D02*
D03*
X296000Y242000D02*
D03*
X255000Y228000D02*
D03*
X578000Y377000D02*
D03*
X589000Y386000D02*
D03*
X578000Y369000D02*
D03*
Y386000D02*
D03*
X606000Y94000D02*
D03*
X660000Y149000D02*
D03*
X323000Y323000D02*
D03*
X455000Y183000D02*
D03*
X472000Y105000D02*
D03*
X110000Y137000D02*
D03*
X175000D02*
D03*
X420000Y71000D02*
D03*
X304000Y61000D02*
D03*
X329000Y76000D02*
D03*
X118000Y424000D02*
D03*
Y432000D02*
D03*
X113000Y428000D02*
D03*
X179000Y430000D02*
D03*
X153000Y199000D02*
D03*
X88000Y269000D02*
D03*
X288000Y481000D02*
D03*
X244000Y471000D02*
D03*
X210000Y175000D02*
D03*
X104000Y382000D02*
D03*
X620000Y456000D02*
D03*
X241000Y442000D02*
D03*
X204000Y195000D02*
D03*
X246000Y407000D02*
D03*
X213000Y419000D02*
D03*
X628000Y175000D02*
D03*
X665000Y187000D02*
D03*
X123000Y428000D02*
D03*
X53000Y450000D02*
D03*
X397000Y86000D02*
D03*
X174000Y417000D02*
D03*
X459000Y90000D02*
D03*
X455000Y105000D02*
D03*
X461000Y53000D02*
D03*
X200000Y131000D02*
D03*
X56000Y109000D02*
D03*
Y117000D02*
D03*
X427000Y222000D02*
D03*
X243000Y206000D02*
D03*
X220000D02*
D03*
X146000Y271000D02*
D03*
X77000Y158000D02*
D03*
X376000Y257000D02*
D03*
X78000Y288000D02*
D03*
X115000Y225000D02*
D03*
X145000D02*
D03*
X195000Y206000D02*
D03*
X170000D02*
D03*
X208000Y288000D02*
D03*
X216000Y330000D02*
D03*
X274000Y345000D02*
D03*
X52000Y522000D02*
D03*
X216000Y131000D02*
D03*
X623000Y154000D02*
D03*
X380000Y102000D02*
D03*
X365000Y60000D02*
D03*
X302000Y81000D02*
D03*
X248000Y131000D02*
D03*
X226000D02*
D03*
X76000Y243000D02*
D03*
X104000Y258000D02*
D03*
X282000Y434000D02*
D03*
X87000Y320000D02*
D03*
X249000Y148000D02*
D03*
X182000Y191000D02*
D03*
X159000Y206000D02*
D03*
X115000Y189000D02*
D03*
Y213000D02*
D03*
X591000Y400000D02*
D03*
X582000Y408000D02*
D03*
Y421000D02*
D03*
X567000Y184000D02*
D03*
X326000Y414000D02*
D03*
X560000D02*
D03*
X318000Y422000D02*
D03*
X305000Y180000D02*
D03*
X292000Y267000D02*
D03*
Y180000D02*
D03*
M02*
