G04*
G04 #@! TF.GenerationSoftware,Altium Limited,Altium Designer,22.5.1 (42)*
G04*
G04 Layer_Color=8421504*
%FSLAX44Y44*%
%MOMM*%
G71*
G04*
G04 #@! TF.SameCoordinates,34FB0FCD-49E4-40E2-9EDC-7902339FC661*
G04*
G04*
G04 #@! TF.FilePolarity,Positive*
G04*
G01*
G75*
%ADD15R,0.6858X0.5588*%
%ADD16R,1.9000X1.9000*%
%ADD17R,1.4000X1.6000*%
%ADD18R,1.3500X0.4000*%
%ADD19R,0.6000X2.2000*%
%ADD20R,3.5000X2.2000*%
%ADD21R,1.3000X0.9000*%
%ADD22R,1.5000X0.5500*%
%ADD23R,0.5500X1.5000*%
%ADD24R,1.0000X0.5500*%
%ADD25R,0.5500X1.0000*%
%ADD26R,2.7000X2.0000*%
%ADD27R,1.6000X3.0000*%
%ADD28R,0.8000X0.8000*%
%ADD29R,1.3000X0.7000*%
%ADD30R,0.7000X1.3000*%
%ADD31R,0.9000X0.6000*%
%ADD32R,2.5000X2.6000*%
%ADD33R,2.6000X2.5000*%
%ADD34R,0.9000X1.3000*%
D15*
X9000Y261616D02*
D03*
Y286000D02*
D03*
X586000Y256808D02*
D03*
Y281192D02*
D03*
D16*
X18250Y175000D02*
D03*
Y199000D02*
D03*
D17*
X42750Y155000D02*
D03*
Y219000D02*
D03*
D18*
X45000Y174000D02*
D03*
Y180500D02*
D03*
Y187000D02*
D03*
Y193500D02*
D03*
Y200000D02*
D03*
D19*
X149600Y113000D02*
D03*
X162300D02*
D03*
X175000D02*
D03*
X187700D02*
D03*
X200400D02*
D03*
D20*
X175000Y175000D02*
D03*
D21*
X275000Y68500D02*
D03*
Y49500D02*
D03*
X170000Y236000D02*
D03*
Y217000D02*
D03*
X215900Y300380D02*
D03*
Y319380D02*
D03*
X195000Y236000D02*
D03*
Y217000D02*
D03*
X220000Y195000D02*
D03*
Y176000D02*
D03*
Y236000D02*
D03*
Y217000D02*
D03*
X23000Y431000D02*
D03*
Y450000D02*
D03*
X632000Y475000D02*
D03*
Y456000D02*
D03*
X126000Y111000D02*
D03*
Y130000D02*
D03*
X225000Y103000D02*
D03*
Y122000D02*
D03*
X304000Y49500D02*
D03*
Y68500D02*
D03*
X354000Y49500D02*
D03*
Y68500D02*
D03*
X213000Y446500D02*
D03*
Y427500D02*
D03*
X636000Y134500D02*
D03*
Y153500D02*
D03*
X243000Y176000D02*
D03*
Y195000D02*
D03*
X639000Y197000D02*
D03*
Y178000D02*
D03*
X248000Y103000D02*
D03*
Y122000D02*
D03*
X432000Y79500D02*
D03*
Y60500D02*
D03*
X88000Y258000D02*
D03*
Y277000D02*
D03*
X665000Y197000D02*
D03*
Y178000D02*
D03*
X28000Y284000D02*
D03*
Y265000D02*
D03*
X665000Y218000D02*
D03*
Y237000D02*
D03*
D22*
X108000Y312000D02*
D03*
Y272000D02*
D03*
Y296000D02*
D03*
Y320000D02*
D03*
Y288000D02*
D03*
Y280000D02*
D03*
Y328000D02*
D03*
Y304000D02*
D03*
X192000Y328000D02*
D03*
Y320000D02*
D03*
Y312000D02*
D03*
Y304000D02*
D03*
Y296000D02*
D03*
Y288000D02*
D03*
Y280000D02*
D03*
Y272000D02*
D03*
D23*
X170000Y258000D02*
D03*
X122000D02*
D03*
X130000Y342000D02*
D03*
X138000Y258000D02*
D03*
X146000D02*
D03*
X162000D02*
D03*
X154000Y342000D02*
D03*
X138000D02*
D03*
X154000Y258000D02*
D03*
X146000Y342000D02*
D03*
X178000Y258000D02*
D03*
X130000D02*
D03*
X122000Y342000D02*
D03*
X170000D02*
D03*
X162000D02*
D03*
X178000D02*
D03*
D24*
X168500Y446500D02*
D03*
Y437000D02*
D03*
Y427500D02*
D03*
X195500Y446500D02*
D03*
Y427500D02*
D03*
X249000Y139000D02*
D03*
Y158000D02*
D03*
X222000Y139000D02*
D03*
Y148500D02*
D03*
Y158000D02*
D03*
D25*
X68000Y263000D02*
D03*
X49000D02*
D03*
X68000Y236000D02*
D03*
X58500D02*
D03*
X49000D02*
D03*
X674500Y158500D02*
D03*
X665000D02*
D03*
X655500D02*
D03*
X674500Y131500D02*
D03*
X655500D02*
D03*
D26*
X23000Y56000D02*
D03*
Y88000D02*
D03*
D27*
X71000Y95500D02*
D03*
Y136500D02*
D03*
Y21000D02*
D03*
Y62000D02*
D03*
D28*
X585000Y371000D02*
D03*
X601000D02*
D03*
X237000Y425000D02*
D03*
X253000D02*
D03*
X236000Y398000D02*
D03*
X252000D02*
D03*
X236000Y381000D02*
D03*
X252000D02*
D03*
D29*
X174000Y387500D02*
D03*
Y406500D02*
D03*
X215900Y259740D02*
D03*
Y278740D02*
D03*
X608000Y456500D02*
D03*
Y475500D02*
D03*
X584000Y456500D02*
D03*
Y475500D02*
D03*
X632000Y412000D02*
D03*
Y431000D02*
D03*
X297000Y234000D02*
D03*
Y253000D02*
D03*
X639000Y236500D02*
D03*
Y217500D02*
D03*
X329000Y86000D02*
D03*
Y67000D02*
D03*
Y67000D02*
D03*
Y48000D02*
D03*
D30*
X272500Y418000D02*
D03*
X291500D02*
D03*
X272500Y395000D02*
D03*
X291500D02*
D03*
X100000Y358000D02*
D03*
X81000D02*
D03*
X87000Y213000D02*
D03*
X106000D02*
D03*
X87500Y189000D02*
D03*
X106500D02*
D03*
X87500Y165000D02*
D03*
X106500D02*
D03*
X369500Y102000D02*
D03*
X350500D02*
D03*
X253000Y445000D02*
D03*
X234000D02*
D03*
X407000Y234000D02*
D03*
X388000D02*
D03*
X601000Y352000D02*
D03*
X582000D02*
D03*
X11000Y240000D02*
D03*
X30000D02*
D03*
X292000Y90000D02*
D03*
X273000D02*
D03*
X126000Y213000D02*
D03*
X145000D02*
D03*
D31*
X68000D02*
D03*
Y198000D02*
D03*
Y167000D02*
D03*
Y182000D02*
D03*
D32*
X440500Y291000D02*
D03*
X391500D02*
D03*
D33*
X248920Y267600D02*
D03*
Y316600D02*
D03*
D34*
X125500Y237000D02*
D03*
X144500D02*
D03*
X241960Y345440D02*
D03*
X260960D02*
D03*
X241960Y238760D02*
D03*
X260960D02*
D03*
X390500Y54000D02*
D03*
X409500D02*
D03*
X21500Y522000D02*
D03*
X40500D02*
D03*
X473500Y77000D02*
D03*
X454500D02*
D03*
X446000Y234000D02*
D03*
X427000D02*
D03*
X243500Y482000D02*
D03*
X262500D02*
D03*
X409500Y78000D02*
D03*
X390500D02*
D03*
X409000Y102000D02*
D03*
X390000D02*
D03*
X429500D02*
D03*
X448500D02*
D03*
X407000Y257000D02*
D03*
X388000D02*
D03*
X427000D02*
D03*
X446000D02*
D03*
X49000Y284000D02*
D03*
X68000D02*
D03*
X87000Y237000D02*
D03*
X106000D02*
D03*
X581500Y329000D02*
D03*
X600500D02*
D03*
X473500Y53000D02*
D03*
X454500D02*
D03*
X592000Y234000D02*
D03*
X611000D02*
D03*
M02*
