M48
;Layer_Color=9474304
;FILE_FORMAT=4:4
METRIC,LZ
;TYPE=PLATED
T1F00S00C0.3000
T3F00S00C1.0000
T4F00S00C1.1000
T5F00S00C1.5000
T6F00S00C3.2000
;TYPE=NON_PLATED
T7F00S00C3.2000
%
T01
X00329Y00076
X00365Y0006
X0038Y00102
X00397Y00086
X0042Y00071
X00459Y0009
X00455Y00105
X00472
X00461Y00053
X00455Y00183
X00427Y00222
X00376Y00257
X00323Y00323
X00567Y00184
X00628Y00175
X00623Y00154
X0066Y00149
X00665Y00187
X00606Y00094
X00302Y00081
X00304Y00061
X00305Y0018
X00292
X00296Y00242
X00292Y00267
X00255Y00228
X00243Y00206
X0022
X00195
X00204Y00195
X0021Y00175
X00182Y00191
X0017Y00206
X00159
X00153Y00199
X00154Y00166
X00165
X00143
X00132Y00154
Y00146
Y00137
X00121
Y00146
Y00154
X0011
Y00146
Y00137
X00077Y00158
Y00209
X00076Y00215
X00077Y00221
X00076Y00243
X00088Y00269
X00104Y00258
X00115Y00225
Y00213
Y00189
X00145Y00225
X00146Y00271
X00208Y00288
X00216Y0033
X00087Y0032
X00078Y00288
X00009846Y00308941
Y00318941
Y00328941
Y0033994
X00055Y00212
X00054Y00204729
X00056Y00117
Y00109
X00175Y00137
X002Y00131
X00216
X00226
X00248
X00249Y00148
X00274Y00345
X00246Y00407
X00241Y00442
X00244Y00471
X0026Y00493
X00273Y00486
X00288Y00481
X00282Y00434
X00213Y00419
X00174Y00417
X00179Y0043
X00123Y00428
X00118Y00432
Y00424
X00113Y00428
X00104Y00382
X00009846Y00383941
Y0037294
Y0036194
X0001Y00351
X00009846Y0039494
Y0040494
Y00415941
Y0042694
Y00435941
Y00445941
Y0045494
Y0046494
X0001Y00474
Y00483
X00053Y0045
X00052Y00522
X00318Y00422
X00326Y00414
X0056
X00582Y00408
Y00421
X00591Y004
X00589Y00386
X00578
Y00377
Y00369
X0062Y00456
T03
X006065Y002595
Y003045
X006715
Y002595
X00246Y00083
X00201
Y00018
X00246
T04
X003294Y000254
X003544
X003794
X004044
X004294
X004544
X00508
X00533
X00558
X00583
X00608
X00633
X0060452Y0012954
X0057952
X0055452
X0052952
X0050452
X0047952
X0045452
X0042952
X0040452
X0037952
X0035452
X0032952
Y0020574
X0035452
X0037952
X0040452
X0042952
X0045452
X0047952
X0050452
X0052952
X0055452
X0057952
X0060452
X0030452
X0027952
Y0012954
X0030452
X003044Y000254
X002794
X00169Y00083
X00144
X00119
X000508Y0031496
Y0034036
X000254
Y0031496
X000256Y00383
X00051
X000764
X0007513Y004084
X00051
X000256
X000254Y0047244
Y0049784
X000508
X0007493
X000762Y0047244
X000508
X00145Y00445
Y0042
Y00395
Y0037
X0019156Y00508
X0021656
X0024156
X0026656
X0029156
X0031656
X0034156
X0036656
X0039156
X0041656
X0046
X00485
X0051
X00535
X0056
X00585
X0061
X00635
X0066Y0047
Y00445
Y0042
T05
X00022Y0002
Y00124
T06
X006604Y0007874
X0014Y000254
X006604Y003556
T07
X0013Y005
M30
