G04*
G04 #@! TF.GenerationSoftware,Altium Limited,Altium Designer,22.5.1 (42)*
G04*
G04 Layer_Color=65535*
%FSLAX44Y44*%
%MOMM*%
G71*
G04*
G04 #@! TF.SameCoordinates,090C5C53-F3BF-408C-A1E9-F483B87C40A9*
G04*
G04*
G04 #@! TF.FilePolarity,Positive*
G04*
G01*
G75*
%ADD10C,0.2540*%
%ADD11C,0.2000*%
%ADD12C,0.6000*%
%ADD13C,0.3000*%
%ADD14C,0.4000*%
G36*
X-25000Y190000D02*
X-30000Y185000D01*
Y195000D01*
X-25000Y190000D01*
D02*
G37*
G36*
X457602Y339811D02*
X453807D01*
Y340991D01*
X450521D01*
Y338770D01*
X453368D01*
Y335831D01*
X450521D01*
Y333471D01*
X453807D01*
Y334605D01*
X457602D01*
Y330000D01*
X443788D01*
Y333448D01*
X444922D01*
Y340991D01*
X443788D01*
Y344462D01*
X457602D01*
Y339811D01*
D02*
G37*
G36*
X410814D02*
X407019D01*
Y340991D01*
X403734D01*
Y338770D01*
X406580D01*
Y335831D01*
X403734D01*
Y333471D01*
X407019D01*
Y334605D01*
X410814D01*
Y330000D01*
X397000D01*
Y333448D01*
X398134D01*
Y340991D01*
X397000D01*
Y344462D01*
X410814D01*
Y339811D01*
D02*
G37*
G36*
X483402Y344717D02*
X483634Y344693D01*
X483888Y344670D01*
X484189Y344624D01*
X484490Y344578D01*
X485161Y344416D01*
X485508Y344323D01*
X485855Y344184D01*
X486202Y344022D01*
X486549Y343861D01*
X486850Y343652D01*
X487151Y343421D01*
Y344462D01*
X490622D01*
Y339395D01*
X487151D01*
X487128Y339441D01*
X487058Y339557D01*
X486966Y339719D01*
X486827Y339927D01*
X486665Y340158D01*
X486457Y340390D01*
X486202Y340598D01*
X485948Y340806D01*
X485925Y340829D01*
X485832Y340876D01*
X485670Y340968D01*
X485462Y341061D01*
X485207Y341130D01*
X484930Y341223D01*
X484606Y341269D01*
X484235Y341292D01*
X484097D01*
X484004Y341269D01*
X483773Y341246D01*
X483472Y341176D01*
X483148Y341084D01*
X482801Y340922D01*
X482500Y340690D01*
X482222Y340390D01*
X482199Y340343D01*
X482176Y340297D01*
X482130Y340205D01*
X482084Y340112D01*
X482014Y339973D01*
X481968Y339834D01*
X481922Y339649D01*
X481852Y339441D01*
X481806Y339186D01*
X481736Y338932D01*
X481690Y338631D01*
X481667Y338284D01*
X481621Y337937D01*
X481598Y337543D01*
Y337104D01*
Y337081D01*
Y337011D01*
Y336872D01*
Y336734D01*
X481621Y336525D01*
X481644Y336317D01*
X481690Y335808D01*
X481760Y335276D01*
X481875Y334744D01*
X481945Y334512D01*
X482037Y334281D01*
X482130Y334072D01*
X482245Y333887D01*
X482269Y333841D01*
X482384Y333749D01*
X482523Y333610D01*
X482755Y333471D01*
X483032Y333309D01*
X483379Y333170D01*
X483773Y333078D01*
X484235Y333031D01*
X484328D01*
X484421Y333054D01*
X484536D01*
X484860Y333124D01*
X485230Y333286D01*
X485392Y333378D01*
X485578Y333517D01*
X485740Y333656D01*
X485902Y333841D01*
X486017Y334072D01*
X486110Y334327D01*
X486179Y334628D01*
X486202Y334975D01*
X484721D01*
Y337729D01*
X491177D01*
Y337705D01*
Y337636D01*
Y337497D01*
Y337335D01*
Y337150D01*
X491154Y336919D01*
Y336664D01*
X491131Y336386D01*
X491085Y335808D01*
X491039Y335229D01*
X490946Y334674D01*
X490900Y334420D01*
X490830Y334188D01*
Y334165D01*
X490807Y334142D01*
X490761Y334003D01*
X490668Y333772D01*
X490553Y333494D01*
X490368Y333147D01*
X490136Y332777D01*
X489835Y332360D01*
X489488Y331944D01*
Y331921D01*
X489442Y331897D01*
X489303Y331759D01*
X489095Y331550D01*
X488794Y331319D01*
X488447Y331041D01*
X488030Y330764D01*
X487545Y330509D01*
X487035Y330278D01*
X487012D01*
X486966Y330255D01*
X486897Y330231D01*
X486781Y330208D01*
X486642Y330162D01*
X486503Y330116D01*
X486110Y330023D01*
X485647Y329931D01*
X485138Y329838D01*
X484560Y329792D01*
X483958Y329769D01*
X483727D01*
X483541Y329792D01*
X483333D01*
X483079Y329815D01*
X482801Y329838D01*
X482500Y329861D01*
X482153Y329907D01*
X481806Y329977D01*
X481065Y330116D01*
X480279Y330301D01*
X479515Y330578D01*
X479492D01*
X479422Y330625D01*
X479330Y330671D01*
X479191Y330741D01*
X479029Y330810D01*
X478821Y330926D01*
X478381Y331203D01*
X477895Y331573D01*
X477386Y332013D01*
X477132Y332268D01*
X476877Y332545D01*
X476646Y332869D01*
X476438Y333193D01*
Y333216D01*
X476391Y333286D01*
X476345Y333378D01*
X476276Y333517D01*
X476183Y333679D01*
X476091Y333887D01*
X475998Y334096D01*
X475905Y334373D01*
X475790Y334651D01*
X475697Y334952D01*
X475512Y335646D01*
X475396Y336410D01*
X475373Y336803D01*
X475350Y337220D01*
Y337266D01*
Y337358D01*
X475373Y337543D01*
X475396Y337775D01*
X475419Y338076D01*
X475466Y338400D01*
X475535Y338770D01*
X475628Y339163D01*
X475743Y339580D01*
X475882Y340042D01*
X476067Y340482D01*
X476276Y340945D01*
X476530Y341385D01*
X476831Y341824D01*
X477155Y342264D01*
X477548Y342657D01*
X477571Y342680D01*
X477641Y342750D01*
X477780Y342842D01*
X477942Y342981D01*
X478173Y343143D01*
X478428Y343328D01*
X478728Y343513D01*
X479052Y343699D01*
X479446Y343884D01*
X479839Y344092D01*
X480302Y344254D01*
X480765Y344416D01*
X481274Y344555D01*
X481806Y344647D01*
X482384Y344717D01*
X482963Y344740D01*
X483217D01*
X483402Y344717D01*
D02*
G37*
G36*
X473638Y341523D02*
X466141Y333170D01*
X470306D01*
Y335137D01*
X473684D01*
Y330000D01*
X459407D01*
Y333286D01*
X466511Y341292D01*
X462901D01*
Y339510D01*
X459592D01*
Y344462D01*
X473638D01*
Y341523D01*
D02*
G37*
G36*
X435759Y344717D02*
X435967Y344693D01*
X436221Y344670D01*
X436499Y344647D01*
X436823Y344601D01*
X437471Y344439D01*
X438188Y344231D01*
X438535Y344092D01*
X438859Y343930D01*
X439206Y343745D01*
X439507Y343536D01*
X439530Y343513D01*
X439576Y343490D01*
X439646Y343421D01*
X439762Y343328D01*
X439877Y343213D01*
X440016Y343074D01*
X440155Y342889D01*
X440317Y342704D01*
X440595Y342264D01*
X440849Y341732D01*
X440965Y341431D01*
X441034Y341130D01*
X441081Y340783D01*
X441104Y340436D01*
Y340413D01*
Y340390D01*
Y340320D01*
X441081Y340228D01*
X441057Y339996D01*
X441011Y339672D01*
X440895Y339325D01*
X440757Y338932D01*
X440572Y338538D01*
X440294Y338145D01*
X440247Y338099D01*
X440201Y338029D01*
X440132Y337960D01*
X440039Y337867D01*
X439900Y337752D01*
X439762Y337613D01*
X439576Y337474D01*
X439391Y337312D01*
X439160Y337127D01*
X438905Y336942D01*
X438605Y336757D01*
X438281Y336549D01*
X437934Y336340D01*
X437540Y336132D01*
X437124Y335900D01*
X437101D01*
X437031Y335854D01*
X436939Y335808D01*
X436823Y335739D01*
X436661Y335669D01*
X436499Y335577D01*
X436106Y335345D01*
X435666Y335114D01*
X435249Y334882D01*
X434879Y334651D01*
X434717Y334535D01*
X434578Y334443D01*
X434555Y334420D01*
X434463Y334350D01*
X434347Y334258D01*
X434208Y334119D01*
X434046Y333934D01*
X433884Y333749D01*
X433722Y333540D01*
X433583Y333309D01*
X438142D01*
X438188Y334512D01*
X441196D01*
X441081Y330000D01*
X429534D01*
Y330023D01*
Y330069D01*
Y330208D01*
Y330370D01*
Y330416D01*
Y330440D01*
Y330463D01*
Y330532D01*
Y330648D01*
X429557Y330787D01*
Y330949D01*
X429580Y331157D01*
X429603Y331388D01*
X429650Y331643D01*
X429742Y332198D01*
X429904Y332823D01*
X430112Y333448D01*
X430390Y334049D01*
X430413Y334096D01*
X430483Y334188D01*
X430575Y334350D01*
X430714Y334558D01*
X430899Y334813D01*
X431107Y335091D01*
X431362Y335392D01*
X431640Y335692D01*
X431686Y335739D01*
X431778Y335831D01*
X431940Y335993D01*
X432172Y336201D01*
X432450Y336456D01*
X432774Y336710D01*
X433144Y337011D01*
X433560Y337312D01*
X433583Y337335D01*
X433653Y337382D01*
X433745Y337451D01*
X433861Y337543D01*
X434023Y337659D01*
X434208Y337798D01*
X434602Y338099D01*
X435018Y338423D01*
X435411Y338770D01*
X435782Y339071D01*
X435920Y339233D01*
X436036Y339348D01*
X436059Y339371D01*
X436129Y339464D01*
X436221Y339580D01*
X436314Y339765D01*
X436406Y339950D01*
X436499Y340158D01*
X436568Y340413D01*
X436591Y340644D01*
Y340667D01*
Y340760D01*
X436568Y340876D01*
X436545Y341014D01*
X436499Y341176D01*
X436429Y341338D01*
X436337Y341523D01*
X436198Y341685D01*
X436175Y341708D01*
X436129Y341755D01*
X436036Y341824D01*
X435920Y341894D01*
X435759Y341963D01*
X435573Y342033D01*
X435342Y342079D01*
X435087Y342102D01*
X435018D01*
X434949Y342079D01*
X434833D01*
X434578Y341986D01*
X434440Y341940D01*
X434278Y341847D01*
X434139Y341755D01*
X433977Y341616D01*
X433838Y341454D01*
X433722Y341246D01*
X433606Y341014D01*
X433537Y340760D01*
X433491Y340436D01*
X433468Y340089D01*
X429742Y340181D01*
Y340205D01*
Y340297D01*
X429765Y340413D01*
X429789Y340575D01*
X429812Y340783D01*
X429858Y341014D01*
X429927Y341269D01*
X429997Y341547D01*
X430205Y342125D01*
X430344Y342426D01*
X430506Y342704D01*
X430691Y342981D01*
X430899Y343259D01*
X431131Y343490D01*
X431408Y343699D01*
X431431Y343722D01*
X431478Y343745D01*
X431570Y343791D01*
X431686Y343861D01*
X431848Y343930D01*
X432033Y344022D01*
X432241Y344115D01*
X432473Y344231D01*
X432750Y344323D01*
X433051Y344416D01*
X433375Y344508D01*
X433722Y344578D01*
X434092Y344647D01*
X434463Y344693D01*
X434879Y344740D01*
X435573D01*
X435759Y344717D01*
D02*
G37*
G36*
X425276Y340991D02*
X424119D01*
X426896Y333448D01*
X427961D01*
Y330000D01*
X420394D01*
Y333170D01*
X421667D01*
X421111Y334998D01*
X417409D01*
X416784Y333170D01*
X417964D01*
Y330000D01*
X412249D01*
Y333448D01*
X413336D01*
X416044Y340991D01*
X414887D01*
Y344462D01*
X425276D01*
Y340991D01*
D02*
G37*
G36*
X494155Y420290D02*
Y404000D01*
X484668D01*
Y420290D01*
X478328Y430678D01*
Y424548D01*
X471756D01*
Y404000D01*
X462269D01*
Y424548D01*
X455698D01*
Y433711D01*
X485871D01*
X489296Y427787D01*
X493045Y433711D01*
X502300D01*
X494155Y420290D01*
D02*
G37*
G36*
X514981Y434405D02*
X515351Y434359D01*
X515814Y434266D01*
X516323Y434174D01*
X516878Y434081D01*
X518081Y433711D01*
X518729Y433433D01*
X519377Y433156D01*
X520025Y432785D01*
X520673Y432369D01*
X521275Y431906D01*
X521876Y431351D01*
X521922Y431305D01*
X522015Y431212D01*
X522154Y431027D01*
X522385Y430795D01*
X522617Y430518D01*
X522894Y430148D01*
X523172Y429731D01*
X523450Y429222D01*
X523727Y428713D01*
X524051Y428111D01*
X524283Y427510D01*
X524514Y426815D01*
X524745Y426121D01*
X524884Y425335D01*
X524977Y424548D01*
X525023Y423715D01*
Y423669D01*
Y423530D01*
Y423298D01*
X524977Y422974D01*
X524931Y422604D01*
X524884Y422188D01*
X524699Y421262D01*
X524375Y420198D01*
X524144Y419642D01*
X523913Y419133D01*
X523589Y418624D01*
X523218Y418115D01*
X522802Y417699D01*
X522339Y417282D01*
X522293Y417236D01*
X522200Y417143D01*
X522061Y416958D01*
X521830Y416773D01*
X521552Y416495D01*
X521228Y416218D01*
X520812Y415940D01*
X520349Y415616D01*
X519794Y415292D01*
X519238Y415014D01*
X518591Y414737D01*
X517850Y414459D01*
X517109Y414274D01*
X516277Y414089D01*
X515397Y413996D01*
X514472Y413950D01*
X512713D01*
Y422373D01*
X512806D01*
X513130Y422419D01*
X513546Y422465D01*
X514009Y422558D01*
X514472Y422743D01*
X514888Y423021D01*
X515212Y423437D01*
X515258Y423669D01*
X515305Y423946D01*
Y423992D01*
Y424178D01*
X515212Y424409D01*
X515120Y424640D01*
X514934Y424918D01*
X514657Y425103D01*
X514286Y425288D01*
X513778Y425335D01*
X513731D01*
X513546Y425288D01*
X513315Y425242D01*
X513037Y425103D01*
X512713Y424826D01*
X512482Y424455D01*
X512296Y423992D01*
X512250Y423669D01*
Y423298D01*
Y404000D01*
X502763D01*
Y422373D01*
Y422419D01*
Y422511D01*
Y422650D01*
Y422836D01*
X502809Y423391D01*
X502856Y424039D01*
X502902Y424779D01*
X502994Y425566D01*
X503133Y426353D01*
X503318Y427093D01*
X503365Y427186D01*
X503411Y427417D01*
X503550Y427741D01*
X503781Y428158D01*
X504013Y428620D01*
X504337Y429083D01*
X504753Y429592D01*
X505216Y430009D01*
Y430055D01*
X505308Y430101D01*
X505494Y430379D01*
X505864Y430795D01*
X506327Y431305D01*
X506928Y431860D01*
X507622Y432415D01*
X508409Y432971D01*
X509242Y433387D01*
X509288D01*
X509335Y433433D01*
X509473Y433480D01*
X509659Y433572D01*
X510121Y433711D01*
X510769Y433942D01*
X511510Y434128D01*
X512343Y434266D01*
X513268Y434405D01*
X514194Y434451D01*
X514657D01*
X514981Y434405D01*
D02*
G37*
G36*
X329218D02*
X329588Y434359D01*
X330051Y434266D01*
X330560Y434174D01*
X331115Y434081D01*
X332318Y433711D01*
X332966Y433433D01*
X333614Y433156D01*
X334262Y432785D01*
X334910Y432369D01*
X335512Y431906D01*
X336113Y431351D01*
X336159Y431305D01*
X336252Y431212D01*
X336391Y431027D01*
X336622Y430795D01*
X336854Y430518D01*
X337131Y430148D01*
X337409Y429731D01*
X337687Y429222D01*
X337964Y428713D01*
X338288Y428111D01*
X338520Y427510D01*
X338751Y426815D01*
X338982Y426121D01*
X339121Y425335D01*
X339214Y424548D01*
X339260Y423715D01*
Y423669D01*
Y423530D01*
Y423298D01*
X339214Y422974D01*
X339168Y422604D01*
X339121Y422188D01*
X338936Y421262D01*
X338612Y420198D01*
X338381Y419642D01*
X338149Y419133D01*
X337826Y418624D01*
X337455Y418115D01*
X337039Y417699D01*
X336576Y417282D01*
X336530Y417236D01*
X336437Y417143D01*
X336298Y416958D01*
X336067Y416773D01*
X335789Y416495D01*
X335465Y416218D01*
X335049Y415940D01*
X334586Y415616D01*
X334031Y415292D01*
X333475Y415014D01*
X332827Y414737D01*
X332087Y414459D01*
X331346Y414274D01*
X330513Y414089D01*
X329634Y413996D01*
X328708Y413950D01*
X326950D01*
Y422373D01*
X327043D01*
X327366Y422419D01*
X327783Y422465D01*
X328246Y422558D01*
X328708Y422743D01*
X329125Y423021D01*
X329449Y423437D01*
X329495Y423669D01*
X329542Y423946D01*
Y423992D01*
Y424178D01*
X329449Y424409D01*
X329356Y424640D01*
X329171Y424918D01*
X328894Y425103D01*
X328523Y425288D01*
X328014Y425335D01*
X327968D01*
X327783Y425288D01*
X327552Y425242D01*
X327274Y425103D01*
X326950Y424826D01*
X326718Y424455D01*
X326533Y423992D01*
X326487Y423669D01*
Y423298D01*
Y404000D01*
X317000D01*
Y422373D01*
Y422419D01*
Y422511D01*
Y422650D01*
Y422836D01*
X317046Y423391D01*
X317093Y424039D01*
X317139Y424779D01*
X317231Y425566D01*
X317370Y426353D01*
X317555Y427093D01*
X317602Y427186D01*
X317648Y427417D01*
X317787Y427741D01*
X318018Y428158D01*
X318249Y428620D01*
X318573Y429083D01*
X318990Y429592D01*
X319453Y430009D01*
Y430055D01*
X319545Y430101D01*
X319730Y430379D01*
X320101Y430795D01*
X320564Y431305D01*
X321165Y431860D01*
X321859Y432415D01*
X322646Y432971D01*
X323479Y433387D01*
X323525D01*
X323572Y433433D01*
X323710Y433480D01*
X323895Y433572D01*
X324358Y433711D01*
X325006Y433942D01*
X325747Y434128D01*
X326580Y434266D01*
X327505Y434405D01*
X328431Y434451D01*
X328894D01*
X329218Y434405D01*
D02*
G37*
G36*
X545062Y424548D02*
X538814D01*
X538537Y424501D01*
X538259Y424409D01*
X537935Y424316D01*
X537657Y424131D01*
X537472Y423900D01*
X537380Y423576D01*
Y423530D01*
Y423483D01*
X537426Y423206D01*
X537519Y422928D01*
X537704Y422697D01*
X537796Y422650D01*
X537889D01*
X538027Y422604D01*
X538259Y422558D01*
X538537D01*
X538861Y422511D01*
X544507D01*
Y415200D01*
X538120D01*
X537889Y415153D01*
X537472Y415107D01*
X537241Y415061D01*
X537102Y414968D01*
X537056Y414922D01*
X536963Y414783D01*
X536871Y414552D01*
X536824Y414181D01*
Y414135D01*
Y414089D01*
X536871Y413811D01*
X536963Y413533D01*
X537009Y413395D01*
X537102Y413302D01*
X537195Y413256D01*
X537287D01*
X537426Y413209D01*
X537657Y413163D01*
X537981D01*
X538352Y413117D01*
X545062D01*
Y404000D01*
X537380D01*
X537009Y404046D01*
X536593Y404093D01*
X536130Y404139D01*
X535621Y404185D01*
X535019Y404278D01*
X533816Y404555D01*
X532567Y405018D01*
X531919Y405249D01*
X531317Y405574D01*
X530762Y405944D01*
X530253Y406360D01*
X530206Y406407D01*
X530160Y406453D01*
X530021Y406592D01*
X529836Y406823D01*
X529651Y407054D01*
X529420Y407378D01*
X529188Y407702D01*
X528957Y408119D01*
X528679Y408582D01*
X528448Y409091D01*
X528216Y409646D01*
X528031Y410294D01*
X527846Y410942D01*
X527707Y411682D01*
X527661Y412423D01*
X527615Y413256D01*
Y424548D01*
Y424594D01*
Y424733D01*
Y424964D01*
X527661Y425288D01*
X527707Y425612D01*
X527754Y426075D01*
X527846Y426538D01*
X527939Y427047D01*
X528216Y428111D01*
X528679Y429222D01*
X528957Y429777D01*
X529281Y430333D01*
X529697Y430842D01*
X530114Y431305D01*
X530160Y431351D01*
X530253Y431397D01*
X530392Y431536D01*
X530577Y431675D01*
X530854Y431860D01*
X531132Y432045D01*
X531502Y432276D01*
X531919Y432508D01*
X532382Y432739D01*
X532937Y432971D01*
X533492Y433156D01*
X534140Y433341D01*
X534788Y433480D01*
X535528Y433618D01*
X536269Y433665D01*
X537102Y433711D01*
X545062D01*
Y424548D01*
D02*
G37*
G36*
X422238D02*
X415666D01*
Y404000D01*
X406179D01*
Y424548D01*
X399608D01*
Y433711D01*
X422238D01*
Y424548D01*
D02*
G37*
G36*
X354763Y433665D02*
X355180Y433618D01*
X355689Y433572D01*
X356244Y433480D01*
X356846Y433387D01*
X358142Y433063D01*
X358790Y432878D01*
X359484Y432600D01*
X360132Y432276D01*
X360780Y431952D01*
X361381Y431536D01*
X361937Y431073D01*
X361983Y431027D01*
X362076Y430934D01*
X362261Y430795D01*
X362446Y430564D01*
X362677Y430240D01*
X362955Y429916D01*
X363279Y429500D01*
X363603Y429083D01*
X363880Y428574D01*
X364204Y428019D01*
X364482Y427371D01*
X364713Y426723D01*
X364899Y426029D01*
X365084Y425288D01*
X365176Y424548D01*
X365223Y423715D01*
Y423669D01*
Y423530D01*
X365176Y423252D01*
Y422928D01*
X365084Y422558D01*
X365037Y422095D01*
X364899Y421586D01*
X364760Y421031D01*
X364528Y420429D01*
X364297Y419827D01*
X363973Y419226D01*
X363603Y418578D01*
X363186Y417930D01*
X362631Y417328D01*
X362076Y416727D01*
X361381Y416171D01*
X366333Y404000D01*
X356568D01*
X352264Y413626D01*
Y421586D01*
X353468D01*
X353745Y421632D01*
X354116Y421679D01*
X354532Y421817D01*
X354949Y422049D01*
X355273Y422373D01*
X355550Y422836D01*
X355597Y423113D01*
X355643Y423437D01*
Y423530D01*
X355597Y423715D01*
X355504Y423946D01*
X355319Y424270D01*
X354995Y424548D01*
X354763Y424687D01*
X354532Y424826D01*
X354208Y424918D01*
X353838Y425011D01*
X353421Y425057D01*
X351940D01*
Y404000D01*
X342453D01*
Y433711D01*
X354393D01*
X354763Y433665D01*
D02*
G37*
G36*
X439685Y434405D02*
X440148Y434359D01*
X440703Y434313D01*
X441351Y434220D01*
X442045Y434081D01*
X442832Y433896D01*
X443665Y433618D01*
X444544Y433341D01*
X445424Y432971D01*
X446349Y432508D01*
X447275Y431952D01*
X448200Y431351D01*
X449080Y430657D01*
X449959Y429824D01*
X450005Y429777D01*
X450144Y429638D01*
X450376Y429361D01*
X450653Y428991D01*
X451023Y428574D01*
X451394Y428019D01*
X451810Y427417D01*
X452227Y426723D01*
X452643Y425982D01*
X453060Y425149D01*
X453430Y424224D01*
X453800Y423252D01*
X454078Y422234D01*
X454309Y421169D01*
X454448Y420013D01*
X454494Y418856D01*
Y418763D01*
Y418578D01*
X454448Y418208D01*
X454402Y417745D01*
X454356Y417189D01*
X454263Y416542D01*
X454124Y415801D01*
X453939Y415014D01*
X453661Y414181D01*
X453384Y413302D01*
X453013Y412377D01*
X452551Y411451D01*
X452042Y410479D01*
X451440Y409553D01*
X450700Y408674D01*
X449913Y407795D01*
X449866Y407749D01*
X449728Y407610D01*
X449450Y407378D01*
X449126Y407101D01*
X448663Y406730D01*
X448154Y406360D01*
X447506Y405944D01*
X446812Y405527D01*
X446072Y405111D01*
X445239Y404694D01*
X444313Y404324D01*
X443341Y403954D01*
X442277Y403676D01*
X441212Y403445D01*
X440055Y403306D01*
X438852Y403260D01*
X438574D01*
X438204Y403306D01*
X437788Y403352D01*
X437232Y403398D01*
X436584Y403491D01*
X435844Y403630D01*
X435057Y403815D01*
X434178Y404046D01*
X433299Y404370D01*
X432373Y404740D01*
X431447Y405157D01*
X430522Y405712D01*
X429596Y406314D01*
X428671Y407008D01*
X427791Y407795D01*
X427745Y407841D01*
X427606Y408026D01*
X427375Y408258D01*
X427097Y408628D01*
X426727Y409044D01*
X426357Y409600D01*
X425940Y410201D01*
X425524Y410896D01*
X425107Y411682D01*
X424691Y412515D01*
X424320Y413441D01*
X423950Y414413D01*
X423673Y415431D01*
X423441Y416542D01*
X423302Y417652D01*
X423256Y418856D01*
Y418948D01*
Y419133D01*
X423302Y419503D01*
X423349Y419966D01*
X423395Y420522D01*
X423488Y421169D01*
X423626Y421910D01*
X423811Y422697D01*
X424089Y423530D01*
X424367Y424409D01*
X424737Y425335D01*
X425200Y426260D01*
X425709Y427232D01*
X426311Y428158D01*
X427051Y429037D01*
X427838Y429916D01*
X427884Y429962D01*
X428069Y430101D01*
X428301Y430333D01*
X428671Y430610D01*
X429087Y430980D01*
X429643Y431351D01*
X430244Y431767D01*
X430985Y432184D01*
X431725Y432600D01*
X432604Y433017D01*
X433530Y433387D01*
X434502Y433757D01*
X435566Y434035D01*
X436677Y434266D01*
X437880Y434405D01*
X439084Y434451D01*
X439361D01*
X439685Y434405D01*
D02*
G37*
G36*
X383595D02*
X384058Y434359D01*
X384613Y434313D01*
X385261Y434220D01*
X385955Y434081D01*
X386742Y433896D01*
X387575Y433618D01*
X388455Y433341D01*
X389334Y432971D01*
X390259Y432508D01*
X391185Y431952D01*
X392110Y431351D01*
X392990Y430657D01*
X393869Y429824D01*
X393915Y429777D01*
X394054Y429638D01*
X394286Y429361D01*
X394563Y428991D01*
X394934Y428574D01*
X395304Y428019D01*
X395720Y427417D01*
X396137Y426723D01*
X396553Y425982D01*
X396970Y425149D01*
X397340Y424224D01*
X397710Y423252D01*
X397988Y422234D01*
X398219Y421169D01*
X398358Y420013D01*
X398404Y418856D01*
Y418763D01*
Y418578D01*
X398358Y418208D01*
X398312Y417745D01*
X398266Y417189D01*
X398173Y416542D01*
X398034Y415801D01*
X397849Y415014D01*
X397571Y414181D01*
X397294Y413302D01*
X396923Y412377D01*
X396461Y411451D01*
X395952Y410479D01*
X395350Y409553D01*
X394609Y408674D01*
X393823Y407795D01*
X393777Y407749D01*
X393638Y407610D01*
X393360Y407378D01*
X393036Y407101D01*
X392573Y406730D01*
X392064Y406360D01*
X391416Y405944D01*
X390722Y405527D01*
X389982Y405111D01*
X389149Y404694D01*
X388223Y404324D01*
X387251Y403954D01*
X386187Y403676D01*
X385122Y403445D01*
X383965Y403306D01*
X382762Y403260D01*
X382485D01*
X382114Y403306D01*
X381698Y403352D01*
X381142Y403398D01*
X380494Y403491D01*
X379754Y403630D01*
X378967Y403815D01*
X378088Y404046D01*
X377209Y404370D01*
X376283Y404740D01*
X375358Y405157D01*
X374432Y405712D01*
X373506Y406314D01*
X372581Y407008D01*
X371702Y407795D01*
X371655Y407841D01*
X371516Y408026D01*
X371285Y408258D01*
X371007Y408628D01*
X370637Y409044D01*
X370267Y409600D01*
X369850Y410201D01*
X369434Y410896D01*
X369017Y411682D01*
X368601Y412515D01*
X368231Y413441D01*
X367860Y414413D01*
X367583Y415431D01*
X367351Y416542D01*
X367212Y417652D01*
X367166Y418856D01*
Y418948D01*
Y419133D01*
X367212Y419503D01*
X367259Y419966D01*
X367305Y420522D01*
X367398Y421169D01*
X367537Y421910D01*
X367722Y422697D01*
X367999Y423530D01*
X368277Y424409D01*
X368647Y425335D01*
X369110Y426260D01*
X369619Y427232D01*
X370221Y428158D01*
X370961Y429037D01*
X371748Y429916D01*
X371794Y429962D01*
X371979Y430101D01*
X372211Y430333D01*
X372581Y430610D01*
X372997Y430980D01*
X373553Y431351D01*
X374154Y431767D01*
X374895Y432184D01*
X375635Y432600D01*
X376515Y433017D01*
X377440Y433387D01*
X378412Y433757D01*
X379476Y434035D01*
X380587Y434266D01*
X381790Y434405D01*
X382994Y434451D01*
X383271D01*
X383595Y434405D01*
D02*
G37*
G36*
X412922Y476727D02*
X413338Y476681D01*
X413755Y476635D01*
X414264Y476542D01*
X414819Y476403D01*
X415976Y476033D01*
X416624Y475802D01*
X417272Y475478D01*
X417873Y475154D01*
X418521Y474737D01*
X419123Y474274D01*
X419725Y473719D01*
X419771Y473673D01*
X419863Y473580D01*
X420002Y473395D01*
X420187Y473164D01*
X420419Y472886D01*
X420696Y472516D01*
X420974Y472099D01*
X421252Y471637D01*
X421530Y471128D01*
X421807Y470572D01*
X422085Y469971D01*
X422316Y469276D01*
X422501Y468582D01*
X422640Y467842D01*
X422733Y467055D01*
X422779Y466222D01*
Y466176D01*
Y466037D01*
Y465805D01*
X422733Y465481D01*
X422686Y465111D01*
X422640Y464695D01*
X422548Y464232D01*
X422455Y463723D01*
X422085Y462612D01*
X421900Y462011D01*
X421622Y461409D01*
X421298Y460854D01*
X420928Y460252D01*
X420511Y459697D01*
X420002Y459188D01*
X419956Y459141D01*
X419863Y459095D01*
X419725Y458956D01*
X419539Y458817D01*
X419262Y458632D01*
X418938Y458401D01*
X418568Y458169D01*
X418105Y457984D01*
X417642Y457753D01*
X417087Y457522D01*
X416439Y457290D01*
X415745Y457105D01*
X415050Y456966D01*
X414217Y456827D01*
X413384Y456781D01*
X412459Y456735D01*
X411163D01*
Y464463D01*
X411394D01*
X411580Y464510D01*
X411996Y464556D01*
X412505Y464741D01*
X412968Y464972D01*
X413384Y465343D01*
X413569Y465574D01*
X413708Y465852D01*
X413755Y466129D01*
X413801Y466500D01*
Y466592D01*
X413755Y466777D01*
X413708Y467101D01*
X413569Y467472D01*
X413292Y467795D01*
X412922Y468119D01*
X412459Y468304D01*
X412135Y468397D01*
X411672D01*
X411441Y468351D01*
X411117Y468258D01*
X410746Y468073D01*
X410376Y467749D01*
X410052Y467286D01*
X409913Y467009D01*
X409821Y466685D01*
X409775Y466268D01*
X409728Y465805D01*
Y446600D01*
X400982D01*
Y464880D01*
Y464926D01*
Y465019D01*
Y465158D01*
Y465343D01*
X401028Y465898D01*
X401074Y466546D01*
X401120Y467286D01*
X401213Y468073D01*
X401352Y468814D01*
X401537Y469554D01*
X401583Y469647D01*
X401630Y469878D01*
X401768Y470202D01*
X402000Y470665D01*
X402277Y471220D01*
X402601Y471775D01*
X403018Y472377D01*
X403481Y472979D01*
X403573Y473071D01*
X403758Y473256D01*
X404082Y473580D01*
X404545Y473997D01*
X405101Y474413D01*
X405795Y474876D01*
X406535Y475339D01*
X407368Y475755D01*
X407414D01*
X407461Y475802D01*
X407599Y475848D01*
X407785Y475894D01*
X408247Y476079D01*
X408849Y476264D01*
X409543Y476450D01*
X410376Y476635D01*
X411256Y476727D01*
X412181Y476773D01*
X412598D01*
X412922Y476727D01*
D02*
G37*
G36*
X512560Y456920D02*
Y456874D01*
Y456688D01*
Y456457D01*
X512514Y456087D01*
X512467Y455670D01*
X512421Y455161D01*
X512328Y454606D01*
X512190Y454004D01*
X511819Y452755D01*
X511588Y452061D01*
X511264Y451413D01*
X510940Y450719D01*
X510524Y450071D01*
X510061Y449469D01*
X509506Y448867D01*
X509459Y448821D01*
X509367Y448729D01*
X509182Y448590D01*
X508950Y448405D01*
X508672Y448173D01*
X508302Y447896D01*
X507886Y447664D01*
X507377Y447387D01*
X506821Y447062D01*
X506220Y446831D01*
X505572Y446553D01*
X504878Y446322D01*
X504091Y446137D01*
X503258Y445998D01*
X502425Y445906D01*
X501499Y445859D01*
X501036D01*
X500666Y445906D01*
X500250Y445952D01*
X499787Y445998D01*
X499278Y446091D01*
X498676Y446230D01*
X497473Y446553D01*
X496825Y446831D01*
X496223Y447109D01*
X495575Y447433D01*
X494974Y447803D01*
X494419Y448266D01*
X493909Y448775D01*
X493863Y448821D01*
X493817Y448914D01*
X493678Y449099D01*
X493493Y449330D01*
X493308Y449608D01*
X493077Y449978D01*
X492845Y450441D01*
X492614Y450904D01*
X492336Y451505D01*
X492105Y452107D01*
X491873Y452801D01*
X491688Y453542D01*
X491503Y454375D01*
X491364Y455254D01*
X491318Y456180D01*
X491272Y457198D01*
Y476033D01*
X500018D01*
Y457198D01*
Y457151D01*
Y457105D01*
Y456966D01*
X500065Y456781D01*
X500111Y456365D01*
X500250Y455902D01*
X500481Y455393D01*
X500805Y454976D01*
X501036Y454791D01*
X501268Y454652D01*
X501592Y454606D01*
X501916Y454560D01*
X502008D01*
X502193Y454606D01*
X502517Y454698D01*
X502888Y454884D01*
X503212Y455208D01*
X503397Y455439D01*
X503535Y455670D01*
X503628Y455994D01*
X503721Y456318D01*
X503813Y456735D01*
Y457198D01*
Y476033D01*
X512560D01*
Y456920D01*
D02*
G37*
G36*
X338829Y464695D02*
X338876D01*
X338968Y464602D01*
X339061Y464510D01*
X339246Y464417D01*
X339709Y464047D01*
X340310Y463584D01*
X340912Y463029D01*
X341560Y462381D01*
X342115Y461640D01*
X342624Y460900D01*
X342670Y460807D01*
X342809Y460530D01*
X342994Y460113D01*
X343226Y459511D01*
X343457Y458771D01*
X343642Y457938D01*
X343781Y456966D01*
X343827Y455948D01*
Y455902D01*
Y455763D01*
Y455532D01*
X343781Y455254D01*
X343735Y454884D01*
X343642Y454467D01*
X343550Y453958D01*
X343457Y453449D01*
X343041Y452338D01*
X342809Y451737D01*
X342485Y451135D01*
X342161Y450533D01*
X341698Y449932D01*
X341236Y449330D01*
X340680Y448775D01*
X340634Y448729D01*
X340542Y448636D01*
X340356Y448497D01*
X340125Y448312D01*
X339801Y448081D01*
X339431Y447849D01*
X339014Y447572D01*
X338552Y447340D01*
X337996Y447062D01*
X337441Y446785D01*
X336793Y446553D01*
X336099Y446322D01*
X335405Y446137D01*
X334618Y445998D01*
X333831Y445906D01*
X332998Y445859D01*
X332582D01*
X332072Y445906D01*
X331425Y445998D01*
X330638Y446091D01*
X329805Y446230D01*
X328926Y446461D01*
X328000Y446785D01*
Y455115D01*
X328093Y455069D01*
X328324Y454930D01*
X328648Y454745D01*
X329111Y454560D01*
X329620Y454328D01*
X330129Y454143D01*
X330684Y454004D01*
X331240Y453958D01*
X331471D01*
X331749Y454004D01*
X332119Y454097D01*
X332489Y454236D01*
X332906Y454421D01*
X333322Y454652D01*
X333739Y455023D01*
X333785Y455069D01*
X333924Y455208D01*
X334062Y455439D01*
X334294Y455763D01*
X334479Y456133D01*
X334618Y456596D01*
X334757Y457105D01*
X334803Y457707D01*
Y457799D01*
Y458031D01*
X334710Y458355D01*
X334618Y458771D01*
X334433Y459234D01*
X334155Y459697D01*
X333739Y460206D01*
X333229Y460622D01*
X333183Y460668D01*
X332952Y460807D01*
X332628Y460992D01*
X332165Y461178D01*
X331563Y461363D01*
X330869Y461548D01*
X330083Y461687D01*
X329157Y461733D01*
X331332Y467564D01*
X328093D01*
Y476033D01*
X343642D01*
X338829Y464695D01*
D02*
G37*
G36*
X527971Y476727D02*
X528341Y476681D01*
X528804Y476635D01*
X529267Y476542D01*
X529776Y476403D01*
X530933Y476033D01*
X531534Y475802D01*
X532136Y475524D01*
X532737Y475154D01*
X533385Y474737D01*
X533987Y474274D01*
X534542Y473765D01*
X534589Y473719D01*
X534681Y473627D01*
X534820Y473441D01*
X535005Y473210D01*
X535237Y472932D01*
X535514Y472608D01*
X535746Y472192D01*
X536069Y471729D01*
X536347Y471220D01*
X536579Y470665D01*
X537088Y469415D01*
X537273Y468721D01*
X537412Y468027D01*
X537504Y467240D01*
X537550Y466453D01*
Y466407D01*
Y466361D01*
Y466222D01*
Y466037D01*
X537504Y465574D01*
X537412Y464972D01*
X537273Y464278D01*
X537088Y463492D01*
X536810Y462659D01*
X536440Y461872D01*
X532923Y455115D01*
X537874D01*
Y446600D01*
X518854D01*
X528295Y464278D01*
X528619Y464880D01*
Y464926D01*
X528665Y465019D01*
X528757Y465158D01*
X528850Y465343D01*
X528989Y465805D01*
X529035Y466315D01*
Y466407D01*
X528989Y466592D01*
X528943Y466870D01*
X528757Y467194D01*
X528526Y467518D01*
X528156Y467795D01*
X527647Y467980D01*
X527323Y468073D01*
X526814D01*
X526675Y468027D01*
X526443Y467980D01*
X525981Y467842D01*
X525749Y467657D01*
X525518Y467472D01*
Y467425D01*
X525425Y467379D01*
X525333Y467240D01*
X525240Y467055D01*
X525055Y466592D01*
X525009Y466361D01*
X524963Y466037D01*
Y465991D01*
Y465898D01*
X525009Y465713D01*
X525055Y465528D01*
X525148Y465250D01*
X525286Y464972D01*
X525472Y464695D01*
X525749Y464417D01*
X521954Y457707D01*
X521908D01*
X521862Y457753D01*
X521584Y457984D01*
X521121Y458262D01*
X520612Y458725D01*
X520011Y459234D01*
X519409Y459882D01*
X518807Y460622D01*
X518298Y461409D01*
Y461455D01*
X518252Y461502D01*
X518206Y461640D01*
X518113Y461825D01*
X517882Y462288D01*
X517697Y462890D01*
X517465Y463630D01*
X517234Y464510D01*
X517095Y465435D01*
X517049Y466453D01*
Y466500D01*
Y466638D01*
Y466870D01*
X517095Y467147D01*
X517141Y467518D01*
X517188Y467934D01*
X517280Y468443D01*
X517419Y468952D01*
X517789Y470063D01*
X518021Y470665D01*
X518298Y471313D01*
X518622Y471914D01*
X519039Y472516D01*
X519502Y473117D01*
X520011Y473719D01*
X520057Y473765D01*
X520150Y473858D01*
X520335Y473997D01*
X520566Y474182D01*
X520844Y474413D01*
X521168Y474691D01*
X521584Y474969D01*
X522047Y475246D01*
X522556Y475524D01*
X523111Y475802D01*
X524361Y476311D01*
X525009Y476496D01*
X525749Y476635D01*
X526490Y476727D01*
X527276Y476773D01*
X527693D01*
X527971Y476727D01*
D02*
G37*
G36*
X455452Y446600D02*
X447122D01*
Y476033D01*
X455452D01*
Y446600D01*
D02*
G37*
G36*
X361506Y476727D02*
X361876Y476681D01*
X362339Y476635D01*
X362802Y476542D01*
X363311Y476403D01*
X364468Y476033D01*
X365069Y475802D01*
X365671Y475524D01*
X366273Y475154D01*
X366921Y474737D01*
X367522Y474274D01*
X368077Y473765D01*
X368124Y473719D01*
X368216Y473627D01*
X368355Y473441D01*
X368540Y473210D01*
X368772Y472932D01*
X369049Y472608D01*
X369281Y472192D01*
X369605Y471729D01*
X369882Y471220D01*
X370114Y470665D01*
X370623Y469415D01*
X370808Y468721D01*
X370947Y468027D01*
X371039Y467240D01*
X371086Y466453D01*
Y466407D01*
Y466361D01*
Y466222D01*
Y466037D01*
X371039Y465574D01*
X370947Y464972D01*
X370808Y464278D01*
X370623Y463492D01*
X370345Y462659D01*
X369975Y461872D01*
X366458Y455115D01*
X371409D01*
Y446600D01*
X352389D01*
X361830Y464278D01*
X362154Y464880D01*
Y464926D01*
X362200Y465019D01*
X362293Y465158D01*
X362385Y465343D01*
X362524Y465805D01*
X362570Y466315D01*
Y466407D01*
X362524Y466592D01*
X362478Y466870D01*
X362293Y467194D01*
X362061Y467518D01*
X361691Y467795D01*
X361182Y467980D01*
X360858Y468073D01*
X360349D01*
X360210Y468027D01*
X359979Y467980D01*
X359516Y467842D01*
X359285Y467657D01*
X359053Y467472D01*
Y467425D01*
X358960Y467379D01*
X358868Y467240D01*
X358775Y467055D01*
X358590Y466592D01*
X358544Y466361D01*
X358498Y466037D01*
Y465991D01*
Y465898D01*
X358544Y465713D01*
X358590Y465528D01*
X358683Y465250D01*
X358822Y464972D01*
X359007Y464695D01*
X359285Y464417D01*
X355490Y457707D01*
X355443D01*
X355397Y457753D01*
X355119Y457984D01*
X354657Y458262D01*
X354147Y458725D01*
X353546Y459234D01*
X352944Y459882D01*
X352343Y460622D01*
X351834Y461409D01*
Y461455D01*
X351787Y461502D01*
X351741Y461640D01*
X351648Y461825D01*
X351417Y462288D01*
X351232Y462890D01*
X351001Y463630D01*
X350769Y464510D01*
X350630Y465435D01*
X350584Y466453D01*
Y466500D01*
Y466638D01*
Y466870D01*
X350630Y467147D01*
X350677Y467518D01*
X350723Y467934D01*
X350816Y468443D01*
X350954Y468952D01*
X351325Y470063D01*
X351556Y470665D01*
X351834Y471313D01*
X352158Y471914D01*
X352574Y472516D01*
X353037Y473117D01*
X353546Y473719D01*
X353592Y473765D01*
X353685Y473858D01*
X353870Y473997D01*
X354101Y474182D01*
X354379Y474413D01*
X354703Y474691D01*
X355119Y474969D01*
X355582Y475246D01*
X356091Y475524D01*
X356647Y475802D01*
X357896Y476311D01*
X358544Y476496D01*
X359285Y476635D01*
X360025Y476727D01*
X360812Y476773D01*
X361228D01*
X361506Y476727D01*
D02*
G37*
G36*
X479378Y474136D02*
X473639Y458077D01*
Y458031D01*
X473593Y457984D01*
X473547Y457660D01*
X473454Y457244D01*
X473408Y456827D01*
Y456781D01*
Y456642D01*
X473454Y456411D01*
X473501Y456133D01*
X473593Y455855D01*
X473778Y455485D01*
X473963Y455161D01*
X474241Y454837D01*
X474287Y454791D01*
X474380Y454698D01*
X474565Y454560D01*
X474843Y454421D01*
X475120Y454282D01*
X475490Y454143D01*
X475907Y454051D01*
X476324Y454004D01*
X476509D01*
X476740Y454051D01*
X477018Y454097D01*
X477342Y454189D01*
X477666Y454375D01*
X477990Y454560D01*
X478313Y454837D01*
X478360Y454884D01*
X478452Y454976D01*
X478591Y455161D01*
X478776Y455393D01*
X478915Y455717D01*
X479054Y456041D01*
X479147Y456457D01*
X479193Y456874D01*
Y456920D01*
Y457059D01*
X479147Y457290D01*
X479100Y457568D01*
X478961Y457892D01*
X478823Y458262D01*
X478591Y458586D01*
X478313Y458910D01*
X478267Y458956D01*
X478175Y459049D01*
X477990Y459188D01*
X477758Y459373D01*
X477481Y459511D01*
X477110Y459650D01*
X476740Y459743D01*
X476324Y459789D01*
X476138D01*
X475861Y459743D01*
X475490Y459650D01*
X478961Y468119D01*
X479008D01*
X479147Y468027D01*
X479378Y467934D01*
X479702Y467749D01*
X480072Y467564D01*
X480535Y467333D01*
X481507Y466824D01*
X482571Y466129D01*
X483682Y465343D01*
X484700Y464463D01*
X485163Y464001D01*
X485579Y463538D01*
X485626Y463492D01*
X485672Y463445D01*
X485764Y463260D01*
X485903Y463075D01*
X486042Y462844D01*
X486227Y462520D01*
X486412Y462196D01*
X486598Y461779D01*
X486968Y460854D01*
X487292Y459789D01*
X487523Y458540D01*
X487616Y457845D01*
Y457151D01*
Y457105D01*
Y456920D01*
Y456688D01*
X487569Y456365D01*
X487523Y455948D01*
X487430Y455485D01*
X487338Y454930D01*
X487199Y454375D01*
X487014Y453727D01*
X486829Y453079D01*
X486551Y452431D01*
X486227Y451737D01*
X485857Y451043D01*
X485394Y450395D01*
X484931Y449747D01*
X484330Y449099D01*
X484283Y449053D01*
X484191Y448960D01*
X484006Y448821D01*
X483728Y448590D01*
X483404Y448358D01*
X483034Y448081D01*
X482617Y447803D01*
X482108Y447479D01*
X481553Y447201D01*
X480951Y446877D01*
X480257Y446600D01*
X479563Y446368D01*
X478823Y446137D01*
X478036Y445998D01*
X477203Y445906D01*
X476324Y445859D01*
X475907D01*
X475583Y445906D01*
X475167Y445952D01*
X474704Y446044D01*
X474195Y446137D01*
X473639Y446276D01*
X473038Y446461D01*
X472436Y446646D01*
X471788Y446924D01*
X471094Y447248D01*
X470446Y447618D01*
X469752Y448081D01*
X469104Y448590D01*
X468456Y449145D01*
X468410Y449191D01*
X468317Y449284D01*
X468132Y449469D01*
X467947Y449747D01*
X467669Y450024D01*
X467392Y450441D01*
X467114Y450857D01*
X466790Y451320D01*
X466466Y451875D01*
X466189Y452477D01*
X465633Y453773D01*
X465448Y454467D01*
X465263Y455254D01*
X465170Y456041D01*
X465124Y456827D01*
Y456874D01*
Y456920D01*
Y457059D01*
X465170Y457198D01*
Y457429D01*
X465217Y457707D01*
X465263Y458031D01*
X465309Y458401D01*
X465402Y458817D01*
X465494Y459280D01*
X465633Y459789D01*
X465772Y460391D01*
X465957Y460992D01*
X466189Y461687D01*
X466420Y462427D01*
X466698Y463214D01*
X471649Y476866D01*
X479378Y474136D01*
D02*
G37*
G36*
X386682Y476727D02*
X387006Y476681D01*
X387376Y476635D01*
X388301Y476450D01*
X389319Y476172D01*
X390384Y475755D01*
X390893Y475478D01*
X391448Y475154D01*
X391957Y474737D01*
X392420Y474321D01*
X392466Y474274D01*
X392513Y474228D01*
X392651Y474089D01*
X392790Y473904D01*
X393022Y473627D01*
X393207Y473349D01*
X393438Y473025D01*
X393670Y472655D01*
X394132Y471729D01*
X394549Y470711D01*
X394827Y469462D01*
X394873Y468814D01*
X394919Y468119D01*
Y468073D01*
Y468027D01*
Y467888D01*
X394873Y467703D01*
X394827Y467194D01*
X394734Y466592D01*
X394503Y465852D01*
X394225Y465065D01*
X393855Y464278D01*
X393299Y463445D01*
X393392Y463353D01*
X393623Y463121D01*
X393901Y462751D01*
X394318Y462288D01*
X394734Y461733D01*
X395150Y461178D01*
X395521Y460530D01*
X395845Y459928D01*
X395891Y459836D01*
X395937Y459650D01*
X396076Y459326D01*
X396215Y458864D01*
X396307Y458308D01*
X396446Y457660D01*
X396493Y456920D01*
X396539Y456087D01*
Y456041D01*
Y455902D01*
Y455670D01*
X396493Y455346D01*
X396446Y454976D01*
X396400Y454560D01*
X396307Y454051D01*
X396169Y453542D01*
X395798Y452385D01*
X395567Y451783D01*
X395289Y451135D01*
X394919Y450533D01*
X394503Y449932D01*
X394040Y449330D01*
X393531Y448775D01*
X393484Y448729D01*
X393392Y448636D01*
X393207Y448497D01*
X392975Y448312D01*
X392698Y448081D01*
X392327Y447849D01*
X391957Y447572D01*
X391494Y447340D01*
X390939Y447062D01*
X390384Y446785D01*
X389782Y446553D01*
X389134Y446322D01*
X388440Y446137D01*
X387700Y445998D01*
X386913Y445906D01*
X386080Y445859D01*
X385663D01*
X385339Y445906D01*
X384969Y445952D01*
X384506Y445998D01*
X383997Y446091D01*
X383442Y446230D01*
X382285Y446553D01*
X381637Y446831D01*
X381035Y447109D01*
X380388Y447433D01*
X379786Y447803D01*
X379184Y448266D01*
X378583Y448775D01*
X378536Y448821D01*
X378444Y448914D01*
X378305Y449053D01*
X378120Y449284D01*
X377889Y449608D01*
X377657Y449932D01*
X377379Y450348D01*
X377102Y450765D01*
X376824Y451274D01*
X376547Y451829D01*
X376315Y452431D01*
X376084Y453079D01*
X375899Y453773D01*
X375760Y454513D01*
X375667Y455300D01*
X375621Y456087D01*
Y456133D01*
Y456180D01*
Y456457D01*
X375667Y456874D01*
X375713Y457383D01*
X375806Y457984D01*
X375899Y458632D01*
X376084Y459280D01*
X376315Y459928D01*
X376361Y460021D01*
X376454Y460206D01*
X376639Y460576D01*
X376917Y460992D01*
X377241Y461502D01*
X377703Y462103D01*
X378213Y462751D01*
X378814Y463445D01*
Y463492D01*
X378768Y463538D01*
X378583Y463815D01*
X378305Y464278D01*
X378027Y464834D01*
X377750Y465528D01*
X377472Y466315D01*
X377287Y467240D01*
X377241Y468166D01*
Y468212D01*
Y468351D01*
Y468536D01*
X377287Y468767D01*
X377333Y469091D01*
X377379Y469462D01*
X377565Y470341D01*
X377842Y471313D01*
X378259Y472331D01*
X378536Y472840D01*
X378907Y473349D01*
X379277Y473858D01*
X379693Y474321D01*
X379740Y474367D01*
X379832Y474413D01*
X379971Y474552D01*
X380156Y474691D01*
X380388Y474876D01*
X380665Y475107D01*
X381035Y475339D01*
X381406Y475570D01*
X382331Y475987D01*
X383442Y476403D01*
X384645Y476681D01*
X385339Y476727D01*
X386034Y476773D01*
X386404D01*
X386682Y476727D01*
D02*
G37*
G36*
X428610Y441000D02*
X424676D01*
X432729Y476033D01*
X436663D01*
X428610Y441000D01*
D02*
G37*
%LPC*%
G36*
X419329Y340783D02*
X417964Y336780D01*
X420556D01*
X419329Y340783D01*
D02*
G37*
G36*
X438852Y425057D02*
X438621D01*
X438436Y425011D01*
X437973Y424964D01*
X437417Y424826D01*
X436769Y424594D01*
X436075Y424270D01*
X435381Y423807D01*
X434687Y423206D01*
X434594Y423113D01*
X434409Y422882D01*
X434132Y422511D01*
X433854Y422002D01*
X433530Y421355D01*
X433252Y420614D01*
X433067Y419781D01*
X432975Y418856D01*
Y418809D01*
Y418763D01*
Y418624D01*
X433021Y418439D01*
X433067Y417930D01*
X433206Y417328D01*
X433391Y416634D01*
X433715Y415894D01*
X434132Y415153D01*
X434687Y414459D01*
X434780Y414366D01*
X435011Y414181D01*
X435381Y413904D01*
X435890Y413580D01*
X436492Y413209D01*
X437186Y412932D01*
X437973Y412747D01*
X438852Y412654D01*
X439084D01*
X439269Y412700D01*
X439731Y412747D01*
X440287Y412886D01*
X440935Y413117D01*
X441629Y413395D01*
X442369Y413857D01*
X443017Y414459D01*
X443110Y414552D01*
X443295Y414783D01*
X443573Y415153D01*
X443896Y415709D01*
X444220Y416310D01*
X444498Y417097D01*
X444683Y417930D01*
X444776Y418856D01*
Y418902D01*
Y418994D01*
Y419087D01*
X444729Y419272D01*
X444683Y419781D01*
X444544Y420383D01*
X444359Y421077D01*
X444035Y421817D01*
X443619Y422558D01*
X443017Y423252D01*
X442925Y423344D01*
X442693Y423530D01*
X442369Y423807D01*
X441860Y424178D01*
X441259Y424501D01*
X440518Y424779D01*
X439731Y424964D01*
X438852Y425057D01*
D02*
G37*
G36*
X382762D02*
X382531D01*
X382346Y425011D01*
X381883Y424964D01*
X381328Y424826D01*
X380680Y424594D01*
X379985Y424270D01*
X379291Y423807D01*
X378597Y423206D01*
X378504Y423113D01*
X378319Y422882D01*
X378042Y422511D01*
X377764Y422002D01*
X377440Y421355D01*
X377162Y420614D01*
X376977Y419781D01*
X376885Y418856D01*
Y418809D01*
Y418763D01*
Y418624D01*
X376931Y418439D01*
X376977Y417930D01*
X377116Y417328D01*
X377301Y416634D01*
X377625Y415894D01*
X378042Y415153D01*
X378597Y414459D01*
X378690Y414366D01*
X378921Y414181D01*
X379291Y413904D01*
X379800Y413580D01*
X380402Y413209D01*
X381096Y412932D01*
X381883Y412747D01*
X382762Y412654D01*
X382994D01*
X383179Y412700D01*
X383642Y412747D01*
X384197Y412886D01*
X384845Y413117D01*
X385539Y413395D01*
X386279Y413857D01*
X386927Y414459D01*
X387020Y414552D01*
X387205Y414783D01*
X387483Y415153D01*
X387807Y415709D01*
X388130Y416310D01*
X388408Y417097D01*
X388593Y417930D01*
X388686Y418856D01*
Y418902D01*
Y418994D01*
Y419087D01*
X388640Y419272D01*
X388593Y419781D01*
X388455Y420383D01*
X388269Y421077D01*
X387945Y421817D01*
X387529Y422558D01*
X386927Y423252D01*
X386835Y423344D01*
X386603Y423530D01*
X386279Y423807D01*
X385770Y424178D01*
X385169Y424501D01*
X384428Y424779D01*
X383642Y424964D01*
X382762Y425057D01*
D02*
G37*
G36*
X385941Y470480D02*
X385802D01*
X385617Y470433D01*
X385386Y470387D01*
X385108Y470294D01*
X384830Y470156D01*
X384553Y469971D01*
X384275Y469739D01*
X384229Y469693D01*
X384183Y469600D01*
X384044Y469462D01*
X383951Y469276D01*
X383673Y468721D01*
X383627Y468397D01*
X383581Y468073D01*
Y468027D01*
Y467888D01*
X383627Y467703D01*
X383673Y467425D01*
X383766Y467147D01*
X383858Y466824D01*
X384044Y466500D01*
X384275Y466222D01*
X384321Y466176D01*
X384414Y466129D01*
X384553Y465991D01*
X384738Y465898D01*
X385015Y465759D01*
X385293Y465620D01*
X385663Y465574D01*
X386034Y465528D01*
X386219D01*
X386358Y465574D01*
X386589Y465620D01*
X386867Y465713D01*
X387144Y465852D01*
X387422Y466037D01*
X387700Y466268D01*
X387746Y466315D01*
X387839Y466407D01*
X387931Y466546D01*
X388070Y466777D01*
X388348Y467286D01*
X388394Y467610D01*
X388440Y467980D01*
Y468027D01*
Y468166D01*
X388394Y468351D01*
X388348Y468582D01*
X388255Y468860D01*
X388116Y469184D01*
X387931Y469462D01*
X387700Y469739D01*
X387653Y469785D01*
X387561Y469878D01*
X387422Y469971D01*
X387237Y470109D01*
X386959Y470248D01*
X386682Y470387D01*
X386311Y470433D01*
X385941Y470480D01*
D02*
G37*
G36*
X386034Y459465D02*
X385802D01*
X385525Y459419D01*
X385154Y459326D01*
X384784Y459188D01*
X384321Y459002D01*
X383905Y458771D01*
X383488Y458401D01*
X383442Y458355D01*
X383349Y458216D01*
X383164Y457984D01*
X382979Y457707D01*
X382794Y457336D01*
X382609Y456920D01*
X382516Y456457D01*
X382470Y455948D01*
Y455902D01*
Y455670D01*
X382516Y455393D01*
X382609Y455023D01*
X382701Y454606D01*
X382887Y454189D01*
X383118Y453727D01*
X383442Y453310D01*
X383488Y453264D01*
X383627Y453171D01*
X383858Y452986D01*
X384136Y452801D01*
X384506Y452616D01*
X384969Y452431D01*
X385478Y452338D01*
X386034Y452292D01*
X386311D01*
X386589Y452338D01*
X386913Y452431D01*
X387329Y452523D01*
X387746Y452709D01*
X388162Y452986D01*
X388579Y453310D01*
X388625Y453356D01*
X388718Y453495D01*
X388903Y453727D01*
X389088Y454051D01*
X389273Y454421D01*
X389458Y454884D01*
X389551Y455393D01*
X389597Y455948D01*
Y455994D01*
Y456180D01*
X389551Y456457D01*
X389458Y456781D01*
X389319Y457198D01*
X389134Y457568D01*
X388903Y457984D01*
X388533Y458401D01*
X388486Y458447D01*
X388348Y458586D01*
X388116Y458725D01*
X387839Y458956D01*
X387468Y459141D01*
X387052Y459280D01*
X386543Y459419D01*
X386034Y459465D01*
D02*
G37*
%LPD*%
D10*
X193414Y259000D02*
G03*
X193414Y259000I-1414J0D01*
G01*
X643000Y396000D02*
X659000D01*
Y404000D01*
X643000Y396000D02*
X646000Y393000D01*
Y399000D01*
X643000Y396000D02*
X646000Y399000D01*
X669000Y272000D02*
Y292000D01*
X619000Y252000D02*
X659000D01*
X619000Y312000D02*
X659000D01*
X609000Y272000D02*
Y292000D01*
X213500Y20500D02*
X233500D01*
X193500Y30500D02*
Y70500D01*
X253500Y30500D02*
Y70500D01*
X213500Y80500D02*
X233500D01*
X264160Y12700D02*
Y38100D01*
X469900D01*
Y12700D02*
Y38100D01*
X264160Y12700D02*
X469900D01*
X444500Y520700D02*
X650240D01*
X444500Y495300D02*
Y520700D01*
Y495300D02*
X650240D01*
Y520700D01*
X429260Y495300D02*
Y520700D01*
X177800Y495300D02*
X429260D01*
X177800D02*
Y520700D01*
X429260D01*
X103760Y70300D02*
X184000D01*
X103760Y95700D02*
X184000D01*
X103760Y70300D02*
Y95700D01*
X184000Y70300D02*
Y95700D01*
X132300Y355000D02*
Y460240D01*
Y355000D02*
X157700D01*
Y460240D01*
X132300D02*
X157700D01*
X647300Y405000D02*
Y485240D01*
X672700Y405000D02*
Y485240D01*
X647300D02*
X672700D01*
X647300Y405000D02*
X672700D01*
X-39000Y261000D02*
X-25000D01*
X-40000Y190000D02*
X-30000D01*
X-39000Y111000D02*
X-25000D01*
Y261000D01*
X-9000Y148000D02*
X7000D01*
X-9000D02*
Y226000D01*
X7000D01*
X30000Y148000D02*
X33000D01*
X30000Y226000D02*
X33000D01*
X47000Y167000D02*
Y169000D01*
Y205000D02*
Y207000D01*
X12700Y303530D02*
Y351790D01*
X492760Y12700D02*
X647700D01*
Y38100D01*
X492760D02*
X647700D01*
X492760Y12700D02*
Y38100D01*
X140000Y125000D02*
Y163000D01*
X154000D01*
X210000Y125000D02*
Y163000D01*
X196000D02*
X210000D01*
X140000Y125000D02*
X144000D01*
X206000D02*
X210000D01*
X186000Y341000D02*
X192000D01*
Y335000D02*
Y341000D01*
X110000Y261000D02*
Y266000D01*
Y261000D02*
X115000D01*
X186000Y260000D02*
X191000Y265000D01*
X109000Y334000D02*
Y340000D01*
X115000D01*
X173000Y453000D02*
X191000D01*
X173000Y421000D02*
X191000D01*
Y434000D02*
Y440000D01*
X55500Y258500D02*
X61500D01*
X74500Y240500D02*
Y258500D01*
X42500Y240500D02*
Y258500D01*
X681000Y136000D02*
Y154000D01*
X649000Y136000D02*
Y154000D01*
X662000Y136000D02*
X668000D01*
X244500Y145500D02*
Y151500D01*
X226500Y132500D02*
X244500D01*
X226500Y164500D02*
X244500D01*
X44000Y143000D02*
X60000D01*
X82000D02*
X98000D01*
X82000Y89000D02*
X88000D01*
X98000Y99000D01*
Y143000D01*
X44000Y100000D02*
Y143000D01*
Y100000D02*
X55000Y89000D01*
X60000D01*
X44000Y68500D02*
X60000D01*
X82000D02*
X98000D01*
X82000Y14500D02*
X88000D01*
X98000Y24500D01*
Y68500D01*
X44000Y25500D02*
Y68500D01*
Y25500D02*
X55000Y14500D01*
X60000D01*
D11*
X620020Y173890D02*
G03*
X620020Y161390I0J-6250D01*
G01*
X167000Y500000D02*
G03*
X167000Y500000I-37000J0D01*
G01*
X16000Y255808D02*
Y293808D01*
X2000Y255808D02*
X16000D01*
X2000D02*
Y292808D01*
X593000Y250000D02*
Y287000D01*
X579000D02*
X593000D01*
X579000Y249000D02*
Y287000D01*
X63500Y303530D02*
Y334010D01*
Y321310D02*
Y351790D01*
X12700D02*
X63500D01*
X12700Y303530D02*
X63500D01*
X12900Y389350D02*
Y419830D01*
Y371570D02*
Y402050D01*
Y371570D02*
X89100D01*
Y419830D01*
X12900D02*
X89100D01*
X12700Y509270D02*
X88900D01*
Y461010D02*
Y509270D01*
X12700Y461010D02*
X88900D01*
X12700D02*
Y491490D01*
Y478790D02*
Y509270D01*
X264840Y41220D02*
Y76780D01*
Y41220D02*
X285160D01*
Y76780D01*
X264840D02*
X285160D01*
X166300Y270850D02*
X179150Y283700D01*
X120850Y270850D02*
X166300D01*
X120850D02*
Y329150D01*
X179150D01*
Y283700D02*
Y329150D01*
X159840Y208720D02*
X180160D01*
X159840D02*
Y244280D01*
X180160D01*
Y208720D02*
Y244280D01*
X205740Y327660D02*
X226060D01*
Y292100D02*
Y327660D01*
X205740Y292100D02*
X226060D01*
X205740D02*
Y327660D01*
X184840Y208720D02*
X205160D01*
X184840D02*
Y244280D01*
X205160D01*
Y208720D02*
Y244280D01*
X209840Y167720D02*
X230160D01*
X209840D02*
Y203280D01*
X230160D01*
Y167720D02*
Y203280D01*
X264020Y115640D02*
Y219640D01*
X620020Y173890D02*
Y219640D01*
X264020D02*
X620020D01*
X264020Y115640D02*
X619270D01*
X619707Y116077D01*
X620020Y116390D02*
Y161390D01*
X619707Y116077D02*
X620020Y116390D01*
X40000Y43000D02*
Y101000D01*
X6000Y43000D02*
X40000D01*
X6000D02*
Y101000D01*
X40000D01*
X575000Y364000D02*
Y378000D01*
X608000Y364000D02*
Y378000D01*
X578000D02*
X608000D01*
X578000Y364000D02*
X608000D01*
X578000D02*
Y378000D01*
X575000D02*
X578000D01*
X575000Y364000D02*
X578000D01*
X227000Y418000D02*
Y432000D01*
X260000Y418000D02*
Y432000D01*
X230000D02*
X260000D01*
X230000Y418000D02*
X260000D01*
X230000D02*
Y432000D01*
X227000D02*
X230000D01*
X227000Y418000D02*
X230000D01*
X226000Y391000D02*
Y405000D01*
X259000Y391000D02*
Y405000D01*
X229000D02*
X259000D01*
X229000Y391000D02*
X259000D01*
X229000D02*
Y405000D01*
X226000D02*
X229000D01*
X226000Y391000D02*
X229000D01*
X226000Y374000D02*
Y388000D01*
X259000Y374000D02*
Y388000D01*
X229000D02*
X259000D01*
X229000Y374000D02*
X259000D01*
X229000D02*
Y388000D01*
X226000D02*
X229000D01*
X226000Y374000D02*
X229000D01*
X184160Y379220D02*
Y414780D01*
X163840Y379220D02*
Y414780D01*
X184160D01*
X163840Y379220D02*
X184160D01*
X264220Y407840D02*
X299780D01*
X264220Y428160D02*
X299780D01*
Y407840D02*
Y428160D01*
X264220Y407840D02*
Y428160D01*
Y384840D02*
X299780D01*
X264220Y405160D02*
X299780D01*
Y384840D02*
Y405160D01*
X264220Y384840D02*
Y405160D01*
X72720Y368160D02*
X108280D01*
X72720Y347840D02*
X108280D01*
X72720D02*
Y368160D01*
X108280Y347840D02*
Y368160D01*
X78720Y202840D02*
X114280D01*
X78720Y223160D02*
X114280D01*
Y202840D02*
Y223160D01*
X78720Y202840D02*
Y223160D01*
X79220Y178840D02*
X114780D01*
X79220Y199160D02*
X114780D01*
Y178840D02*
Y199160D01*
X79220Y178840D02*
Y199160D01*
Y154840D02*
X114780D01*
X79220Y175160D02*
X114780D01*
Y154840D02*
Y175160D01*
X79220Y154840D02*
Y175160D01*
X226060Y251460D02*
Y287020D01*
X205740Y251460D02*
Y287020D01*
X226060D01*
X205740Y251460D02*
X226060D01*
X618160Y448220D02*
Y483780D01*
X597840Y448220D02*
Y483780D01*
X618160D01*
X597840Y448220D02*
X618160D01*
X594160D02*
Y483780D01*
X573840Y448220D02*
Y483780D01*
X594160D01*
X573840Y448220D02*
X594160D01*
X642160Y403720D02*
Y439280D01*
X621840Y403720D02*
Y439280D01*
X642160D01*
X621840Y403720D02*
X642160D01*
X342220Y112160D02*
X377780D01*
X342220Y91840D02*
X377780D01*
X342220D02*
Y112160D01*
X377780Y91840D02*
Y112160D01*
X225720Y455160D02*
X261280D01*
X225720Y434840D02*
X261280D01*
X225720D02*
Y455160D01*
X261280Y434840D02*
Y455160D01*
X379720Y244160D02*
X415280D01*
X379720Y223840D02*
X415280D01*
X379720D02*
Y244160D01*
X415280Y223840D02*
Y244160D01*
X573720Y362160D02*
X609280D01*
X573720Y341840D02*
X609280D01*
X573720D02*
Y362160D01*
X609280Y341840D02*
Y362160D01*
X307160Y225720D02*
Y261280D01*
X286840Y225720D02*
Y261280D01*
X307160D01*
X286840Y225720D02*
X307160D01*
X2720Y229840D02*
X38280D01*
X2720Y250160D02*
X38280D01*
Y229840D02*
Y250160D01*
X2720Y229840D02*
Y250160D01*
X628840Y209220D02*
Y244780D01*
X649160Y209220D02*
Y244780D01*
X628840Y209220D02*
X649160D01*
X628840Y244780D02*
X649160D01*
X264720Y100160D02*
X300280D01*
X264720Y79840D02*
X300280D01*
X264720D02*
Y100160D01*
X300280Y79840D02*
Y100160D01*
X117720Y202840D02*
X153280D01*
X117720Y223160D02*
X153280D01*
Y202840D02*
Y223160D01*
X117720Y202840D02*
Y223160D01*
X318840Y58720D02*
Y94280D01*
X339160Y58720D02*
Y94280D01*
X318840Y58720D02*
X339160D01*
X318840Y94280D02*
X339160D01*
X318840Y39720D02*
Y75280D01*
X339160Y39720D02*
Y75280D01*
X318840Y39720D02*
X339160D01*
X318840Y75280D02*
X339160D01*
X60000Y191500D02*
Y219500D01*
Y191500D02*
X76000D01*
Y219500D01*
X60000D02*
X76000D01*
Y160500D02*
Y188500D01*
X60000D02*
X76000D01*
X60000Y160500D02*
Y188500D01*
Y160500D02*
X76000D01*
X375000Y311000D02*
X457000D01*
X375000Y271000D02*
Y311000D01*
Y271000D02*
X457000D01*
Y311000D01*
X268920Y251100D02*
Y333100D01*
X228920D02*
X268920D01*
X228920Y251100D02*
Y333100D01*
Y251100D02*
X268920D01*
X209840Y208720D02*
X230160D01*
X209840D02*
Y244280D01*
X230160D01*
Y208720D02*
Y244280D01*
X152780Y226840D02*
Y247160D01*
X117220Y226840D02*
X152780D01*
X117220D02*
Y247160D01*
X152780D01*
X12840Y458280D02*
X33160D01*
Y422720D02*
Y458280D01*
X12840Y422720D02*
X33160D01*
X12840D02*
Y458280D01*
X269240Y335280D02*
Y355600D01*
X233680Y335280D02*
X269240D01*
X233680D02*
Y355600D01*
X269240D01*
Y228600D02*
Y248920D01*
X233680Y228600D02*
X269240D01*
X233680D02*
Y248920D01*
X269240D01*
X621840Y447720D02*
X642160D01*
X621840D02*
Y483280D01*
X642160D01*
Y447720D02*
Y483280D01*
X115840Y138280D02*
X136160D01*
Y102720D02*
Y138280D01*
X115840Y102720D02*
X136160D01*
X115840D02*
Y138280D01*
X214840Y130280D02*
X235160D01*
Y94720D02*
Y130280D01*
X214840Y94720D02*
X235160D01*
X214840D02*
Y130280D01*
X417780Y43840D02*
Y64160D01*
X382220Y43840D02*
X417780D01*
X382220D02*
Y64160D01*
X417780D01*
X293840Y76780D02*
X314160D01*
Y41220D02*
Y76780D01*
X293840Y41220D02*
X314160D01*
X293840D02*
Y76780D01*
X343840D02*
X364160D01*
Y41220D02*
Y76780D01*
X343840Y41220D02*
X364160D01*
X343840D02*
Y76780D01*
X48780Y511840D02*
Y532160D01*
X13220Y511840D02*
X48780D01*
X13220D02*
Y532160D01*
X48780D01*
X446220Y66840D02*
Y87160D01*
X481780D01*
Y66840D02*
Y87160D01*
X446220Y66840D02*
X481780D01*
X418720Y223840D02*
Y244160D01*
X454280D01*
Y223840D02*
Y244160D01*
X418720Y223840D02*
X454280D01*
X270780Y471840D02*
Y492160D01*
X235220Y471840D02*
X270780D01*
X235220D02*
Y492160D01*
X270780D01*
X382220Y67840D02*
Y88160D01*
X417780D01*
Y67840D02*
Y88160D01*
X382220Y67840D02*
X417780D01*
X381720Y91840D02*
Y112160D01*
X417280D01*
Y91840D02*
Y112160D01*
X381720Y91840D02*
X417280D01*
X456780D02*
Y112160D01*
X421220Y91840D02*
X456780D01*
X421220D02*
Y112160D01*
X456780D01*
X379720Y246840D02*
Y267160D01*
X415280D01*
Y246840D02*
Y267160D01*
X379720Y246840D02*
X415280D01*
X202840Y419220D02*
X223160D01*
X202840D02*
Y454780D01*
X223160D01*
Y419220D02*
Y454780D01*
X454280Y246840D02*
Y267160D01*
X418720Y246840D02*
X454280D01*
X418720D02*
Y267160D01*
X454280D01*
X625840Y161780D02*
X646160D01*
Y126220D02*
Y161780D01*
X625840Y126220D02*
X646160D01*
X625840D02*
Y161780D01*
X232840Y203280D02*
X253160D01*
Y167720D02*
Y203280D01*
X232840Y167720D02*
X253160D01*
X232840D02*
Y203280D01*
X76280Y273840D02*
Y294160D01*
X40720Y273840D02*
X76280D01*
X40720D02*
Y294160D01*
X76280D01*
X114280Y226840D02*
Y247160D01*
X78720Y226840D02*
X114280D01*
X78720D02*
Y247160D01*
X114280D01*
X628840Y169720D02*
X649160D01*
X628840D02*
Y205280D01*
X649160D01*
Y169720D02*
Y205280D01*
X237840Y130280D02*
X258160D01*
Y94720D02*
Y130280D01*
X237840Y94720D02*
X258160D01*
X237840D02*
Y130280D01*
X608780Y318840D02*
Y339160D01*
X573220Y318840D02*
X608780D01*
X573220D02*
Y339160D01*
X608780D01*
X446220Y42840D02*
Y63160D01*
X481780D01*
Y42840D02*
Y63160D01*
X446220Y42840D02*
X481780D01*
X421840Y52220D02*
X442160D01*
X421840D02*
Y87780D01*
X442160D01*
Y52220D02*
Y87780D01*
X77840Y285280D02*
X98160D01*
Y249720D02*
Y285280D01*
X77840Y249720D02*
X98160D01*
X77840D02*
Y285280D01*
X619280Y223840D02*
Y244160D01*
X583720Y223840D02*
X619280D01*
X583720D02*
Y244160D01*
X619280D01*
X654840Y169720D02*
X675160D01*
X654840D02*
Y205280D01*
X675160D01*
Y169720D02*
Y205280D01*
X17840Y256720D02*
X38160D01*
X17840D02*
Y292280D01*
X38160D01*
Y256720D02*
Y292280D01*
X654840Y245280D02*
X675160D01*
Y209720D02*
Y245280D01*
X654840Y209720D02*
X675160D01*
X654840D02*
Y245280D01*
X212000Y375000D02*
Y384997D01*
X216998D01*
X218664Y383331D01*
Y379998D01*
X216998Y378332D01*
X212000D01*
X215332D02*
X218664Y375000D01*
X213000Y402997D02*
X219664D01*
X216332D01*
Y393000D01*
X611000Y101664D02*
Y95000D01*
X604336Y101664D01*
X602669D01*
X601003Y99998D01*
Y96666D01*
X602669Y95000D01*
Y104997D02*
X601003Y106663D01*
Y109995D01*
X602669Y111661D01*
X604336D01*
X606002Y109995D01*
X607668Y111661D01*
X609334D01*
X611000Y109995D01*
Y106663D01*
X609334Y104997D01*
X607668D01*
X606002Y106663D01*
X604336Y104997D01*
X602669D01*
X606002Y106663D02*
Y109995D01*
X535000Y101664D02*
Y95000D01*
X528335Y101664D01*
X526669D01*
X525003Y99998D01*
Y96666D01*
X526669Y95000D01*
X525003Y111661D02*
Y104997D01*
X530002D01*
X528335Y108329D01*
Y109995D01*
X530002Y111661D01*
X533334D01*
X535000Y109995D01*
Y106663D01*
X533334Y104997D01*
X314000Y96000D02*
Y99332D01*
Y97666D01*
X304003D01*
X305669Y96000D01*
X304003Y110995D02*
X305669Y107663D01*
X309002Y104331D01*
X312334D01*
X314000Y105997D01*
Y109329D01*
X312334Y110995D01*
X310668D01*
X309002Y109329D01*
Y104331D01*
X283000Y223000D02*
Y226332D01*
Y224666D01*
X273003D01*
X274669Y223000D01*
X283000Y236329D02*
X273003D01*
X278002Y231331D01*
Y237995D01*
X375000Y223000D02*
Y226332D01*
Y224666D01*
X365003D01*
X366669Y223000D01*
Y231331D02*
X365003Y232997D01*
Y236329D01*
X366669Y237995D01*
X373334D01*
X375000Y236329D01*
Y232997D01*
X373334Y231331D01*
X366669D01*
X500003Y230665D02*
Y224000D01*
X505002D01*
X503335Y227332D01*
Y228998D01*
X505002Y230665D01*
X508334D01*
X510000Y228998D01*
Y225666D01*
X508334Y224000D01*
X67000Y309335D02*
Y316000D01*
X73664Y309335D01*
X75331D01*
X76997Y311002D01*
Y314334D01*
X75331Y316000D01*
X22000Y363331D02*
X23666Y364997D01*
X26998D01*
X28665Y363331D01*
Y361665D01*
X26998Y359998D01*
X25332D01*
X26998D01*
X28665Y358332D01*
Y356666D01*
X26998Y355000D01*
X23666D01*
X22000Y356666D01*
X48000Y432997D02*
X51332D01*
X49666D01*
Y423000D01*
X48000D01*
X51332D01*
X62995Y431331D02*
X61329Y432997D01*
X57997D01*
X56331Y431331D01*
Y424666D01*
X57997Y423000D01*
X61329D01*
X62995Y424666D01*
X72992Y431331D02*
X71326Y432997D01*
X67994D01*
X66327Y431331D01*
Y429664D01*
X67994Y427998D01*
X71326D01*
X72992Y426332D01*
Y424666D01*
X71326Y423000D01*
X67994D01*
X66327Y424666D01*
X76324Y423000D02*
Y432997D01*
X81323D01*
X82989Y431331D01*
Y427998D01*
X81323Y426332D01*
X76324D01*
X86321Y423000D02*
X89653D01*
X87987D01*
Y432997D01*
X86321Y431331D01*
X57000Y522997D02*
X60332D01*
X58666D01*
Y513000D01*
X57000D01*
X60332D01*
X71995Y521331D02*
X70329Y522997D01*
X66997D01*
X65331Y521331D01*
Y514666D01*
X66997Y513000D01*
X70329D01*
X71995Y514666D01*
X81992Y521331D02*
X80326Y522997D01*
X76993D01*
X75327Y521331D01*
Y519664D01*
X76993Y517998D01*
X80326D01*
X81992Y516332D01*
Y514666D01*
X80326Y513000D01*
X76993D01*
X75327Y514666D01*
X85324Y513000D02*
Y522997D01*
X90323D01*
X91989Y521331D01*
Y517998D01*
X90323Y516332D01*
X85324D01*
X179003Y27000D02*
X187334D01*
X189000Y28666D01*
Y31998D01*
X187334Y33665D01*
X179003D01*
X180669Y43661D02*
X179003Y41995D01*
Y38663D01*
X180669Y36997D01*
X182335D01*
X184002Y38663D01*
Y41995D01*
X185668Y43661D01*
X187334D01*
X189000Y41995D01*
Y38663D01*
X187334Y36997D01*
X179003Y53658D02*
Y46993D01*
X189000D01*
Y53658D01*
X184002Y46993D02*
Y50326D01*
X189000Y56990D02*
X179003D01*
Y61989D01*
X180669Y63655D01*
X184002D01*
X185668Y61989D01*
Y56990D01*
Y60323D02*
X189000Y63655D01*
X573000Y254000D02*
X563003D01*
Y258998D01*
X564669Y260665D01*
X568002D01*
X569668Y258998D01*
Y254000D01*
Y257332D02*
X573000Y260665D01*
X563003Y270661D02*
Y263997D01*
X573000D01*
Y270661D01*
X568002Y263997D02*
Y267329D01*
X564669Y280658D02*
X563003Y278992D01*
Y275660D01*
X564669Y273993D01*
X566335D01*
X568002Y275660D01*
Y278992D01*
X569668Y280658D01*
X571334D01*
X573000Y278992D01*
Y275660D01*
X571334Y273993D01*
X563003Y290655D02*
Y283990D01*
X573000D01*
Y290655D01*
X568002Y283990D02*
Y287323D01*
X563003Y293987D02*
Y300652D01*
Y297319D01*
X573000D01*
X67000Y344000D02*
Y340668D01*
Y342334D01*
X76997D01*
X75331Y344000D01*
X102002Y106335D02*
Y103003D01*
Y104669D01*
X110332D01*
X111998Y103003D01*
Y101337D01*
X110332Y99671D01*
X111998Y109668D02*
X102002D01*
Y114666D01*
X103668Y116332D01*
X107000D01*
X108666Y114666D01*
Y109668D01*
X111998Y124663D02*
X102002D01*
X107000Y119664D01*
Y126329D01*
X168335Y370998D02*
X165003D01*
X166669D01*
Y362668D01*
X165003Y361002D01*
X163337D01*
X161671Y362668D01*
X171668Y361002D02*
Y370998D01*
X176666D01*
X178332Y369332D01*
Y366000D01*
X176666Y364334D01*
X171668D01*
X181665Y369332D02*
X183331Y370998D01*
X186663D01*
X188329Y369332D01*
Y367666D01*
X186663Y366000D01*
X184997D01*
X186663D01*
X188329Y364334D01*
Y362668D01*
X186663Y361002D01*
X183331D01*
X181665Y362668D01*
X73335Y335998D02*
X70003D01*
X71669D01*
Y327668D01*
X70003Y326002D01*
X68337D01*
X66671Y327668D01*
X76668Y326002D02*
Y335998D01*
X81666D01*
X83332Y334332D01*
Y331000D01*
X81666Y329334D01*
X76668D01*
X93329Y326002D02*
X86664D01*
X93329Y332666D01*
Y334332D01*
X91663Y335998D01*
X88331D01*
X86664Y334332D01*
X623002Y399998D02*
X619669D01*
X621335D01*
Y391668D01*
X619669Y390002D01*
X618003D01*
X616337Y391668D01*
X626334Y390002D02*
Y399998D01*
X631332D01*
X632998Y398332D01*
Y395000D01*
X631332Y393334D01*
X626334D01*
X636331Y390002D02*
X639663D01*
X637997D01*
Y399998D01*
X636331Y398332D01*
X52501Y151834D02*
Y149501D01*
Y150667D01*
X58333D01*
X59499Y149501D01*
Y148335D01*
X58333Y147169D01*
X52501Y154166D02*
Y158832D01*
X53667D01*
X58333Y154166D01*
X59499D01*
X100334Y416998D02*
X97002D01*
X98668D01*
Y408668D01*
X97002Y407002D01*
X95336D01*
X93669Y408668D01*
X110331Y416998D02*
X106998Y415332D01*
X103666Y412000D01*
Y408668D01*
X105332Y407002D01*
X108665D01*
X110331Y408668D01*
Y410334D01*
X108665Y412000D01*
X103666D01*
X77334Y456998D02*
X74002D01*
X75668D01*
Y448668D01*
X74002Y447002D01*
X72336D01*
X70669Y448668D01*
X87331Y456998D02*
X80666D01*
Y452000D01*
X83998Y453666D01*
X85665D01*
X87331Y452000D01*
Y448668D01*
X85665Y447002D01*
X82332D01*
X80666Y448668D01*
X311334Y487998D02*
X308002D01*
X309668D01*
Y479668D01*
X308002Y478002D01*
X306336D01*
X304669Y479668D01*
X319664Y478002D02*
Y487998D01*
X314666Y483000D01*
X321331D01*
X545334Y488998D02*
X542002D01*
X543668D01*
Y480668D01*
X542002Y479002D01*
X540336D01*
X538669Y480668D01*
X548666Y487332D02*
X550332Y488998D01*
X553665D01*
X555331Y487332D01*
Y485666D01*
X553665Y484000D01*
X551998D01*
X553665D01*
X555331Y482334D01*
Y480668D01*
X553665Y479002D01*
X550332D01*
X548666Y480668D01*
X569334Y51998D02*
X566002D01*
X567668D01*
Y43668D01*
X566002Y42002D01*
X564336D01*
X562669Y43668D01*
X579331Y42002D02*
X572666D01*
X579331Y48666D01*
Y50332D01*
X577664Y51998D01*
X574332D01*
X572666Y50332D01*
X374000Y50499D02*
X371001D01*
X372500D01*
Y43001D01*
X371001Y41501D01*
X369501D01*
X368002Y43001D01*
X376999Y41501D02*
X379998D01*
X378498D01*
Y50499D01*
X376999Y48999D01*
D12*
X4000Y293808D02*
X14000D01*
X581000Y249000D02*
X591000D01*
D13*
X265000Y370329D02*
Y360332D01*
Y365331D01*
X266666Y366997D01*
X269998D01*
X271665Y365331D01*
Y360332D01*
X276663Y368663D02*
Y366997D01*
X274997D01*
X278329D01*
X276663D01*
Y361998D01*
X278329Y360332D01*
X284994Y368663D02*
Y366997D01*
X283327D01*
X286660D01*
X284994D01*
Y361998D01*
X286660Y360332D01*
X291658Y357000D02*
Y366997D01*
X296656D01*
X298323Y365331D01*
Y361998D01*
X296656Y360332D01*
X291658D01*
X301655D02*
X306653D01*
X308319Y361998D01*
X306653Y363665D01*
X303321D01*
X301655Y365331D01*
X303321Y366997D01*
X308319D01*
X311652D02*
X313318D01*
Y365331D01*
X311652D01*
Y366997D01*
Y361998D02*
X313318D01*
Y360332D01*
X311652D01*
Y361998D01*
X319982Y360332D02*
X326647Y366997D01*
X329979Y360332D02*
X336643Y366997D01*
X343308Y357000D02*
X344974D01*
X346640Y358666D01*
Y366997D01*
X341642D01*
X339976Y365331D01*
Y361998D01*
X341642Y360332D01*
X346640D01*
X349973D02*
X353305D01*
X351639D01*
Y366997D01*
X349973D01*
X359969Y368663D02*
Y366997D01*
X358303D01*
X361636D01*
X359969D01*
Y361998D01*
X361636Y360332D01*
X366634Y370329D02*
Y360332D01*
Y365331D01*
X368300Y366997D01*
X371632D01*
X373298Y365331D01*
Y360332D01*
X376631Y366997D02*
Y361998D01*
X378297Y360332D01*
X383295D01*
Y366997D01*
X386627Y370329D02*
Y360332D01*
X391626D01*
X393292Y361998D01*
Y363665D01*
Y365331D01*
X391626Y366997D01*
X386627D01*
X396624Y360332D02*
Y361998D01*
X398290D01*
Y360332D01*
X396624D01*
X411619Y366997D02*
X406621D01*
X404955Y365331D01*
Y361998D01*
X406621Y360332D01*
X411619D01*
X416618D02*
X419950D01*
X421616Y361998D01*
Y365331D01*
X419950Y366997D01*
X416618D01*
X414952Y365331D01*
Y361998D01*
X416618Y360332D01*
X424948D02*
Y366997D01*
X426615D01*
X428281Y365331D01*
Y360332D01*
Y365331D01*
X429947Y366997D01*
X431613Y365331D01*
Y360332D01*
X434945D02*
X441610Y366997D01*
X448274Y357000D02*
X449940D01*
X451606Y358666D01*
Y366997D01*
X446608D01*
X444942Y365331D01*
Y361998D01*
X446608Y360332D01*
X451606D01*
X456605D02*
X459937D01*
X461603Y361998D01*
Y365331D01*
X459937Y366997D01*
X456605D01*
X454939Y365331D01*
Y361998D01*
X456605Y360332D01*
X464935Y366997D02*
Y360332D01*
Y363665D01*
X466602Y365331D01*
X468268Y366997D01*
X469934D01*
X474932Y360332D02*
Y370329D01*
Y363665D02*
X479931Y366997D01*
X474932Y363665D02*
X479931Y360332D01*
X486595Y366997D02*
X489927D01*
X491594Y365331D01*
Y360332D01*
X486595D01*
X484929Y361998D01*
X486595Y363665D01*
X491594D01*
X498258Y357000D02*
X499924D01*
X501590Y358666D01*
Y366997D01*
X496592D01*
X494926Y365331D01*
Y361998D01*
X496592Y360332D01*
X501590D01*
X506589D02*
X509921D01*
X511587Y361998D01*
Y365331D01*
X509921Y366997D01*
X506589D01*
X504923Y365331D01*
Y361998D01*
X506589Y360332D01*
X514919D02*
Y366997D01*
X516586D01*
X518252Y365331D01*
Y360332D01*
Y365331D01*
X519918Y366997D01*
X521584Y365331D01*
Y360332D01*
X529915D02*
X526582D01*
X524916Y361998D01*
Y365331D01*
X526582Y366997D01*
X529915D01*
X531581Y365331D01*
Y363665D01*
X524916D01*
X534913Y360332D02*
Y366997D01*
X539911D01*
X541577Y365331D01*
Y360332D01*
X551574Y370329D02*
Y360332D01*
X546576D01*
X544910Y361998D01*
Y365331D01*
X546576Y366997D01*
X551574D01*
X554907Y360332D02*
X558239D01*
X556573D01*
Y366997D01*
X554907D01*
X564903Y360332D02*
X568236D01*
X569902Y361998D01*
Y365331D01*
X568236Y366997D01*
X564903D01*
X563237Y365331D01*
Y361998D01*
X564903Y360332D01*
X285290Y1730D02*
Y5062D01*
Y3396D01*
X275293D01*
X276959Y1730D01*
X629110Y531670D02*
Y528338D01*
Y530004D01*
X639107D01*
X637441Y531670D01*
X410670D02*
Y528338D01*
Y530004D01*
X420667D01*
X419001Y531670D01*
X115000Y63000D02*
Y66332D01*
Y64666D01*
X105003D01*
X106669Y63000D01*
X125000Y441000D02*
X128332D01*
X126666D01*
Y450997D01*
X125000Y449331D01*
X677000Y465000D02*
X680332D01*
X678666D01*
Y474997D01*
X677000Y473331D01*
X6000Y376000D02*
X9332D01*
X7666D01*
Y385997D01*
X6000Y384331D01*
X5000Y467000D02*
X8332D01*
X6666D01*
Y476997D01*
X5000Y475331D01*
X511000Y5000D02*
Y8332D01*
Y6666D01*
X501003D01*
X502669Y5000D01*
D14*
X394000Y376000D02*
Y383997D01*
X397999Y387996D01*
X401997Y383997D01*
Y376000D01*
Y381998D01*
X394000D01*
X405996Y387996D02*
Y376000D01*
X413993D01*
X417992Y387996D02*
X425990D01*
X421991D01*
Y376000D01*
X429988Y387996D02*
X433987D01*
X431988D01*
Y376000D01*
X429988D01*
X433987D01*
X439985Y387996D02*
Y377999D01*
X441984Y376000D01*
X445983D01*
X447982Y377999D01*
Y387996D01*
X451981Y376000D02*
Y387996D01*
X455980Y383997D01*
X459979Y387996D01*
Y376000D01*
X483971D02*
X475974D01*
X483971Y383997D01*
Y385997D01*
X481972Y387996D01*
X477973D01*
X475974Y385997D01*
X495967Y376000D02*
X487970D01*
X495967Y383997D01*
Y385997D01*
X493968Y387996D01*
X489969D01*
X487970Y385997D01*
M02*
