G04*
G04 #@! TF.GenerationSoftware,Altium Limited,Altium Designer,22.5.1 (42)*
G04*
G04 Layer_Physical_Order=2*
G04 Layer_Color=16711680*
%FSLAX44Y44*%
%MOMM*%
G71*
G04*
G04 #@! TF.SameCoordinates,090C5C53-F3BF-408C-A1E9-F483B87C40A9*
G04*
G04*
G04 #@! TF.FilePolarity,Positive*
G04*
G01*
G75*
%ADD12C,0.6000*%
%ADD13C,0.3000*%
%ADD14C,0.4000*%
%ADD16R,1.9000X1.9000*%
%ADD64R,1.9000X1.9000*%
%ADD65C,1.9000*%
%ADD69C,0.5000*%
%ADD73O,1.6000X2.0000*%
%ADD74R,1.6000X2.0000*%
%ADD75R,2.0000X1.6000*%
%ADD76O,2.0000X1.6000*%
%ADD77C,3.0000*%
G04:AMPARAMS|DCode=78|XSize=2mm|YSize=1.2mm|CornerRadius=0.36mm|HoleSize=0mm|Usage=FLASHONLY|Rotation=0.000|XOffset=0mm|YOffset=0mm|HoleType=Round|Shape=RoundedRectangle|*
%AMROUNDEDRECTD78*
21,1,2.0000,0.4800,0,0,0.0*
21,1,1.2800,1.2000,0,0,0.0*
1,1,0.7200,0.6400,-0.2400*
1,1,0.7200,-0.6400,-0.2400*
1,1,0.7200,-0.6400,0.2400*
1,1,0.7200,0.6400,0.2400*
%
%ADD78ROUNDEDRECTD78*%
%ADD79R,1.7000X1.7000*%
%ADD80C,1.7000*%
%ADD81C,3.2000*%
%ADD82C,7.4000*%
%ADD83C,0.6000*%
G36*
X280000Y529000D02*
Y477588D01*
X260197D01*
X243742Y494043D01*
X244150Y495246D01*
X244432Y495283D01*
X247108Y496391D01*
X249405Y498155D01*
X251168Y500452D01*
X252277Y503128D01*
X252655Y506000D01*
Y510000D01*
X252277Y512872D01*
X251168Y515547D01*
X249405Y517845D01*
X247108Y519608D01*
X244432Y520717D01*
X241560Y521095D01*
X238688Y520717D01*
X236012Y519608D01*
X234366Y518345D01*
X232814Y518512D01*
X232694Y518601D01*
X232304Y519184D01*
X226744Y524744D01*
X225256Y525739D01*
X223500Y526088D01*
X203060D01*
X201304Y525739D01*
X199816Y524744D01*
X195391Y520320D01*
X194432Y520717D01*
X191560Y521095D01*
X188688Y520717D01*
X186012Y519608D01*
X183715Y517845D01*
X181952Y515547D01*
X180843Y512872D01*
X180465Y510000D01*
Y506000D01*
X180843Y503128D01*
X181952Y500452D01*
X183715Y498155D01*
X186012Y496391D01*
X188688Y495283D01*
X191560Y494905D01*
X194432Y495283D01*
X197108Y496391D01*
X199405Y498155D01*
X201168Y500452D01*
X202277Y503128D01*
X202655Y506000D01*
Y510000D01*
X202277Y512872D01*
X201880Y513831D01*
X204960Y516912D01*
X206563D01*
X207125Y515773D01*
X206952Y515547D01*
X205843Y512872D01*
X205465Y510000D01*
Y506000D01*
X205843Y503128D01*
X206952Y500452D01*
X208715Y498155D01*
X211012Y496391D01*
X213688Y495283D01*
X216560Y494905D01*
X219432Y495283D01*
X220391Y495681D01*
X234939Y481133D01*
X236427Y480138D01*
X237848Y479855D01*
X240348Y477356D01*
X240387Y477158D01*
X239908Y476000D01*
X106000D01*
Y452367D01*
X104730Y451841D01*
X87266Y469305D01*
X87700Y470926D01*
Y473954D01*
X86916Y476879D01*
X85402Y479501D01*
X83261Y481642D01*
X80639Y483156D01*
X77714Y483940D01*
X74686D01*
X71761Y483156D01*
X69139Y481642D01*
X66998Y479501D01*
X65484Y476879D01*
X64700Y473954D01*
Y470926D01*
X65484Y468001D01*
X66998Y465379D01*
X69139Y463238D01*
X71761Y461724D01*
X74686Y460940D01*
X77714D01*
X79335Y461374D01*
X99675Y441035D01*
X101494Y439819D01*
X103640Y439392D01*
X106000D01*
Y398000D01*
X131019D01*
X132133Y396730D01*
X131905Y395000D01*
X132283Y392128D01*
X133392Y389453D01*
X135155Y387155D01*
X137452Y385392D01*
X140128Y384283D01*
X143000Y383905D01*
X147000D01*
X149872Y384283D01*
X152548Y385392D01*
X154845Y387155D01*
X156608Y389453D01*
X157717Y392128D01*
X158095Y395000D01*
X157867Y396730D01*
X158981Y398000D01*
X182000D01*
X182000Y405602D01*
X182059Y405898D01*
X182059Y405898D01*
X182059Y417000D01*
X182014Y417223D01*
X182025Y417450D01*
X181899Y417803D01*
X181826Y418171D01*
X181700Y418360D01*
X181623Y418574D01*
X173764Y431671D01*
X174484Y432941D01*
X203733D01*
X219837Y416837D01*
X220819Y416181D01*
X243000Y394000D01*
X592882D01*
Y376883D01*
X543000Y327000D01*
Y183000D01*
X548000Y178000D01*
X594852D01*
X595338Y176827D01*
X575756Y157244D01*
X574761Y155756D01*
X574412Y154000D01*
Y141330D01*
X573973Y141149D01*
X571675Y139385D01*
X569911Y137087D01*
X568803Y134412D01*
X568425Y131540D01*
Y127540D01*
X568803Y124668D01*
X569911Y121993D01*
X571675Y119695D01*
X573973Y117931D01*
X576648Y116823D01*
X579520Y116445D01*
X582392Y116823D01*
X585067Y117931D01*
X587365Y119695D01*
X589128Y121993D01*
X589132Y122000D01*
X594908D01*
X594911Y121993D01*
X596675Y119695D01*
X598973Y117931D01*
X601648Y116823D01*
X604520Y116445D01*
X607392Y116823D01*
X610067Y117931D01*
X612365Y119695D01*
X614128Y121993D01*
X615237Y124668D01*
X615615Y127540D01*
Y131540D01*
X615237Y134412D01*
X614128Y137087D01*
X612365Y139385D01*
X610067Y141149D01*
X609108Y141546D01*
Y166619D01*
X620489Y178000D01*
X683000D01*
X683000Y3000D01*
X616059D01*
Y12422D01*
X616000Y12717D01*
Y15756D01*
X617608Y17852D01*
X618717Y20528D01*
X619095Y23400D01*
Y27400D01*
X618717Y30272D01*
X617608Y32947D01*
X616000Y35044D01*
Y38083D01*
X616059Y38378D01*
Y100000D01*
X616000Y100295D01*
Y103000D01*
X613296D01*
X613000Y103059D01*
X602000D01*
X601704Y103000D01*
X601000D01*
X600819Y102819D01*
X599837Y102163D01*
X599837Y102163D01*
X565733Y68059D01*
X407267D01*
X358985Y116340D01*
X359233Y117586D01*
X360067Y117931D01*
X362365Y119695D01*
X364128Y121993D01*
X365237Y124668D01*
X365615Y127540D01*
Y131540D01*
X365237Y134412D01*
X364128Y137087D01*
X362365Y139385D01*
X360067Y141149D01*
X357392Y142257D01*
X354520Y142635D01*
X351648Y142257D01*
X348973Y141149D01*
X346675Y139385D01*
X344911Y137087D01*
X343803Y134412D01*
X343425Y131540D01*
Y127540D01*
X343803Y124668D01*
X344911Y121993D01*
X346188Y120329D01*
X345562Y119059D01*
X338478D01*
X337852Y120329D01*
X339128Y121993D01*
X340237Y124668D01*
X340615Y127540D01*
Y131540D01*
X340237Y134412D01*
X339128Y137087D01*
X337365Y139385D01*
X335067Y141149D01*
X332392Y142257D01*
X329520Y142635D01*
X326648Y142257D01*
X323973Y141149D01*
X321675Y139385D01*
X319911Y137087D01*
X318803Y134412D01*
X318425Y131540D01*
Y127540D01*
X318803Y124668D01*
X319911Y121993D01*
X321188Y120329D01*
X320562Y119059D01*
X313478Y119059D01*
X312852Y120329D01*
X314128Y121993D01*
X315237Y124668D01*
X315615Y127540D01*
Y131540D01*
X315237Y134412D01*
X314128Y137087D01*
X312365Y139385D01*
X310068Y141149D01*
X307392Y142257D01*
X304520Y142635D01*
X301648Y142257D01*
X298972Y141149D01*
X296675Y139385D01*
X294911Y137087D01*
X293803Y134412D01*
X293425Y131540D01*
Y127540D01*
X293803Y124668D01*
X294911Y121993D01*
X296188Y120329D01*
X295562Y119059D01*
X289941D01*
X288208Y120792D01*
X289128Y121993D01*
X290237Y124668D01*
X290615Y127540D01*
Y131540D01*
X290237Y134412D01*
X289128Y137087D01*
X287365Y139385D01*
X285068Y141149D01*
X282392Y142257D01*
X279520Y142635D01*
X276648Y142257D01*
X273972Y141149D01*
X271675Y139385D01*
X269911Y137087D01*
X268803Y134412D01*
X268425Y131540D01*
Y127540D01*
X268494Y127014D01*
X267657Y126059D01*
X231000Y126059D01*
X214059D01*
Y127515D01*
X214059Y127515D01*
X213826Y128685D01*
X213692Y128885D01*
X213059Y130415D01*
Y131585D01*
X213692Y133115D01*
X213826Y133315D01*
X214059Y134485D01*
X214059Y134485D01*
Y138000D01*
X214059Y138000D01*
X213826Y139171D01*
X213163Y140163D01*
X213163Y140163D01*
X213000Y140326D01*
Y142000D01*
X211000Y144000D01*
X209326D01*
X209163Y144163D01*
X208171Y144826D01*
X207000Y145059D01*
X207000Y145059D01*
X196000D01*
X196000Y145059D01*
X194830Y144826D01*
X193837Y144163D01*
X178733Y129059D01*
X74941D01*
X73059Y130941D01*
Y212000D01*
X73059Y212000D01*
X73000Y212296D01*
Y222000D01*
X63296D01*
X63000Y222059D01*
X63000Y222059D01*
X50941D01*
X48059Y224941D01*
Y302746D01*
X49066Y303519D01*
X49286Y303460D01*
X52314D01*
X55239Y304244D01*
X57861Y305758D01*
X60002Y307899D01*
X61516Y310521D01*
X62300Y313446D01*
Y316474D01*
X61516Y319399D01*
X60002Y322021D01*
X57861Y324162D01*
X55239Y325676D01*
X52314Y326460D01*
X49286D01*
X49066Y326401D01*
X48059Y327174D01*
Y328860D01*
X62300D01*
Y351860D01*
X48059D01*
Y370839D01*
X49066Y371613D01*
X49486Y371500D01*
X52514D01*
X55439Y372284D01*
X58061Y373798D01*
X60202Y375939D01*
X61716Y378561D01*
X62500Y381486D01*
Y384514D01*
X61716Y387439D01*
X60202Y390061D01*
X58061Y392202D01*
X55439Y393716D01*
X52514Y394500D01*
X49486D01*
X49196Y394422D01*
X48190Y395194D01*
Y396206D01*
X49196Y396978D01*
X49486Y396900D01*
X52514D01*
X55439Y397684D01*
X58061Y399198D01*
X60202Y401339D01*
X61716Y403961D01*
X62500Y406886D01*
Y409914D01*
X61716Y412839D01*
X60202Y415461D01*
X58061Y417602D01*
X55439Y419116D01*
X52514Y419900D01*
X49486D01*
X49066Y419787D01*
X48059Y420561D01*
Y460226D01*
X49066Y460999D01*
X49286Y460940D01*
X52314D01*
X55239Y461724D01*
X57861Y463238D01*
X60002Y465379D01*
X61516Y468001D01*
X62300Y470926D01*
Y473954D01*
X61516Y476879D01*
X60002Y479501D01*
X57861Y481642D01*
X55239Y483156D01*
X52314Y483940D01*
X49286D01*
X48294Y484767D01*
Y485513D01*
X49100Y486185D01*
X49343Y486340D01*
X52314D01*
X55239Y487124D01*
X57861Y488638D01*
X60002Y490779D01*
X61516Y493401D01*
X62300Y496326D01*
Y499354D01*
X61516Y502279D01*
X60002Y504901D01*
X57861Y507042D01*
X55239Y508556D01*
X52314Y509340D01*
X49286D01*
X49008Y509265D01*
X48000Y510038D01*
Y511000D01*
X43369D01*
X43162Y511054D01*
X43073Y511041D01*
X42985Y511059D01*
X6000D01*
Y531000D01*
X278000D01*
X280000Y529000D01*
D02*
G37*
G36*
X289000Y419000D02*
X222000D01*
X205000Y436000D01*
X171333D01*
X170000Y432000D01*
X179000Y417000D01*
X179000Y405898D01*
X178102Y405000D01*
X151602D01*
X149872Y405717D01*
X147000Y406095D01*
X143000D01*
X140128Y405717D01*
X138398Y405000D01*
X110000D01*
Y434000D01*
X132000D01*
Y434000D01*
X158000D01*
Y445392D01*
X289000D01*
Y419000D01*
D02*
G37*
G36*
X43427Y506730D02*
X41598Y504901D01*
X40084Y502279D01*
X39300Y499354D01*
Y496326D01*
X40084Y493401D01*
X41598Y490779D01*
X43739Y488638D01*
X45000Y487910D01*
Y482370D01*
X43739Y481642D01*
X41598Y479501D01*
X40084Y476879D01*
X39300Y473954D01*
Y470926D01*
X40084Y468001D01*
X41598Y465379D01*
X43739Y463238D01*
X45000Y462510D01*
Y418215D01*
X43939Y417602D01*
X41798Y415461D01*
X40284Y412839D01*
X39500Y409914D01*
Y406886D01*
X40284Y403961D01*
X41798Y401339D01*
X43939Y399198D01*
X45000Y398585D01*
Y392815D01*
X43939Y392202D01*
X41798Y390061D01*
X40284Y387439D01*
X39500Y384514D01*
Y381486D01*
X40284Y378561D01*
X41798Y375939D01*
X43939Y373798D01*
X45000Y373185D01*
Y351860D01*
X39300D01*
Y328860D01*
X45000D01*
Y324890D01*
X43739Y324162D01*
X41598Y322021D01*
X40084Y319399D01*
X39300Y316474D01*
Y313446D01*
X40084Y310521D01*
X41598Y307899D01*
X43739Y305758D01*
X45000Y305030D01*
Y221860D01*
X44830Y221826D01*
X43837Y221163D01*
X43174Y220170D01*
X42941Y219000D01*
Y104000D01*
X43174Y102830D01*
X43837Y101837D01*
X44830Y101174D01*
X46000Y100941D01*
X62000D01*
X62000Y100941D01*
X63170Y101174D01*
X64163Y101837D01*
X64163Y101837D01*
X72163Y109837D01*
X72826Y110829D01*
X73059Y112000D01*
X73059Y112000D01*
Y126000D01*
X180000D01*
X196000Y142000D01*
X207000D01*
X211000Y138000D01*
Y134485D01*
X210913Y134399D01*
X210000Y132193D01*
Y129806D01*
X210913Y127601D01*
X211000Y127515D01*
Y123000D01*
X231000D01*
X269494Y123000D01*
X269911Y121993D01*
X271675Y119695D01*
X273972Y117931D01*
X276648Y116823D01*
X279520Y116445D01*
X282202Y116798D01*
X283000Y116000D01*
X355000Y116000D01*
X406000Y65000D01*
X567000D01*
X602000Y100000D01*
X613000D01*
Y38378D01*
X611944Y37673D01*
X610872Y38117D01*
X608000Y38495D01*
X605128Y38117D01*
X602453Y37009D01*
X600155Y35245D01*
X598391Y32947D01*
X597283Y30272D01*
X596905Y27400D01*
Y23400D01*
X597283Y20528D01*
X598391Y17852D01*
X600155Y15555D01*
X602453Y13792D01*
X605128Y12683D01*
X608000Y12305D01*
X610872Y12683D01*
X611944Y13127D01*
X613000Y12422D01*
Y2000D01*
X396059D01*
Y14334D01*
X397329Y14961D01*
X398853Y13792D01*
X401528Y12683D01*
X404400Y12305D01*
X407272Y12683D01*
X409948Y13792D01*
X412245Y15555D01*
X414008Y17852D01*
X415117Y20528D01*
X415495Y23400D01*
Y27400D01*
X415117Y30272D01*
X414008Y32947D01*
X412245Y35245D01*
X409948Y37009D01*
X407272Y38117D01*
X404400Y38495D01*
X404185Y38467D01*
X378326Y64326D01*
X376341Y65652D01*
X374000Y66118D01*
X307324D01*
X306842Y66317D01*
X306341Y66652D01*
X305750Y66769D01*
X305194Y67000D01*
X304591D01*
X304000Y67118D01*
X303409Y67000D01*
X302806D01*
X302250Y66769D01*
X301659Y66652D01*
X301158Y66317D01*
X300601Y66087D01*
X300175Y65661D01*
X299674Y65326D01*
X299543Y65128D01*
X298271Y65055D01*
X259163Y104163D01*
X258181Y104819D01*
X258000Y105000D01*
X257295D01*
X257000Y105059D01*
X257000Y105059D01*
X168000D01*
X167705Y105000D01*
X165000D01*
X156000Y96000D01*
Y93295D01*
X155941Y93000D01*
X155941Y93000D01*
Y73941D01*
X154059Y72059D01*
X132000D01*
Y97000D01*
X131000Y98000D01*
X105000D01*
Y82000D01*
X69000Y46000D01*
X6000D01*
Y113261D01*
X7270Y113646D01*
X8019Y112526D01*
X10526Y110019D01*
X13474Y108049D01*
X16750Y106692D01*
X20227Y106000D01*
X23773D01*
X27250Y106692D01*
X30526Y108049D01*
X33474Y110019D01*
X35982Y112526D01*
X37951Y115474D01*
X39308Y118750D01*
X40000Y122227D01*
Y125773D01*
X39308Y129250D01*
X37951Y132526D01*
X35982Y135474D01*
X33474Y137982D01*
X30526Y139951D01*
X27250Y141308D01*
X23773Y142000D01*
X20227D01*
X16750Y141308D01*
X13474Y139951D01*
X10526Y137982D01*
X8019Y135474D01*
X7270Y134354D01*
X6000Y134739D01*
Y146296D01*
X6741Y146683D01*
X7270Y146795D01*
X8522Y145835D01*
X10127Y145170D01*
X11850Y144943D01*
X24650D01*
X26373Y145170D01*
X27978Y145835D01*
X29357Y146893D01*
X30415Y148272D01*
X31080Y149877D01*
X31307Y151600D01*
Y156400D01*
X31080Y158123D01*
X30415Y159728D01*
X29357Y161107D01*
X27978Y162165D01*
X26373Y162830D01*
X24650Y163057D01*
X11850D01*
X10127Y162830D01*
X8522Y162165D01*
X7270Y161205D01*
X6741Y161317D01*
X6000Y161704D01*
Y212296D01*
X6741Y212683D01*
X7270Y212795D01*
X8522Y211835D01*
X10127Y211170D01*
X11850Y210943D01*
X24650D01*
X26373Y211170D01*
X27978Y211835D01*
X29357Y212893D01*
X30415Y214272D01*
X31080Y215877D01*
X31307Y217600D01*
Y222400D01*
X31080Y224123D01*
X30415Y225728D01*
X29357Y227107D01*
X27978Y228165D01*
X26373Y228830D01*
X24650Y229057D01*
X11850D01*
X10127Y228830D01*
X8522Y228165D01*
X7270Y227205D01*
X6741Y227317D01*
X6000Y227704D01*
Y508000D01*
X42985D01*
X43427Y506730D01*
D02*
G37*
G36*
X70000Y212000D02*
Y112000D01*
X62000Y104000D01*
X46000D01*
Y219000D01*
X63000D01*
X70000Y212000D01*
D02*
G37*
G36*
X297902Y61098D02*
X297882Y61000D01*
X298000Y60409D01*
Y59806D01*
X298231Y59250D01*
X298348Y58659D01*
X298683Y58158D01*
X298913Y57601D01*
X299340Y57175D01*
X299674Y56674D01*
X300674Y55674D01*
X301864Y54879D01*
X302659Y54348D01*
X305000Y53882D01*
X363000D01*
Y19000D01*
X359059Y15059D01*
X350941D01*
X345000Y21000D01*
X345000Y39000D01*
X257326Y39000D01*
X225163Y71163D01*
X224170Y71826D01*
X223000Y72059D01*
X223000Y72059D01*
X213500D01*
Y95500D01*
X188500D01*
Y72059D01*
X159000D01*
Y93000D01*
X168000Y102000D01*
X257000D01*
X297902Y61098D01*
D02*
G37*
G36*
X128000Y69000D02*
X223000D01*
X262000Y30000D01*
Y12000D01*
X362000D01*
X367000Y17000D01*
Y53000D01*
X372000D01*
X393000Y32000D01*
Y1000D01*
X173114D01*
X172537Y2132D01*
X174211Y4435D01*
X177069Y10045D01*
X179015Y16033D01*
X180000Y22252D01*
Y28548D01*
X179015Y34767D01*
X177069Y40755D01*
X174211Y46365D01*
X170510Y51458D01*
X166058Y55910D01*
X160965Y59611D01*
X155355Y62470D01*
X149367Y64415D01*
X143148Y65400D01*
X136852D01*
X130633Y64415D01*
X124645Y62470D01*
X119035Y59611D01*
X113942Y55910D01*
X109490Y51458D01*
X105789Y46365D01*
X102930Y40755D01*
X100985Y34767D01*
X100000Y28548D01*
Y22252D01*
X100985Y16033D01*
X102930Y10045D01*
X105789Y4435D01*
X107463Y2132D01*
X106886Y1000D01*
X8000D01*
X2000Y7000D01*
Y36000D01*
X7000Y41000D01*
X71000D01*
X110000Y80000D01*
Y94000D01*
X128000D01*
Y69000D01*
D02*
G37*
%LPC*%
G36*
X131871Y519000D02*
X128129D01*
X124458Y518270D01*
X121000Y516838D01*
X117888Y514758D01*
X115242Y512112D01*
X113162Y509000D01*
X111730Y505542D01*
X111000Y501871D01*
Y498129D01*
X111730Y494458D01*
X113162Y491000D01*
X115242Y487888D01*
X117888Y485242D01*
X121000Y483162D01*
X124458Y481730D01*
X128129Y481000D01*
X131871D01*
X135542Y481730D01*
X139000Y483162D01*
X142112Y485242D01*
X144758Y487888D01*
X146838Y491000D01*
X148270Y494458D01*
X149000Y498129D01*
Y501871D01*
X148270Y505542D01*
X146838Y509000D01*
X144758Y512112D01*
X142112Y514758D01*
X139000Y516838D01*
X135542Y518270D01*
X131871Y519000D01*
D02*
G37*
G36*
X77914Y394500D02*
X74886D01*
X71961Y393716D01*
X69339Y392202D01*
X67198Y390061D01*
X65684Y387439D01*
X64900Y384514D01*
Y381486D01*
X65684Y378561D01*
X67198Y375939D01*
X69339Y373798D01*
X71961Y372284D01*
X74886Y371500D01*
X77914D01*
X80839Y372284D01*
X83461Y373798D01*
X85602Y375939D01*
X87116Y378561D01*
X87900Y381486D01*
Y384514D01*
X87116Y387439D01*
X85602Y390061D01*
X83461Y392202D01*
X80839Y393716D01*
X77914Y394500D01*
D02*
G37*
G36*
X105194Y388000D02*
X102807D01*
X100601Y387087D01*
X98913Y385399D01*
X98000Y383194D01*
Y380807D01*
X98392Y379860D01*
Y369323D01*
X83035Y353965D01*
X81819Y352146D01*
X81392Y350000D01*
Y322141D01*
X81000Y321194D01*
Y318806D01*
X81913Y316601D01*
X83601Y314914D01*
X83512Y313576D01*
X82819Y312539D01*
X82392Y310393D01*
Y271140D01*
X82000Y270194D01*
Y267806D01*
X82913Y265601D01*
X84601Y263913D01*
X86806Y263000D01*
X89193D01*
X91399Y263913D01*
X93087Y265601D01*
X94000Y267806D01*
Y270194D01*
X93608Y271140D01*
Y308071D01*
X110061Y324524D01*
X111277Y326343D01*
X111703Y328489D01*
Y349773D01*
X126323Y364392D01*
X133438D01*
X135155Y362155D01*
X137452Y360392D01*
X140128Y359283D01*
X143000Y358905D01*
X147000D01*
X149872Y359283D01*
X152548Y360392D01*
X154845Y362155D01*
X156608Y364453D01*
X157717Y367128D01*
X158095Y370000D01*
X157717Y372872D01*
X156608Y375547D01*
X154845Y377845D01*
X152548Y379608D01*
X149872Y380717D01*
X147000Y381095D01*
X143000D01*
X140128Y380717D01*
X137452Y379608D01*
X135155Y377845D01*
X133438Y375608D01*
X124000D01*
X121854Y375181D01*
X120035Y373965D01*
X113203Y367134D01*
X109608D01*
Y379860D01*
X110000Y380807D01*
Y383194D01*
X109087Y385399D01*
X107399Y387087D01*
X105194Y388000D01*
D02*
G37*
G36*
X324193Y329000D02*
X321806D01*
X319601Y328087D01*
X317913Y326399D01*
X317000Y324193D01*
Y321806D01*
X317902Y319629D01*
Y235112D01*
X316790Y234000D01*
X308098D01*
Y255188D01*
X307710Y257139D01*
X306605Y258793D01*
X298000Y267398D01*
Y268193D01*
X297087Y270399D01*
X295399Y272087D01*
X293193Y273000D01*
X290807D01*
X288601Y272087D01*
X286913Y270399D01*
X286000Y268193D01*
Y265807D01*
X286913Y263601D01*
X288601Y261913D01*
X289393Y261585D01*
X297902Y253077D01*
Y248473D01*
X297193Y248000D01*
X294806D01*
X293860Y247608D01*
X283000D01*
X280854Y247181D01*
X279035Y245965D01*
X254035Y220965D01*
X252819Y219146D01*
X252392Y217000D01*
Y159323D01*
X246548Y153479D01*
X245601Y153087D01*
X243913Y151399D01*
X243000Y149193D01*
Y146806D01*
X243913Y144601D01*
X245601Y142914D01*
X247806Y142000D01*
X250194D01*
X252399Y142914D01*
X254087Y144601D01*
X254479Y145548D01*
X261965Y153035D01*
X263181Y154854D01*
X263608Y157000D01*
Y174000D01*
X287688D01*
X288601Y174913D01*
X290807Y174000D01*
X293193D01*
X295399Y174913D01*
X297087Y176601D01*
X297827Y178388D01*
X299173D01*
X299913Y176601D01*
X301601Y174913D01*
X303806Y174000D01*
X306194D01*
X308399Y174913D01*
X310087Y176601D01*
X310989Y178779D01*
X320625Y188415D01*
X321730Y190069D01*
X322118Y192020D01*
Y194119D01*
X323257Y194681D01*
X323973Y194132D01*
X326648Y193023D01*
X329520Y192645D01*
X332392Y193023D01*
X335067Y194132D01*
X337365Y195895D01*
X339128Y198193D01*
X340237Y200868D01*
X340615Y203740D01*
Y207740D01*
X340237Y210612D01*
X339128Y213288D01*
X337365Y215585D01*
X335067Y217348D01*
X332392Y218457D01*
X329520Y218835D01*
X326648Y218457D01*
X323973Y217348D01*
X323257Y216799D01*
X322118Y217361D01*
Y224908D01*
X326605Y229395D01*
X327710Y231049D01*
X328098Y233000D01*
Y319629D01*
X329000Y321806D01*
Y324193D01*
X328087Y326399D01*
X326399Y328087D01*
X324193Y329000D01*
D02*
G37*
G36*
X105194Y264000D02*
X102807D01*
X100601Y263086D01*
X98913Y261399D01*
X98000Y259193D01*
Y256807D01*
X98392Y255860D01*
Y181000D01*
X98819Y178854D01*
X100035Y177035D01*
X106035Y171035D01*
X107854Y169819D01*
X110000Y169392D01*
X207860D01*
X208806Y169000D01*
X211194D01*
X213399Y169914D01*
X215087Y171601D01*
X216000Y173806D01*
Y176194D01*
X215087Y178399D01*
X213399Y180087D01*
X211194Y181000D01*
X208806D01*
X207860Y180608D01*
X112323D01*
X109993Y182938D01*
X110089Y183630D01*
X111434Y184081D01*
X111601Y183913D01*
X113806Y183000D01*
X116194D01*
X118399Y183913D01*
X120087Y185601D01*
X120479Y186548D01*
X127323Y193392D01*
X150859D01*
X151806Y193000D01*
X154193D01*
X156399Y193913D01*
X158087Y195601D01*
X159000Y197806D01*
Y200000D01*
X160194D01*
X162399Y200913D01*
X164087Y202601D01*
X165000Y204806D01*
Y207194D01*
X164087Y209399D01*
X162399Y211087D01*
X160194Y212000D01*
X158771D01*
X158229Y212108D01*
X123823D01*
X120479Y215452D01*
X120087Y216399D01*
X118399Y218087D01*
X116194Y219000D01*
X113806D01*
X111601Y218087D01*
X110878Y217363D01*
X109608Y217889D01*
Y255860D01*
X110000Y256807D01*
Y259193D01*
X109087Y261399D01*
X107399Y263086D01*
X105194Y264000D01*
D02*
G37*
G36*
X529520Y218835D02*
X526648Y218457D01*
X523973Y217348D01*
X521675Y215585D01*
X519911Y213288D01*
X518803Y210612D01*
X518425Y207740D01*
Y203740D01*
X518803Y200868D01*
X519911Y198193D01*
X521675Y195895D01*
X523973Y194132D01*
X526648Y193023D01*
X529520Y192645D01*
X532392Y193023D01*
X535067Y194132D01*
X537365Y195895D01*
X539128Y198193D01*
X540237Y200868D01*
X540615Y203740D01*
Y207740D01*
X540237Y210612D01*
X539128Y213288D01*
X537365Y215585D01*
X535067Y217348D01*
X532392Y218457D01*
X529520Y218835D01*
D02*
G37*
G36*
X504520D02*
X501648Y218457D01*
X498973Y217348D01*
X496675Y215585D01*
X494911Y213288D01*
X493803Y210612D01*
X493425Y207740D01*
Y203740D01*
X493803Y200868D01*
X494911Y198193D01*
X496675Y195895D01*
X498973Y194132D01*
X501648Y193023D01*
X504520Y192645D01*
X507392Y193023D01*
X510067Y194132D01*
X512365Y195895D01*
X514128Y198193D01*
X515237Y200868D01*
X515615Y203740D01*
Y207740D01*
X515237Y210612D01*
X514128Y213288D01*
X512365Y215585D01*
X510067Y217348D01*
X507392Y218457D01*
X504520Y218835D01*
D02*
G37*
G36*
X479520D02*
X476648Y218457D01*
X473973Y217348D01*
X471675Y215585D01*
X469911Y213288D01*
X468803Y210612D01*
X468425Y207740D01*
Y203740D01*
X468803Y200868D01*
X469911Y198193D01*
X471675Y195895D01*
X473973Y194132D01*
X476648Y193023D01*
X479520Y192645D01*
X482392Y193023D01*
X485067Y194132D01*
X487365Y195895D01*
X489128Y198193D01*
X490237Y200868D01*
X490615Y203740D01*
Y207740D01*
X490237Y210612D01*
X489128Y213288D01*
X487365Y215585D01*
X485067Y217348D01*
X482392Y218457D01*
X479520Y218835D01*
D02*
G37*
G36*
X454520D02*
X451648Y218457D01*
X448973Y217348D01*
X446675Y215585D01*
X444911Y213288D01*
X443803Y210612D01*
X443425Y207740D01*
Y203740D01*
X443803Y200868D01*
X444911Y198193D01*
X446675Y195895D01*
X448973Y194132D01*
X451648Y193023D01*
X454520Y192645D01*
X457392Y193023D01*
X460067Y194132D01*
X462365Y195895D01*
X464128Y198193D01*
X465237Y200868D01*
X465615Y203740D01*
Y207740D01*
X465237Y210612D01*
X464128Y213288D01*
X462365Y215585D01*
X460067Y217348D01*
X457392Y218457D01*
X454520Y218835D01*
D02*
G37*
G36*
X404520D02*
X401648Y218457D01*
X398973Y217348D01*
X396675Y215585D01*
X394911Y213288D01*
X393803Y210612D01*
X393425Y207740D01*
Y203740D01*
X393803Y200868D01*
X394911Y198193D01*
X396675Y195895D01*
X398973Y194132D01*
X401648Y193023D01*
X404520Y192645D01*
X407392Y193023D01*
X410067Y194132D01*
X412365Y195895D01*
X414128Y198193D01*
X415237Y200868D01*
X415615Y203740D01*
Y207740D01*
X415237Y210612D01*
X414128Y213288D01*
X412365Y215585D01*
X410067Y217348D01*
X407392Y218457D01*
X404520Y218835D01*
D02*
G37*
G36*
X379520D02*
X376648Y218457D01*
X373973Y217348D01*
X371675Y215585D01*
X369911Y213288D01*
X368803Y210612D01*
X368425Y207740D01*
Y203740D01*
X368803Y200868D01*
X369911Y198193D01*
X371675Y195895D01*
X373973Y194132D01*
X376648Y193023D01*
X379520Y192645D01*
X382392Y193023D01*
X385067Y194132D01*
X387365Y195895D01*
X389128Y198193D01*
X390237Y200868D01*
X390615Y203740D01*
Y207740D01*
X390237Y210612D01*
X389128Y213288D01*
X387365Y215585D01*
X385067Y217348D01*
X382392Y218457D01*
X379520Y218835D01*
D02*
G37*
G36*
X354520D02*
X351648Y218457D01*
X348973Y217348D01*
X346675Y215585D01*
X344911Y213288D01*
X343803Y210612D01*
X343425Y207740D01*
Y203740D01*
X343803Y200868D01*
X344911Y198193D01*
X346675Y195895D01*
X348973Y194132D01*
X351648Y193023D01*
X354520Y192645D01*
X357392Y193023D01*
X360067Y194132D01*
X362365Y195895D01*
X364128Y198193D01*
X365237Y200868D01*
X365615Y203740D01*
Y207740D01*
X365237Y210612D01*
X364128Y213288D01*
X362365Y215585D01*
X360067Y217348D01*
X357392Y218457D01*
X354520Y218835D01*
D02*
G37*
G36*
X204000Y201117D02*
X186000D01*
X183659Y200652D01*
X181674Y199326D01*
X177674Y195326D01*
X177339Y194825D01*
X176913Y194399D01*
X176683Y193842D01*
X176348Y193341D01*
X176231Y192750D01*
X176000Y192194D01*
Y191591D01*
X175882Y191000D01*
X176000Y190409D01*
Y189806D01*
X176231Y189250D01*
X176348Y188659D01*
X176683Y188158D01*
X176913Y187601D01*
X177339Y187175D01*
X177674Y186674D01*
X178175Y186339D01*
X178601Y185913D01*
X179158Y185683D01*
X179659Y185348D01*
X180250Y185231D01*
X180807Y185000D01*
X181409D01*
X182000Y184883D01*
X182591Y185000D01*
X183193D01*
X183750Y185231D01*
X184341Y185348D01*
X184842Y185683D01*
X185399Y185913D01*
X185825Y186339D01*
X186326Y186674D01*
X188534Y188883D01*
X204000D01*
X204591Y189000D01*
X205194D01*
X205750Y189231D01*
X206341Y189348D01*
X206842Y189683D01*
X207399Y189913D01*
X207825Y190340D01*
X208326Y190674D01*
X208661Y191175D01*
X209087Y191601D01*
X209317Y192158D01*
X209652Y192659D01*
X209769Y193250D01*
X210000Y193806D01*
Y194409D01*
X210117Y195000D01*
X210000Y195591D01*
Y196194D01*
X209769Y196750D01*
X209652Y197341D01*
X209317Y197842D01*
X209087Y198399D01*
X208661Y198825D01*
X208326Y199326D01*
X207825Y199660D01*
X207399Y200086D01*
X206842Y200317D01*
X206341Y200652D01*
X205750Y200769D01*
X205194Y201000D01*
X204591D01*
X204000Y201117D01*
D02*
G37*
G36*
X554520Y142635D02*
X551648Y142257D01*
X548973Y141149D01*
X546675Y139385D01*
X544911Y137087D01*
X543803Y134412D01*
X543425Y131540D01*
Y127540D01*
X543803Y124668D01*
X544911Y121993D01*
X546675Y119695D01*
X548973Y117931D01*
X551648Y116823D01*
X554520Y116445D01*
X557392Y116823D01*
X560067Y117931D01*
X562365Y119695D01*
X564128Y121993D01*
X565237Y124668D01*
X565615Y127540D01*
Y131540D01*
X565237Y134412D01*
X564128Y137087D01*
X562365Y139385D01*
X560067Y141149D01*
X557392Y142257D01*
X554520Y142635D01*
D02*
G37*
G36*
X529520D02*
X526648Y142257D01*
X523973Y141149D01*
X521675Y139385D01*
X519911Y137087D01*
X518803Y134412D01*
X518425Y131540D01*
Y127540D01*
X518803Y124668D01*
X519911Y121993D01*
X521675Y119695D01*
X523973Y117931D01*
X526648Y116823D01*
X529520Y116445D01*
X532392Y116823D01*
X535067Y117931D01*
X537365Y119695D01*
X539128Y121993D01*
X540237Y124668D01*
X540615Y127540D01*
Y131540D01*
X540237Y134412D01*
X539128Y137087D01*
X537365Y139385D01*
X535067Y141149D01*
X532392Y142257D01*
X529520Y142635D01*
D02*
G37*
G36*
X504520D02*
X501648Y142257D01*
X498973Y141149D01*
X496675Y139385D01*
X494911Y137087D01*
X493803Y134412D01*
X493425Y131540D01*
Y127540D01*
X493803Y124668D01*
X494911Y121993D01*
X496675Y119695D01*
X498973Y117931D01*
X501648Y116823D01*
X504520Y116445D01*
X507392Y116823D01*
X510067Y117931D01*
X512365Y119695D01*
X514128Y121993D01*
X515237Y124668D01*
X515615Y127540D01*
Y131540D01*
X515237Y134412D01*
X514128Y137087D01*
X512365Y139385D01*
X510067Y141149D01*
X507392Y142257D01*
X504520Y142635D01*
D02*
G37*
G36*
X456194Y189000D02*
X453806D01*
X451601Y188086D01*
X449913Y186399D01*
X449000Y184193D01*
Y181807D01*
X449660Y180214D01*
X448971Y179483D01*
X448679Y179016D01*
X448373Y178558D01*
X448364Y178511D01*
X448339Y178471D01*
X448248Y177927D01*
X448140Y177387D01*
Y156395D01*
X448373Y155225D01*
X449036Y154232D01*
X459905Y143363D01*
Y138605D01*
X459983Y138213D01*
X460009Y137813D01*
X460099Y137632D01*
X460138Y137435D01*
X460360Y137102D01*
X460537Y136743D01*
X461422Y135590D01*
Y123490D01*
X460537Y122337D01*
X460360Y121978D01*
X460138Y121645D01*
X460099Y121448D01*
X460009Y121267D01*
X459983Y120867D01*
X459905Y120475D01*
Y106952D01*
X460138Y105781D01*
X460801Y104789D01*
X461251Y104489D01*
X471747Y93992D01*
X472739Y93329D01*
X473910Y93096D01*
X475080Y93329D01*
X476073Y93992D01*
X481955Y99875D01*
X482618Y100867D01*
X482851Y102038D01*
X482851Y102038D01*
Y103750D01*
X482618Y104921D01*
X481955Y105913D01*
X481955Y105913D01*
X472873Y114995D01*
Y117371D01*
X474143Y117861D01*
X476648Y116823D01*
X479520Y116445D01*
X482392Y116823D01*
X485067Y117931D01*
X487365Y119695D01*
X489128Y121993D01*
X490237Y124668D01*
X490615Y127540D01*
Y131540D01*
X490237Y134412D01*
X489128Y137087D01*
X487365Y139385D01*
X485067Y141149D01*
X482392Y142257D01*
X479520Y142635D01*
X476648Y142257D01*
X474143Y141219D01*
X472873Y141709D01*
Y150363D01*
X472641Y151534D01*
X471978Y152526D01*
X471978Y152526D01*
X461257Y163246D01*
Y178584D01*
X461144Y179155D01*
X461036Y179725D01*
X461028Y179739D01*
X461025Y179755D01*
X460701Y180239D01*
X460487Y180567D01*
X461000Y181807D01*
Y184193D01*
X460087Y186399D01*
X458399Y188086D01*
X456194Y189000D01*
D02*
G37*
G36*
X429520Y142635D02*
X426648Y142257D01*
X423973Y141149D01*
X421675Y139385D01*
X419911Y137087D01*
X418803Y134412D01*
X418425Y131540D01*
Y127540D01*
X418803Y124668D01*
X419911Y121993D01*
X421675Y119695D01*
X423973Y117931D01*
X426648Y116823D01*
X429520Y116445D01*
X432392Y116823D01*
X435067Y117931D01*
X437365Y119695D01*
X439128Y121993D01*
X440237Y124668D01*
X440615Y127540D01*
Y131540D01*
X440237Y134412D01*
X439128Y137087D01*
X437365Y139385D01*
X435067Y141149D01*
X432392Y142257D01*
X429520Y142635D01*
D02*
G37*
G36*
X404520D02*
X401648Y142257D01*
X398973Y141149D01*
X396675Y139385D01*
X394911Y137087D01*
X393803Y134412D01*
X393425Y131540D01*
Y127540D01*
X393803Y124668D01*
X394911Y121993D01*
X396675Y119695D01*
X398973Y117931D01*
X401648Y116823D01*
X404520Y116445D01*
X407392Y116823D01*
X410067Y117931D01*
X412365Y119695D01*
X414128Y121993D01*
X415237Y124668D01*
X415615Y127540D01*
Y131540D01*
X415237Y134412D01*
X414128Y137087D01*
X412365Y139385D01*
X410067Y141149D01*
X407392Y142257D01*
X404520Y142635D01*
D02*
G37*
G36*
X379520D02*
X376648Y142257D01*
X373973Y141149D01*
X371675Y139385D01*
X369911Y137087D01*
X368803Y134412D01*
X368425Y131540D01*
Y127540D01*
X368803Y124668D01*
X369911Y121993D01*
X371675Y119695D01*
X373973Y117931D01*
X376648Y116823D01*
X379520Y116445D01*
X382392Y116823D01*
X385067Y117931D01*
X387365Y119695D01*
X389128Y121993D01*
X390237Y124668D01*
X390615Y127540D01*
Y131540D01*
X390237Y134412D01*
X389128Y137087D01*
X387365Y139385D01*
X385067Y141149D01*
X382392Y142257D01*
X379520Y142635D01*
D02*
G37*
G36*
X633000Y38495D02*
X630128Y38117D01*
X627453Y37009D01*
X625155Y35245D01*
X623391Y32947D01*
X622283Y30272D01*
X621905Y27400D01*
Y23400D01*
X622283Y20528D01*
X623391Y17852D01*
X625155Y15555D01*
X627453Y13792D01*
X630128Y12683D01*
X633000Y12305D01*
X635872Y12683D01*
X638548Y13792D01*
X640845Y15555D01*
X642608Y17852D01*
X643717Y20528D01*
X644095Y23400D01*
Y27400D01*
X643717Y30272D01*
X642608Y32947D01*
X640845Y35245D01*
X638548Y37009D01*
X635872Y38117D01*
X633000Y38495D01*
D02*
G37*
%LPD*%
G36*
X458199Y178584D02*
Y161979D01*
X469815Y150363D01*
Y136854D01*
X468803Y134412D01*
X468425Y131540D01*
Y127540D01*
X468803Y124668D01*
X469815Y122226D01*
Y113728D01*
X479793Y103750D01*
Y102038D01*
X473910Y96155D01*
X463113Y106952D01*
X462964D01*
Y120475D01*
X464128Y121993D01*
X465237Y124668D01*
X465615Y127540D01*
Y131540D01*
X465237Y134412D01*
X464128Y137087D01*
X462964Y138605D01*
Y144630D01*
X451199Y156395D01*
Y177387D01*
X452383Y178645D01*
X458199Y178584D01*
D02*
G37*
%LPC*%
G36*
X147000Y431095D02*
X143000D01*
X140128Y430717D01*
X137452Y429608D01*
X135155Y427845D01*
X133392Y425547D01*
X132283Y422872D01*
X131905Y420000D01*
X132283Y417128D01*
X133392Y414453D01*
X135155Y412155D01*
X137452Y410392D01*
X140128Y409283D01*
X143000Y408905D01*
X147000D01*
X149872Y409283D01*
X152548Y410392D01*
X154845Y412155D01*
X156608Y414453D01*
X157717Y417128D01*
X158095Y420000D01*
X157717Y422872D01*
X156608Y425547D01*
X154845Y427845D01*
X152548Y429608D01*
X149872Y430717D01*
X147000Y431095D01*
D02*
G37*
G36*
X36900Y483940D02*
X13900D01*
Y460940D01*
X36900D01*
Y483940D01*
D02*
G37*
G36*
X37100Y394500D02*
X14100D01*
Y371500D01*
X37100D01*
Y394500D01*
D02*
G37*
G36*
X26914Y351860D02*
X23886D01*
X20961Y351076D01*
X18339Y349562D01*
X16198Y347421D01*
X14684Y344799D01*
X13900Y341874D01*
Y338846D01*
X14684Y335921D01*
X16198Y333299D01*
X18339Y331158D01*
X20961Y329644D01*
X23886Y328860D01*
X26914D01*
X29839Y329644D01*
X32461Y331158D01*
X34602Y333299D01*
X36116Y335921D01*
X36900Y338846D01*
Y341874D01*
X36116Y344799D01*
X34602Y347421D01*
X32461Y349562D01*
X29839Y351076D01*
X26914Y351860D01*
D02*
G37*
G36*
Y326460D02*
X23886D01*
X20961Y325676D01*
X18339Y324162D01*
X16198Y322021D01*
X14684Y319399D01*
X13900Y316474D01*
Y313446D01*
X14684Y310521D01*
X16198Y307899D01*
X18339Y305758D01*
X20961Y304244D01*
X23886Y303460D01*
X26914D01*
X29839Y304244D01*
X32461Y305758D01*
X34602Y307899D01*
X36116Y310521D01*
X36900Y313446D01*
Y316474D01*
X36116Y319399D01*
X34602Y322021D01*
X32461Y324162D01*
X29839Y325676D01*
X26914Y326460D01*
D02*
G37*
G36*
X519000Y38400D02*
X497000D01*
Y12400D01*
X519000D01*
Y38400D01*
D02*
G37*
G36*
X583000Y38495D02*
X580128Y38117D01*
X577453Y37009D01*
X575155Y35245D01*
X573391Y32947D01*
X572283Y30272D01*
X571905Y27400D01*
Y23400D01*
X572283Y20528D01*
X573391Y17852D01*
X575155Y15555D01*
X577453Y13792D01*
X580128Y12683D01*
X583000Y12305D01*
X585872Y12683D01*
X588548Y13792D01*
X590845Y15555D01*
X592608Y17852D01*
X593717Y20528D01*
X594095Y23400D01*
Y27400D01*
X593717Y30272D01*
X592608Y32947D01*
X590845Y35245D01*
X588548Y37009D01*
X585872Y38117D01*
X583000Y38495D01*
D02*
G37*
G36*
X558000D02*
X555128Y38117D01*
X552453Y37009D01*
X550155Y35245D01*
X548391Y32947D01*
X547283Y30272D01*
X546905Y27400D01*
Y23400D01*
X547283Y20528D01*
X548391Y17852D01*
X550155Y15555D01*
X552453Y13792D01*
X555128Y12683D01*
X558000Y12305D01*
X560872Y12683D01*
X563548Y13792D01*
X565845Y15555D01*
X567608Y17852D01*
X568717Y20528D01*
X569095Y23400D01*
Y27400D01*
X568717Y30272D01*
X567608Y32947D01*
X565845Y35245D01*
X563548Y37009D01*
X560872Y38117D01*
X558000Y38495D01*
D02*
G37*
G36*
X533000D02*
X530128Y38117D01*
X527453Y37009D01*
X525155Y35245D01*
X523391Y32947D01*
X522283Y30272D01*
X521905Y27400D01*
Y23400D01*
X522283Y20528D01*
X523391Y17852D01*
X525155Y15555D01*
X527453Y13792D01*
X530128Y12683D01*
X533000Y12305D01*
X535872Y12683D01*
X538548Y13792D01*
X540845Y15555D01*
X542608Y17852D01*
X543717Y20528D01*
X544095Y23400D01*
Y27400D01*
X543717Y30272D01*
X542608Y32947D01*
X540845Y35245D01*
X538548Y37009D01*
X535872Y38117D01*
X533000Y38495D01*
D02*
G37*
G36*
X454400D02*
X451528Y38117D01*
X448853Y37009D01*
X446555Y35245D01*
X444791Y32947D01*
X443683Y30272D01*
X443305Y27400D01*
Y23400D01*
X443683Y20528D01*
X444791Y17852D01*
X446555Y15555D01*
X448853Y13792D01*
X451528Y12683D01*
X454400Y12305D01*
X457272Y12683D01*
X459948Y13792D01*
X462245Y15555D01*
X464008Y17852D01*
X465117Y20528D01*
X465495Y23400D01*
Y27400D01*
X465117Y30272D01*
X464008Y32947D01*
X462245Y35245D01*
X459948Y37009D01*
X457272Y38117D01*
X454400Y38495D01*
D02*
G37*
G36*
X429400D02*
X426528Y38117D01*
X423853Y37009D01*
X421555Y35245D01*
X419791Y32947D01*
X418683Y30272D01*
X418305Y27400D01*
Y23400D01*
X418683Y20528D01*
X419791Y17852D01*
X421555Y15555D01*
X423853Y13792D01*
X426528Y12683D01*
X429400Y12305D01*
X432272Y12683D01*
X434948Y13792D01*
X437245Y15555D01*
X439008Y17852D01*
X440117Y20528D01*
X440495Y23400D01*
Y27400D01*
X440117Y30272D01*
X439008Y32947D01*
X437245Y35245D01*
X434948Y37009D01*
X432272Y38117D01*
X429400Y38495D01*
D02*
G37*
G36*
X258500Y95500D02*
X233500D01*
Y70500D01*
X258500D01*
Y95500D01*
D02*
G37*
G36*
X247646Y30500D02*
X244354D01*
X241175Y29648D01*
X238325Y28003D01*
X235998Y25675D01*
X234352Y22825D01*
X233500Y19646D01*
Y16354D01*
X234352Y13175D01*
X235998Y10325D01*
X238325Y7997D01*
X241175Y6352D01*
X244354Y5500D01*
X247646D01*
X250825Y6352D01*
X253675Y7997D01*
X256003Y10325D01*
X257648Y13175D01*
X258500Y16354D01*
Y19646D01*
X257648Y22825D01*
X256003Y25675D01*
X253675Y28003D01*
X250825Y29648D01*
X247646Y30500D01*
D02*
G37*
G36*
X202646D02*
X199354D01*
X196175Y29648D01*
X193325Y28003D01*
X190998Y25675D01*
X189352Y22825D01*
X188500Y19646D01*
Y16354D01*
X189352Y13175D01*
X190998Y10325D01*
X193325Y7997D01*
X196175Y6352D01*
X199354Y5500D01*
X202646D01*
X205825Y6352D01*
X208675Y7997D01*
X211002Y10325D01*
X212648Y13175D01*
X213500Y16354D01*
Y19646D01*
X212648Y22825D01*
X211002Y25675D01*
X208675Y28003D01*
X205825Y29648D01*
X202646Y30500D01*
D02*
G37*
%LPD*%
D12*
X567000Y332000D02*
X599000Y364000D01*
Y435000D01*
X567000Y219000D02*
Y332000D01*
X304000Y61000D02*
X305000Y60000D01*
X374000D01*
X404400Y29600D01*
Y25400D02*
Y29600D01*
X304000Y459000D02*
X312000Y451000D01*
X244000Y468000D02*
X253000Y459000D01*
X304000D01*
X244000Y468000D02*
Y471000D01*
X312000Y451000D02*
X583000D01*
X599000Y435000D01*
X186000Y195000D02*
X204000D01*
X182000Y191000D02*
X186000Y195000D01*
D13*
X593500Y317500D02*
X607000Y331000D01*
X593500Y248500D02*
Y317500D01*
X607000Y331000D02*
Y443000D01*
X316560Y506280D02*
Y508000D01*
X288574Y481574D02*
X291854D01*
X316560Y506280D01*
X288000Y481000D02*
X288574Y481574D01*
X229060Y502237D02*
X258297Y473000D01*
X588000D01*
X613000Y448000D01*
X583000Y467000D02*
X607000Y443000D01*
X257192Y467000D02*
X583000D01*
X239816Y484377D02*
X257192Y467000D01*
X216560Y506000D02*
X238183Y484377D01*
X239816D01*
X229060Y502237D02*
Y515940D01*
X579000Y154000D02*
X620000Y195000D01*
X579000Y130060D02*
Y154000D01*
X620000Y195000D02*
Y222000D01*
X613000Y324000D02*
Y448000D01*
X629000Y193000D02*
Y308000D01*
X613000Y324000D02*
X629000Y308000D01*
X619574Y331426D02*
Y455574D01*
Y331426D02*
X638000Y313000D01*
Y214000D02*
Y313000D01*
X619574Y455574D02*
X620000Y456000D01*
X318000Y422000D02*
X580188D01*
X581188Y421000D02*
X582000D01*
X580188Y422000D02*
X581188Y421000D01*
X581500Y407500D02*
X582000Y408000D01*
X246500Y407500D02*
X581500D01*
X326000Y414000D02*
X560000D01*
X246000Y407000D02*
X246500Y407500D01*
X593500Y248500D02*
X620000Y222000D01*
X191560Y510000D02*
X203060Y521500D01*
X223500D01*
X229060Y515940D01*
X638000Y214000D02*
X665000Y187000D01*
X579000Y130060D02*
X579520Y129540D01*
X191560Y508000D02*
Y510000D01*
X604520Y168520D02*
X629000Y193000D01*
X604520Y129540D02*
Y168520D01*
X216560Y506000D02*
Y508000D01*
D14*
X323000Y233000D02*
Y323000D01*
X323000Y323000D01*
X455000Y159489D02*
Y183000D01*
Y159489D02*
X466520Y147969D01*
Y111021D02*
Y147969D01*
X472000Y105000D02*
Y105541D01*
X466520Y111021D02*
X472000Y105541D01*
X400104Y29696D02*
X400104D01*
X404400Y25400D01*
X305000Y180000D02*
X317020Y192020D01*
Y227020D01*
X323000Y233000D01*
X603630Y307370D02*
X606500Y304500D01*
X567000Y184000D02*
Y219000D01*
X292000Y221000D02*
X303000Y232000D01*
X292000Y266188D02*
X303000Y255188D01*
Y232000D02*
Y255188D01*
X292000Y180000D02*
Y221000D01*
Y266188D02*
Y267000D01*
X216000Y131000D02*
X226000D01*
D16*
X246000Y83000D02*
D03*
X201000D02*
D03*
D64*
X671500Y304500D02*
D03*
Y259500D02*
D03*
D65*
X606500Y304500D02*
D03*
Y259500D02*
D03*
X246000Y18000D02*
D03*
X201000D02*
D03*
D69*
X258000Y217000D02*
X283000Y242000D01*
X296000D01*
X145000Y445000D02*
X147000D01*
X103640D02*
X145000D01*
X125000Y199000D02*
X153000D01*
X115191Y189191D02*
X125000Y199000D01*
X121500Y206500D02*
X158229D01*
X115000Y213000D02*
X121500Y206500D01*
X158229D02*
X158729Y206000D01*
X88000Y269000D02*
Y310393D01*
X106096Y328489D02*
Y352096D01*
X124000Y370000D01*
X88000Y310393D02*
X106096Y328489D01*
X87000Y320000D02*
Y350000D01*
X147000Y445000D02*
X153000Y451000D01*
X294000D01*
X311000Y434000D01*
X110000Y175000D02*
X210000D01*
X591000Y400000D02*
Y426000D01*
X311000Y434000D02*
X583000D01*
X591000Y426000D01*
X104000Y367000D02*
Y382000D01*
X87000Y350000D02*
X104000Y367000D01*
X124000Y370000D02*
X145000D01*
X158729Y206000D02*
X159000D01*
X258000Y157000D02*
Y217000D01*
X249000Y148000D02*
X258000Y157000D01*
X104000Y181000D02*
Y258000D01*
Y181000D02*
X110000Y175000D01*
X76200Y472440D02*
X103640Y445000D01*
D73*
X454400Y25400D02*
D03*
X429400D02*
D03*
X404400D02*
D03*
X379400D02*
D03*
X354400D02*
D03*
X329400D02*
D03*
X304400D02*
D03*
X610000Y508000D02*
D03*
X585000D02*
D03*
X560000D02*
D03*
X535000D02*
D03*
X510000D02*
D03*
X485000D02*
D03*
X460000D02*
D03*
X191560D02*
D03*
X216560D02*
D03*
X241560D02*
D03*
X266560D02*
D03*
X291560D02*
D03*
X316560D02*
D03*
X341560D02*
D03*
X366560D02*
D03*
X391560D02*
D03*
X144000Y83000D02*
D03*
X169000D02*
D03*
X533000Y25400D02*
D03*
X558000D02*
D03*
X583000D02*
D03*
X608000D02*
D03*
X633000D02*
D03*
X579520Y205740D02*
D03*
X554520D02*
D03*
X529520D02*
D03*
X504520D02*
D03*
X479520D02*
D03*
X454520D02*
D03*
X429520D02*
D03*
X404520D02*
D03*
X379520D02*
D03*
X354520D02*
D03*
X329520D02*
D03*
X304520D02*
D03*
X279520D02*
D03*
X604520Y129540D02*
D03*
X579520D02*
D03*
X554520D02*
D03*
X529520D02*
D03*
X504520D02*
D03*
X479520D02*
D03*
X454520D02*
D03*
X429520D02*
D03*
X404520D02*
D03*
X379520D02*
D03*
X354520D02*
D03*
X329520D02*
D03*
X304520D02*
D03*
X279520D02*
D03*
D74*
X279400Y25400D02*
D03*
X635000Y508000D02*
D03*
X416560D02*
D03*
X119000Y83000D02*
D03*
X508000Y25400D02*
D03*
X604520Y205740D02*
D03*
D75*
X145000Y445000D02*
D03*
X660000Y470000D02*
D03*
D76*
X145000Y420000D02*
D03*
Y395000D02*
D03*
Y370000D02*
D03*
X660000Y445000D02*
D03*
Y420000D02*
D03*
D77*
X22000Y20000D02*
D03*
Y124000D02*
D03*
D78*
X18250Y154000D02*
D03*
Y220000D02*
D03*
D79*
X50800Y340360D02*
D03*
X25600Y383000D02*
D03*
X25400Y472440D02*
D03*
D80*
Y340360D02*
D03*
X50800Y314960D02*
D03*
X25400D02*
D03*
X51000Y383000D02*
D03*
X76400D02*
D03*
X25600Y408400D02*
D03*
X51000D02*
D03*
X75130D02*
D03*
X74930Y497840D02*
D03*
X50800D02*
D03*
X25400D02*
D03*
X76200Y472440D02*
D03*
X50800D02*
D03*
D81*
X130000Y500000D02*
D03*
D82*
X140000Y25400D02*
D03*
X660400Y78740D02*
D03*
Y355600D02*
D03*
D83*
X9846Y308941D02*
D03*
Y318941D02*
D03*
Y328941D02*
D03*
Y339940D02*
D03*
X10000Y351000D02*
D03*
X9846Y361940D02*
D03*
Y372940D02*
D03*
Y383941D02*
D03*
Y394940D02*
D03*
Y404940D02*
D03*
Y415941D02*
D03*
Y426940D02*
D03*
Y435941D02*
D03*
Y445941D02*
D03*
Y454940D02*
D03*
Y464940D02*
D03*
X10000Y474000D02*
D03*
Y483000D02*
D03*
X54000Y204729D02*
D03*
X55000Y212000D02*
D03*
X77000Y221000D02*
D03*
X76000Y215000D02*
D03*
X77000Y209000D02*
D03*
X165000Y166000D02*
D03*
X154000D02*
D03*
X143000D02*
D03*
X110000Y154000D02*
D03*
X121000D02*
D03*
X132000D02*
D03*
X110000Y146000D02*
D03*
X121000D02*
D03*
X132000D02*
D03*
Y137000D02*
D03*
X121000D02*
D03*
X260000Y493000D02*
D03*
X273000Y486000D02*
D03*
X296000Y242000D02*
D03*
X255000Y228000D02*
D03*
X578000Y377000D02*
D03*
X589000Y386000D02*
D03*
X578000Y369000D02*
D03*
Y386000D02*
D03*
X606000Y94000D02*
D03*
X660000Y149000D02*
D03*
X323000Y323000D02*
D03*
X455000Y183000D02*
D03*
X472000Y105000D02*
D03*
X110000Y137000D02*
D03*
X175000D02*
D03*
X420000Y71000D02*
D03*
X304000Y61000D02*
D03*
X329000Y76000D02*
D03*
X118000Y424000D02*
D03*
Y432000D02*
D03*
X113000Y428000D02*
D03*
X179000Y430000D02*
D03*
X153000Y199000D02*
D03*
X88000Y269000D02*
D03*
X288000Y481000D02*
D03*
X244000Y471000D02*
D03*
X210000Y175000D02*
D03*
X104000Y382000D02*
D03*
X620000Y456000D02*
D03*
X241000Y442000D02*
D03*
X204000Y195000D02*
D03*
X246000Y407000D02*
D03*
X213000Y419000D02*
D03*
X628000Y175000D02*
D03*
X665000Y187000D02*
D03*
X123000Y428000D02*
D03*
X53000Y450000D02*
D03*
X397000Y86000D02*
D03*
X174000Y417000D02*
D03*
X459000Y90000D02*
D03*
X455000Y105000D02*
D03*
X461000Y53000D02*
D03*
X200000Y131000D02*
D03*
X56000Y109000D02*
D03*
Y117000D02*
D03*
X427000Y222000D02*
D03*
X243000Y206000D02*
D03*
X220000D02*
D03*
X146000Y271000D02*
D03*
X77000Y158000D02*
D03*
X376000Y257000D02*
D03*
X78000Y288000D02*
D03*
X115000Y225000D02*
D03*
X145000D02*
D03*
X195000Y206000D02*
D03*
X170000D02*
D03*
X208000Y288000D02*
D03*
X216000Y330000D02*
D03*
X274000Y345000D02*
D03*
X52000Y522000D02*
D03*
X216000Y131000D02*
D03*
X623000Y154000D02*
D03*
X380000Y102000D02*
D03*
X365000Y60000D02*
D03*
X302000Y81000D02*
D03*
X248000Y131000D02*
D03*
X226000D02*
D03*
X76000Y243000D02*
D03*
X104000Y258000D02*
D03*
X282000Y434000D02*
D03*
X87000Y320000D02*
D03*
X249000Y148000D02*
D03*
X182000Y191000D02*
D03*
X159000Y206000D02*
D03*
X115000Y189000D02*
D03*
Y213000D02*
D03*
X591000Y400000D02*
D03*
X582000Y408000D02*
D03*
Y421000D02*
D03*
X567000Y184000D02*
D03*
X326000Y414000D02*
D03*
X560000D02*
D03*
X318000Y422000D02*
D03*
X305000Y180000D02*
D03*
X292000Y267000D02*
D03*
Y180000D02*
D03*
M02*
